<?xml version="1.0" encoding="UTF-8" standalone="no"?>
<!DOCTYPE svg PUBLIC "-//W3C//DTD SVG 1.1//EN"
 "http://www.w3.org/Graphics/SVG/1.1/DTD/svg11.dtd">
<!-- Generated by graphviz version 13.1.0 (20250701.0955)
 -->
<!-- Pages: 1 -->
<svg width="817pt" height="121pt"
 viewBox="0.00 0.00 817.00 121.00" xmlns="http://www.w3.org/2000/svg" xmlns:xlink="http://www.w3.org/1999/xlink">
<g id="graph0" class="graph" transform="scale(1 1) rotate(0) translate(4 117.15)">
<polygon fill="white" stroke="none" points="-4,4 -4,-117.15 813.2,-117.15 813.2,4 -4,4"/>
<text xml:space="preserve" text-anchor="middle" x="404.6" y="-93.95" font-family="Times,serif" font-size="16.00">Petri Net for Dingo &#45; real1_collectivelog</text>
<!-- p_5 -->
<g id="node1" class="node">
<title>p_5</title>
<ellipse fill="none" stroke="black" cx="655" cy="-43.2" rx="43.2" ry="43.2"/>
<text xml:space="preserve" text-anchor="middle" x="655" y="-44.95" font-family="Times,serif" font-size="10.00">p_5</text>
<text xml:space="preserve" text-anchor="middle" x="655" y="-33.7" font-family="Times,serif" font-size="10.00">Dingo</text>
</g>
<!-- da5dcc4e&#45;fc38&#45;4ed8&#45;8f93&#45;e8ab832f91d4 -->
<g id="node6" class="node">
<title>da5dcc4e&#45;fc38&#45;4ed8&#45;8f93&#45;e8ab832f91d4</title>
<polygon fill="none" stroke="black" points="809.2,-61.2 737.2,-61.2 737.2,-25.2 809.2,-25.2 809.2,-61.2"/>
<text xml:space="preserve" text-anchor="middle" x="773.2" y="-39.32" font-family="Times,serif" font-size="10.00">Dingo_done</text>
</g>
<!-- p_5&#45;&gt;da5dcc4e&#45;fc38&#45;4ed8&#45;8f93&#45;e8ab832f91d4 -->
<g id="edge6" class="edge">
<title>p_5&#45;&gt;da5dcc4e&#45;fc38&#45;4ed8&#45;8f93&#45;e8ab832f91d4</title>
<path fill="none" stroke="black" d="M698.61,-43.2C707.35,-43.2 716.59,-43.2 725.46,-43.2"/>
<polygon fill="black" stroke="black" points="725.33,-46.7 735.33,-43.2 725.33,-39.7 725.33,-46.7"/>
<text xml:space="preserve" text-anchor="middle" x="717.7" y="-45.35" font-family="Times,serif" font-size="8.00">r</text>
</g>
<!-- p_4 -->
<g id="node2" class="node">
<title>p_4</title>
<ellipse fill="none" stroke="black" cx="418.6" cy="-43.2" rx="43.2" ry="43.2"/>
<text xml:space="preserve" text-anchor="middle" x="418.6" y="-44.95" font-family="Times,serif" font-size="10.00">p_4</text>
<text xml:space="preserve" text-anchor="middle" x="418.6" y="-33.7" font-family="Times,serif" font-size="10.00">Dingo</text>
</g>
<!-- 3ccfb3ad&#45;9779&#45;4bcb&#45;b726&#45;b6edce3b5a78 -->
<g id="node5" class="node">
<title>3ccfb3ad&#45;9779&#45;4bcb&#45;b726&#45;b6edce3b5a78</title>
<polygon fill="none" stroke="black" points="572.8,-61.2 500.8,-61.2 500.8,-25.2 572.8,-25.2 572.8,-61.2"/>
<text xml:space="preserve" text-anchor="middle" x="536.8" y="-39.32" font-family="Times,serif" font-size="10.00">Dingo_Fire</text>
</g>
<!-- p_4&#45;&gt;3ccfb3ad&#45;9779&#45;4bcb&#45;b726&#45;b6edce3b5a78 -->
<g id="edge1" class="edge">
<title>p_4&#45;&gt;3ccfb3ad&#45;9779&#45;4bcb&#45;b726&#45;b6edce3b5a78</title>
<path fill="none" stroke="black" d="M462.21,-43.2C470.95,-43.2 480.19,-43.2 489.06,-43.2"/>
<polygon fill="black" stroke="black" points="488.93,-46.7 498.93,-43.2 488.93,-39.7 488.93,-46.7"/>
<text xml:space="preserve" text-anchor="middle" x="481.3" y="-45.35" font-family="Times,serif" font-size="8.00">r</text>
</g>
<!-- p_3 -->
<g id="node3" class="node">
<title>p_3</title>
<ellipse fill="none" stroke="black" cx="182.2" cy="-43.2" rx="43.2" ry="43.2"/>
<text xml:space="preserve" text-anchor="middle" x="182.2" y="-44.95" font-family="Times,serif" font-size="10.00">p_3</text>
<text xml:space="preserve" text-anchor="middle" x="182.2" y="-33.7" font-family="Times,serif" font-size="10.00">Dingo</text>
</g>
<!-- cdc984e5&#45;662a&#45;4230&#45;be25&#45;7c713a27ef41 -->
<g id="node7" class="node">
<title>cdc984e5&#45;662a&#45;4230&#45;be25&#45;7c713a27ef41</title>
<polygon fill="none" stroke="black" points="336.4,-61.2 264.4,-61.2 264.4,-25.2 336.4,-25.2 336.4,-61.2"/>
<text xml:space="preserve" text-anchor="middle" x="300.4" y="-39.32" font-family="Times,serif" font-size="10.00">Dingo_GoTo</text>
</g>
<!-- p_3&#45;&gt;cdc984e5&#45;662a&#45;4230&#45;be25&#45;7c713a27ef41 -->
<g id="edge2" class="edge">
<title>p_3&#45;&gt;cdc984e5&#45;662a&#45;4230&#45;be25&#45;7c713a27ef41</title>
<path fill="none" stroke="black" d="M225.81,-43.2C234.55,-43.2 243.79,-43.2 252.66,-43.2"/>
<polygon fill="black" stroke="black" points="252.53,-46.7 262.53,-43.2 252.53,-39.7 252.53,-46.7"/>
<text xml:space="preserve" text-anchor="middle" x="244.9" y="-45.35" font-family="Times,serif" font-size="8.00">r</text>
</g>
<!-- f2b7e242&#45;74cf&#45;4eeb&#45;b77a&#45;d924fb69e203 -->
<g id="node4" class="node">
<title>f2b7e242&#45;74cf&#45;4eeb&#45;b77a&#45;d924fb69e203</title>
<polygon fill="none" stroke="black" points="100,-61.2 0,-61.2 0,-25.2 100,-25.2 100,-61.2"/>
<text xml:space="preserve" text-anchor="middle" x="50" y="-39.32" font-family="Times,serif" font-size="10.00">Dingo_target_found</text>
</g>
<!-- f2b7e242&#45;74cf&#45;4eeb&#45;b77a&#45;d924fb69e203&#45;&gt;p_3 -->
<g id="edge3" class="edge">
<title>f2b7e242&#45;74cf&#45;4eeb&#45;b77a&#45;d924fb69e203&#45;&gt;p_3</title>
<path fill="none" stroke="black" d="M100.22,-43.2C109.13,-43.2 118.47,-43.2 127.5,-43.2"/>
<polygon fill="black" stroke="black" points="127.21,-46.7 137.21,-43.2 127.21,-39.7 127.21,-46.7"/>
<text xml:space="preserve" text-anchor="middle" x="119.5" y="-45.35" font-family="Times,serif" font-size="8.00">r</text>
</g>
<!-- 3ccfb3ad&#45;9779&#45;4bcb&#45;b726&#45;b6edce3b5a78&#45;&gt;p_5 -->
<g id="edge5" class="edge">
<title>3ccfb3ad&#45;9779&#45;4bcb&#45;b726&#45;b6edce3b5a78&#45;&gt;p_5</title>
<path fill="none" stroke="black" d="M573.3,-43.2C581.74,-43.2 590.94,-43.2 600.01,-43.2"/>
<polygon fill="black" stroke="black" points="599.85,-46.7 609.85,-43.2 599.85,-39.7 599.85,-46.7"/>
<text xml:space="preserve" text-anchor="middle" x="592.3" y="-45.35" font-family="Times,serif" font-size="8.00">r</text>
</g>
<!-- cdc984e5&#45;662a&#45;4230&#45;be25&#45;7c713a27ef41&#45;&gt;p_4 -->
<g id="edge4" class="edge">
<title>cdc984e5&#45;662a&#45;4230&#45;be25&#45;7c713a27ef41&#45;&gt;p_4</title>
<path fill="none" stroke="black" d="M336.9,-43.2C345.34,-43.2 354.54,-43.2 363.61,-43.2"/>
<polygon fill="black" stroke="black" points="363.45,-46.7 373.45,-43.2 363.45,-39.7 363.45,-46.7"/>
<text xml:space="preserve" text-anchor="middle" x="355.9" y="-45.35" font-family="Times,serif" font-size="8.00">r</text>
</g>
</g>
</svg>
