<?xml version="1.0" encoding="UTF-8" standalone="no"?>
<!DOCTYPE svg PUBLIC "-//W3C//DTD SVG 1.1//EN"
 "http://www.w3.org/Graphics/SVG/1.1/DTD/svg11.dtd">
<!-- Generated by graphviz version 13.1.0 (20250701.0955)
 -->
<!-- Pages: 1 -->
<svg width="2221pt" height="433pt"
 viewBox="0.00 0.00 2221.00 433.00" xmlns="http://www.w3.org/2000/svg" xmlns:xlink="http://www.w3.org/1999/xlink">
<g id="graph0" class="graph" transform="scale(1 1) rotate(0) translate(4 429.15)">
<polygon fill="white" stroke="none" points="-4,4 -4,-429.15 2217.1,-429.15 2217.1,4 -4,4"/>
<text xml:space="preserve" text-anchor="middle" x="1106.55" y="-405.95" font-family="Times,serif" font-size="16.00">Petri Net for PartyB &#45; art5_collectivelog</text>
<!-- p_13 -->
<g id="node1" class="node">
<title>p_13</title>
<ellipse fill="none" stroke="black" cx="630.75" cy="-355.2" rx="43.2" ry="43.2"/>
<text xml:space="preserve" text-anchor="middle" x="630.75" y="-356.95" font-family="Times,serif" font-size="10.00">p_13</text>
<text xml:space="preserve" text-anchor="middle" x="630.75" y="-345.7" font-family="Times,serif" font-size="10.00">PartyB</text>
</g>
<!-- adaf9002&#45;6ecf&#45;4d2e&#45;9593&#45;b8d75ee07d5a -->
<g id="node26" class="node">
<title>adaf9002&#45;6ecf&#45;4d2e&#45;9593&#45;b8d75ee07d5a</title>
<polygon fill="none" stroke="black" points="785.7,-373.2 713.7,-373.2 713.7,-337.2 785.7,-337.2 785.7,-373.2"/>
<text xml:space="preserve" text-anchor="middle" x="749.7" y="-351.32" font-family="Times,serif" font-size="10.00">Activity FF</text>
</g>
<!-- p_13&#45;&gt;adaf9002&#45;6ecf&#45;4d2e&#45;9593&#45;b8d75ee07d5a -->
<g id="edge33" class="edge">
<title>p_13&#45;&gt;adaf9002&#45;6ecf&#45;4d2e&#45;9593&#45;b8d75ee07d5a</title>
<path fill="none" stroke="black" d="M674.3,-355.2C683.3,-355.2 692.85,-355.2 701.99,-355.2"/>
<polygon fill="black" stroke="black" points="701.78,-358.7 711.78,-355.2 701.78,-351.7 701.78,-358.7"/>
<text xml:space="preserve" text-anchor="middle" x="693.83" y="-357.35" font-family="Times,serif" font-size="8.00">n</text>
</g>
<!-- p_15 -->
<g id="node2" class="node">
<title>p_15</title>
<ellipse fill="none" stroke="black" cx="1106.55" cy="-181.2" rx="43.2" ry="43.2"/>
<text xml:space="preserve" text-anchor="middle" x="1106.55" y="-182.95" font-family="Times,serif" font-size="10.00">p_15</text>
<text xml:space="preserve" text-anchor="middle" x="1106.55" y="-171.7" font-family="Times,serif" font-size="10.00">PartyB</text>
</g>
<!-- 0c961ee9&#45;575a&#45;4418&#45;a58e&#45;d907d823fe1f -->
<g id="node29" class="node">
<title>0c961ee9&#45;575a&#45;4418&#45;a58e&#45;d907d823fe1f</title>
<polygon fill="none" stroke="black" points="1261.5,-199.2 1189.5,-199.2 1189.5,-163.2 1261.5,-163.2 1261.5,-199.2"/>
<text xml:space="preserve" text-anchor="middle" x="1225.5" y="-177.32" font-family="Times,serif" font-size="10.00">Activity I</text>
</g>
<!-- p_15&#45;&gt;0c961ee9&#45;575a&#45;4418&#45;a58e&#45;d907d823fe1f -->
<g id="edge14" class="edge">
<title>p_15&#45;&gt;0c961ee9&#45;575a&#45;4418&#45;a58e&#45;d907d823fe1f</title>
<path fill="none" stroke="black" d="M1150.1,-181.2C1159.1,-181.2 1168.65,-181.2 1177.79,-181.2"/>
<polygon fill="black" stroke="black" points="1177.58,-184.7 1187.58,-181.2 1177.58,-177.7 1177.58,-184.7"/>
<text xml:space="preserve" text-anchor="middle" x="1169.63" y="-183.35" font-family="Times,serif" font-size="8.00">n</text>
</g>
<!-- p_17 -->
<g id="node3" class="node">
<title>p_17</title>
<ellipse fill="none" stroke="black" cx="1582.35" cy="-181.2" rx="43.2" ry="43.2"/>
<text xml:space="preserve" text-anchor="middle" x="1582.35" y="-182.95" font-family="Times,serif" font-size="10.00">p_17</text>
<text xml:space="preserve" text-anchor="middle" x="1582.35" y="-171.7" font-family="Times,serif" font-size="10.00">PartyB</text>
</g>
<!-- 9fce9bca&#45;9405&#45;432d&#45;833e&#45;5481eecdbf21 -->
<g id="node16" class="node">
<title>9fce9bca&#45;9405&#45;432d&#45;833e&#45;5481eecdbf21</title>
<polygon fill="none" stroke="black" points="1737.3,-199.2 1665.3,-199.2 1665.3,-163.2 1737.3,-163.2 1737.3,-199.2"/>
<text xml:space="preserve" text-anchor="middle" x="1701.3" y="-177.32" font-family="Times,serif" font-size="10.00">Activity K</text>
</g>
<!-- p_17&#45;&gt;9fce9bca&#45;9405&#45;432d&#45;833e&#45;5481eecdbf21 -->
<g id="edge1" class="edge">
<title>p_17&#45;&gt;9fce9bca&#45;9405&#45;432d&#45;833e&#45;5481eecdbf21</title>
<path fill="none" stroke="black" d="M1625.9,-181.2C1634.9,-181.2 1644.45,-181.2 1653.59,-181.2"/>
<polygon fill="black" stroke="black" points="1653.38,-184.7 1663.38,-181.2 1653.38,-177.7 1653.38,-184.7"/>
<text xml:space="preserve" text-anchor="middle" x="1645.43" y="-183.35" font-family="Times,serif" font-size="8.00">n</text>
</g>
<!-- p_4 -->
<g id="node4" class="node">
<title>p_4</title>
<ellipse fill="none" stroke="black" cx="392.85" cy="-181.2" rx="43.2" ry="43.2"/>
<text xml:space="preserve" text-anchor="middle" x="392.85" y="-182.95" font-family="Times,serif" font-size="10.00">p_4</text>
<text xml:space="preserve" text-anchor="middle" x="392.85" y="-171.7" font-family="Times,serif" font-size="10.00">PartyB</text>
</g>
<!-- d9ac5f98&#45;cab6&#45;4785&#45;9062&#45;74d396647634 -->
<g id="node22" class="node">
<title>d9ac5f98&#45;cab6&#45;4785&#45;9062&#45;74d396647634</title>
<polygon fill="none" stroke="black" points="547.8,-199.2 475.8,-199.2 475.8,-163.2 547.8,-163.2 547.8,-199.2"/>
<text xml:space="preserve" text-anchor="middle" x="511.8" y="-177.32" font-family="Times,serif" font-size="10.00">Activity CC</text>
</g>
<!-- p_4&#45;&gt;d9ac5f98&#45;cab6&#45;4785&#45;9062&#45;74d396647634 -->
<g id="edge5" class="edge">
<title>p_4&#45;&gt;d9ac5f98&#45;cab6&#45;4785&#45;9062&#45;74d396647634</title>
<path fill="none" stroke="black" d="M436.4,-181.2C445.4,-181.2 454.95,-181.2 464.09,-181.2"/>
<polygon fill="black" stroke="black" points="463.88,-184.7 473.88,-181.2 463.88,-177.7 463.88,-184.7"/>
<text xml:space="preserve" text-anchor="middle" x="455.92" y="-183.35" font-family="Times,serif" font-size="8.00">n</text>
</g>
<!-- p_3 -->
<g id="node5" class="node">
<title>p_3</title>
<ellipse fill="none" stroke="black" cx="154.95" cy="-181.2" rx="43.2" ry="43.2"/>
<text xml:space="preserve" text-anchor="middle" x="154.95" y="-182.95" font-family="Times,serif" font-size="10.00">p_3</text>
<text xml:space="preserve" text-anchor="middle" x="154.95" y="-171.7" font-family="Times,serif" font-size="10.00">PartyB</text>
</g>
<!-- fc7cdae4&#45;443d&#45;4a2a&#45;9df0&#45;34889897db46 -->
<g id="node21" class="node">
<title>fc7cdae4&#45;443d&#45;4a2a&#45;9df0&#45;34889897db46</title>
<polygon fill="none" stroke="black" points="309.9,-199.2 237.9,-199.2 237.9,-163.2 309.9,-163.2 309.9,-199.2"/>
<text xml:space="preserve" text-anchor="middle" x="273.9" y="-177.32" font-family="Times,serif" font-size="10.00">Activity BB</text>
</g>
<!-- p_3&#45;&gt;fc7cdae4&#45;443d&#45;4a2a&#45;9df0&#45;34889897db46 -->
<g id="edge21" class="edge">
<title>p_3&#45;&gt;fc7cdae4&#45;443d&#45;4a2a&#45;9df0&#45;34889897db46</title>
<path fill="none" stroke="black" d="M198.5,-181.2C207.5,-181.2 217.05,-181.2 226.19,-181.2"/>
<polygon fill="black" stroke="black" points="225.98,-184.7 235.98,-181.2 225.98,-177.7 225.98,-184.7"/>
<text xml:space="preserve" text-anchor="middle" x="218.02" y="-183.35" font-family="Times,serif" font-size="8.00">n</text>
</g>
<!-- p_7 -->
<g id="node6" class="node">
<title>p_7</title>
<ellipse fill="none" stroke="black" cx="630.75" cy="-251.2" rx="43.2" ry="43.2"/>
<text xml:space="preserve" text-anchor="middle" x="630.75" y="-252.95" font-family="Times,serif" font-size="10.00">p_7</text>
<text xml:space="preserve" text-anchor="middle" x="630.75" y="-241.7" font-family="Times,serif" font-size="10.00">PartyB</text>
</g>
<!-- 955952ee&#45;1184&#45;4753&#45;b105&#45;253c0705f0e5 -->
<g id="node23" class="node">
<title>955952ee&#45;1184&#45;4753&#45;b105&#45;253c0705f0e5</title>
<polygon fill="none" stroke="black" points="785.7,-269.2 713.7,-269.2 713.7,-233.2 785.7,-233.2 785.7,-269.2"/>
<text xml:space="preserve" text-anchor="middle" x="749.7" y="-247.32" font-family="Times,serif" font-size="10.00">Activity H</text>
</g>
<!-- p_7&#45;&gt;955952ee&#45;1184&#45;4753&#45;b105&#45;253c0705f0e5 -->
<g id="edge19" class="edge">
<title>p_7&#45;&gt;955952ee&#45;1184&#45;4753&#45;b105&#45;253c0705f0e5</title>
<path fill="none" stroke="black" d="M674.3,-251.2C683.3,-251.2 692.85,-251.2 701.99,-251.2"/>
<polygon fill="black" stroke="black" points="701.78,-254.7 711.78,-251.2 701.78,-247.7 701.78,-254.7"/>
<text xml:space="preserve" text-anchor="middle" x="693.83" y="-253.35" font-family="Times,serif" font-size="8.00">n</text>
</g>
<!-- p_8 -->
<g id="node7" class="node">
<title>p_8</title>
<ellipse fill="none" stroke="black" cx="868.65" cy="-251.2" rx="43.2" ry="43.2"/>
<text xml:space="preserve" text-anchor="middle" x="868.65" y="-252.95" font-family="Times,serif" font-size="10.00">p_8</text>
<text xml:space="preserve" text-anchor="middle" x="868.65" y="-241.7" font-family="Times,serif" font-size="10.00">PartyB</text>
</g>
<!-- 5c6c7f99&#45;abf8&#45;4831&#45;a840&#45;2991bd6940e3 -->
<g id="node27" class="node">
<title>5c6c7f99&#45;abf8&#45;4831&#45;a840&#45;2991bd6940e3</title>
<polygon fill="none" stroke="black" points="1023.6,-199.2 951.6,-199.2 951.6,-163.2 1023.6,-163.2 1023.6,-199.2"/>
<text xml:space="preserve" text-anchor="middle" x="987.6" y="-177.32" font-family="Times,serif" font-size="10.00">Activity DD</text>
</g>
<!-- p_8&#45;&gt;5c6c7f99&#45;abf8&#45;4831&#45;a840&#45;2991bd6940e3 -->
<g id="edge10" class="edge">
<title>p_8&#45;&gt;5c6c7f99&#45;abf8&#45;4831&#45;a840&#45;2991bd6940e3</title>
<path fill="none" stroke="black" d="M906.33,-229.24C919.04,-221.64 933.34,-213.08 946.32,-205.31"/>
<polygon fill="black" stroke="black" points="947.86,-208.47 954.64,-200.33 944.26,-202.46 947.86,-208.47"/>
<text xml:space="preserve" text-anchor="middle" x="931.73" y="-216.25" font-family="Times,serif" font-size="8.00">n</text>
</g>
<!-- p_9 -->
<g id="node8" class="node">
<title>p_9</title>
<ellipse fill="none" stroke="black" cx="630.75" cy="-147.2" rx="43.2" ry="43.2"/>
<text xml:space="preserve" text-anchor="middle" x="630.75" y="-148.95" font-family="Times,serif" font-size="10.00">p_9</text>
<text xml:space="preserve" text-anchor="middle" x="630.75" y="-137.7" font-family="Times,serif" font-size="10.00">PartyB</text>
</g>
<!-- f407415f&#45;9505&#45;4e44&#45;80fe&#45;72790089e359 -->
<g id="node24" class="node">
<title>f407415f&#45;9505&#45;4e44&#45;80fe&#45;72790089e359</title>
<polygon fill="none" stroke="black" points="785.7,-165.2 713.7,-165.2 713.7,-129.2 785.7,-129.2 785.7,-165.2"/>
<text xml:space="preserve" text-anchor="middle" x="749.7" y="-143.32" font-family="Times,serif" font-size="10.00">Activity G</text>
</g>
<!-- p_9&#45;&gt;f407415f&#45;9505&#45;4e44&#45;80fe&#45;72790089e359 -->
<g id="edge18" class="edge">
<title>p_9&#45;&gt;f407415f&#45;9505&#45;4e44&#45;80fe&#45;72790089e359</title>
<path fill="none" stroke="black" d="M674.3,-147.2C683.3,-147.2 692.85,-147.2 701.99,-147.2"/>
<polygon fill="black" stroke="black" points="701.78,-150.7 711.78,-147.2 701.78,-143.7 701.78,-150.7"/>
<text xml:space="preserve" text-anchor="middle" x="693.83" y="-149.35" font-family="Times,serif" font-size="8.00">n</text>
</g>
<!-- p_11 -->
<g id="node9" class="node">
<title>p_11</title>
<ellipse fill="none" stroke="black" cx="630.75" cy="-43.2" rx="43.2" ry="43.2"/>
<text xml:space="preserve" text-anchor="middle" x="630.75" y="-44.95" font-family="Times,serif" font-size="10.00">p_11</text>
<text xml:space="preserve" text-anchor="middle" x="630.75" y="-33.7" font-family="Times,serif" font-size="10.00">PartyB</text>
</g>
<!-- f683090b&#45;e31b&#45;4c86&#45;90e1&#45;ad66e1c7f64e -->
<g id="node25" class="node">
<title>f683090b&#45;e31b&#45;4c86&#45;90e1&#45;ad66e1c7f64e</title>
<polygon fill="none" stroke="black" points="785.7,-61.2 713.7,-61.2 713.7,-25.2 785.7,-25.2 785.7,-61.2"/>
<text xml:space="preserve" text-anchor="middle" x="749.7" y="-39.32" font-family="Times,serif" font-size="10.00">Activity EE</text>
</g>
<!-- p_11&#45;&gt;f683090b&#45;e31b&#45;4c86&#45;90e1&#45;ad66e1c7f64e -->
<g id="edge12" class="edge">
<title>p_11&#45;&gt;f683090b&#45;e31b&#45;4c86&#45;90e1&#45;ad66e1c7f64e</title>
<path fill="none" stroke="black" d="M674.3,-43.2C683.3,-43.2 692.85,-43.2 701.99,-43.2"/>
<polygon fill="black" stroke="black" points="701.78,-46.7 711.78,-43.2 701.78,-39.7 701.78,-46.7"/>
<text xml:space="preserve" text-anchor="middle" x="693.83" y="-45.35" font-family="Times,serif" font-size="8.00">n</text>
</g>
<!-- p_12 -->
<g id="node10" class="node">
<title>p_12</title>
<ellipse fill="none" stroke="black" cx="868.65" cy="-43.2" rx="43.2" ry="43.2"/>
<text xml:space="preserve" text-anchor="middle" x="868.65" y="-44.95" font-family="Times,serif" font-size="10.00">p_12</text>
<text xml:space="preserve" text-anchor="middle" x="868.65" y="-33.7" font-family="Times,serif" font-size="10.00">PartyB</text>
</g>
<!-- p_12&#45;&gt;5c6c7f99&#45;abf8&#45;4831&#45;a840&#45;2991bd6940e3 -->
<g id="edge8" class="edge">
<title>p_12&#45;&gt;5c6c7f99&#45;abf8&#45;4831&#45;a840&#45;2991bd6940e3</title>
<path fill="none" stroke="black" d="M897.37,-75.9C917.55,-99.72 944.57,-131.61 963.57,-154.03"/>
<polygon fill="black" stroke="black" points="960.82,-156.19 969.95,-161.55 966.16,-151.66 960.82,-156.19"/>
<text xml:space="preserve" text-anchor="middle" x="931.73" y="-118.49" font-family="Times,serif" font-size="8.00">n</text>
</g>
<!-- p_14 -->
<g id="node11" class="node">
<title>p_14</title>
<ellipse fill="none" stroke="black" cx="868.65" cy="-355.2" rx="43.2" ry="43.2"/>
<text xml:space="preserve" text-anchor="middle" x="868.65" y="-356.95" font-family="Times,serif" font-size="10.00">p_14</text>
<text xml:space="preserve" text-anchor="middle" x="868.65" y="-345.7" font-family="Times,serif" font-size="10.00">PartyB</text>
</g>
<!-- p_14&#45;&gt;5c6c7f99&#45;abf8&#45;4831&#45;a840&#45;2991bd6940e3 -->
<g id="edge4" class="edge">
<title>p_14&#45;&gt;5c6c7f99&#45;abf8&#45;4831&#45;a840&#45;2991bd6940e3</title>
<path fill="none" stroke="black" d="M897.33,-322.42C902.32,-316.15 907.35,-309.56 911.85,-303.2 933.82,-272.15 956.25,-234.6 970.73,-209.43"/>
<polygon fill="black" stroke="black" points="973.76,-211.19 975.68,-200.77 967.68,-207.72 973.76,-211.19"/>
<text xml:space="preserve" text-anchor="middle" x="931.73" y="-276.07" font-family="Times,serif" font-size="8.00">n</text>
</g>
<!-- p_18 -->
<g id="node12" class="node">
<title>p_18</title>
<ellipse fill="none" stroke="black" cx="1820.25" cy="-181.2" rx="43.2" ry="43.2"/>
<text xml:space="preserve" text-anchor="middle" x="1820.25" y="-182.95" font-family="Times,serif" font-size="10.00">p_18</text>
<text xml:space="preserve" text-anchor="middle" x="1820.25" y="-171.7" font-family="Times,serif" font-size="10.00">PartyB</text>
</g>
<!-- e0b618da&#45;3328&#45;475c&#45;b630&#45;151a97bf669b -->
<g id="node17" class="node">
<title>e0b618da&#45;3328&#45;475c&#45;b630&#45;151a97bf669b</title>
<polygon fill="none" stroke="black" points="1975.2,-253.2 1903.2,-253.2 1903.2,-217.2 1975.2,-217.2 1975.2,-253.2"/>
<text xml:space="preserve" text-anchor="middle" x="1939.2" y="-231.32" font-family="Times,serif" font-size="10.00">Activity O</text>
</g>
<!-- p_18&#45;&gt;e0b618da&#45;3328&#45;475c&#45;b630&#45;151a97bf669b -->
<g id="edge28" class="edge">
<title>p_18&#45;&gt;e0b618da&#45;3328&#45;475c&#45;b630&#45;151a97bf669b</title>
<path fill="none" stroke="black" d="M1859.87,-199.03C1870.36,-203.87 1881.81,-209.16 1892.64,-214.16"/>
<polygon fill="black" stroke="black" points="1890.86,-217.2 1901.41,-218.21 1893.8,-210.84 1890.86,-217.2"/>
<text xml:space="preserve" text-anchor="middle" x="1883.33" y="-211.97" font-family="Times,serif" font-size="8.00">n</text>
</g>
<!-- c11df1ca&#45;6a30&#45;4be1&#45;ace1&#45;c5f08bed6931 -->
<g id="node28" class="node">
<title>c11df1ca&#45;6a30&#45;4be1&#45;ace1&#45;c5f08bed6931</title>
<polygon fill="none" stroke="black" points="1975.2,-199.2 1903.2,-199.2 1903.2,-163.2 1975.2,-163.2 1975.2,-199.2"/>
<text xml:space="preserve" text-anchor="middle" x="1939.2" y="-177.32" font-family="Times,serif" font-size="10.00">Activity M</text>
</g>
<!-- p_18&#45;&gt;c11df1ca&#45;6a30&#45;4be1&#45;ace1&#45;c5f08bed6931 -->
<g id="edge23" class="edge">
<title>p_18&#45;&gt;c11df1ca&#45;6a30&#45;4be1&#45;ace1&#45;c5f08bed6931</title>
<path fill="none" stroke="black" d="M1863.8,-181.2C1872.8,-181.2 1882.35,-181.2 1891.49,-181.2"/>
<polygon fill="black" stroke="black" points="1891.28,-184.7 1901.28,-181.2 1891.28,-177.7 1891.28,-184.7"/>
<text xml:space="preserve" text-anchor="middle" x="1883.33" y="-183.35" font-family="Times,serif" font-size="8.00">n</text>
</g>
<!-- 774a0fad&#45;13e6&#45;44e6&#45;9e95&#45;bbfaa86b04c2 -->
<g id="node30" class="node">
<title>774a0fad&#45;13e6&#45;44e6&#45;9e95&#45;bbfaa86b04c2</title>
<polygon fill="none" stroke="black" points="1975.2,-145.2 1903.2,-145.2 1903.2,-109.2 1975.2,-109.2 1975.2,-145.2"/>
<text xml:space="preserve" text-anchor="middle" x="1939.2" y="-123.32" font-family="Times,serif" font-size="10.00">Activity N</text>
</g>
<!-- p_18&#45;&gt;774a0fad&#45;13e6&#45;44e6&#45;9e95&#45;bbfaa86b04c2 -->
<g id="edge26" class="edge">
<title>p_18&#45;&gt;774a0fad&#45;13e6&#45;44e6&#45;9e95&#45;bbfaa86b04c2</title>
<path fill="none" stroke="black" d="M1859.87,-163.37C1870.36,-158.53 1881.81,-153.24 1892.64,-148.24"/>
<polygon fill="black" stroke="black" points="1893.8,-151.56 1901.41,-144.19 1890.86,-145.2 1893.8,-151.56"/>
<text xml:space="preserve" text-anchor="middle" x="1883.33" y="-154.73" font-family="Times,serif" font-size="8.00">n</text>
</g>
<!-- p_19 -->
<g id="node13" class="node">
<title>p_19</title>
<ellipse fill="none" stroke="black" cx="2058.15" cy="-181.2" rx="43.2" ry="43.2"/>
<text xml:space="preserve" text-anchor="middle" x="2058.15" y="-182.95" font-family="Times,serif" font-size="10.00">p_19</text>
<text xml:space="preserve" text-anchor="middle" x="2058.15" y="-171.7" font-family="Times,serif" font-size="10.00">PartyB</text>
</g>
<!-- 59e6a7d9&#45;2581&#45;4a23&#45;9809&#45;1e147c9c3ea9 -->
<g id="node19" class="node">
<title>59e6a7d9&#45;2581&#45;4a23&#45;9809&#45;1e147c9c3ea9</title>
<polygon fill="none" stroke="black" points="2213.1,-199.2 2141.1,-199.2 2141.1,-163.2 2213.1,-163.2 2213.1,-199.2"/>
<text xml:space="preserve" text-anchor="middle" x="2177.1" y="-177.32" font-family="Times,serif" font-size="10.00">Activity L</text>
</g>
<!-- p_19&#45;&gt;59e6a7d9&#45;2581&#45;4a23&#45;9809&#45;1e147c9c3ea9 -->
<g id="edge32" class="edge">
<title>p_19&#45;&gt;59e6a7d9&#45;2581&#45;4a23&#45;9809&#45;1e147c9c3ea9</title>
<path fill="none" stroke="black" d="M2101.7,-181.2C2110.7,-181.2 2120.25,-181.2 2129.39,-181.2"/>
<polygon fill="black" stroke="black" points="2129.18,-184.7 2139.18,-181.2 2129.18,-177.7 2129.18,-184.7"/>
<text xml:space="preserve" text-anchor="middle" x="2121.23" y="-183.35" font-family="Times,serif" font-size="8.00">n</text>
</g>
<!-- p_10 -->
<g id="node14" class="node">
<title>p_10</title>
<ellipse fill="none" stroke="black" cx="868.65" cy="-147.2" rx="43.2" ry="43.2"/>
<text xml:space="preserve" text-anchor="middle" x="868.65" y="-148.95" font-family="Times,serif" font-size="10.00">p_10</text>
<text xml:space="preserve" text-anchor="middle" x="868.65" y="-137.7" font-family="Times,serif" font-size="10.00">PartyB</text>
</g>
<!-- p_10&#45;&gt;5c6c7f99&#45;abf8&#45;4831&#45;a840&#45;2991bd6940e3 -->
<g id="edge16" class="edge">
<title>p_10&#45;&gt;5c6c7f99&#45;abf8&#45;4831&#45;a840&#45;2991bd6940e3</title>
<path fill="none" stroke="black" d="M910.55,-159.09C920.22,-161.9 930.59,-164.92 940.48,-167.79"/>
<polygon fill="black" stroke="black" points="939.32,-171.1 949.9,-170.53 941.28,-164.38 939.32,-171.1"/>
<text xml:space="preserve" text-anchor="middle" x="931.73" y="-167.37" font-family="Times,serif" font-size="8.00">n</text>
</g>
<!-- p_16 -->
<g id="node15" class="node">
<title>p_16</title>
<ellipse fill="none" stroke="black" cx="1344.45" cy="-181.2" rx="43.2" ry="43.2"/>
<text xml:space="preserve" text-anchor="middle" x="1344.45" y="-182.95" font-family="Times,serif" font-size="10.00">p_16</text>
<text xml:space="preserve" text-anchor="middle" x="1344.45" y="-171.7" font-family="Times,serif" font-size="10.00">PartyB</text>
</g>
<!-- 524ccfb9&#45;44f3&#45;4b95&#45;adaf&#45;71a1cd17aeb2 -->
<g id="node18" class="node">
<title>524ccfb9&#45;44f3&#45;4b95&#45;adaf&#45;71a1cd17aeb2</title>
<polygon fill="none" stroke="black" points="1499.4,-199.2 1427.4,-199.2 1427.4,-163.2 1499.4,-163.2 1499.4,-199.2"/>
<text xml:space="preserve" text-anchor="middle" x="1463.4" y="-177.32" font-family="Times,serif" font-size="10.00">Activity J</text>
</g>
<!-- p_16&#45;&gt;524ccfb9&#45;44f3&#45;4b95&#45;adaf&#45;71a1cd17aeb2 -->
<g id="edge29" class="edge">
<title>p_16&#45;&gt;524ccfb9&#45;44f3&#45;4b95&#45;adaf&#45;71a1cd17aeb2</title>
<path fill="none" stroke="black" d="M1388,-181.2C1397,-181.2 1406.55,-181.2 1415.69,-181.2"/>
<polygon fill="black" stroke="black" points="1415.48,-184.7 1425.48,-181.2 1415.48,-177.7 1415.48,-184.7"/>
<text xml:space="preserve" text-anchor="middle" x="1407.53" y="-183.35" font-family="Times,serif" font-size="8.00">n</text>
</g>
<!-- 9fce9bca&#45;9405&#45;432d&#45;833e&#45;5481eecdbf21&#45;&gt;p_18 -->
<g id="edge2" class="edge">
<title>9fce9bca&#45;9405&#45;432d&#45;833e&#45;5481eecdbf21&#45;&gt;p_18</title>
<path fill="none" stroke="black" d="M1737.71,-181.2C1746.5,-181.2 1756.12,-181.2 1765.58,-181.2"/>
<polygon fill="black" stroke="black" points="1765.45,-184.7 1775.45,-181.2 1765.45,-177.7 1765.45,-184.7"/>
<text xml:space="preserve" text-anchor="middle" x="1757.18" y="-183.35" font-family="Times,serif" font-size="8.00">n</text>
</g>
<!-- e0b618da&#45;3328&#45;475c&#45;b630&#45;151a97bf669b&#45;&gt;p_19 -->
<g id="edge30" class="edge">
<title>e0b618da&#45;3328&#45;475c&#45;b630&#45;151a97bf669b&#45;&gt;p_19</title>
<path fill="none" stroke="black" d="M1975.61,-218.85C1985.9,-214.1 1997.32,-208.82 2008.29,-203.76"/>
<polygon fill="black" stroke="black" points="2009.62,-207 2017.23,-199.63 2006.68,-200.65 2009.62,-207"/>
<text xml:space="preserve" text-anchor="middle" x="1995.08" y="-211.97" font-family="Times,serif" font-size="8.00">n</text>
</g>
<!-- 524ccfb9&#45;44f3&#45;4b95&#45;adaf&#45;71a1cd17aeb2&#45;&gt;p_17 -->
<g id="edge31" class="edge">
<title>524ccfb9&#45;44f3&#45;4b95&#45;adaf&#45;71a1cd17aeb2&#45;&gt;p_17</title>
<path fill="none" stroke="black" d="M1499.81,-181.2C1508.6,-181.2 1518.22,-181.2 1527.68,-181.2"/>
<polygon fill="black" stroke="black" points="1527.55,-184.7 1537.55,-181.2 1527.55,-177.7 1527.55,-184.7"/>
<text xml:space="preserve" text-anchor="middle" x="1519.28" y="-183.35" font-family="Times,serif" font-size="8.00">n</text>
</g>
<!-- 9beeb2e5&#45;cefe&#45;4878&#45;b1b8&#45;2b2701466dd2 -->
<g id="node20" class="node">
<title>9beeb2e5&#45;cefe&#45;4878&#45;b1b8&#45;2b2701466dd2</title>
<polygon fill="none" stroke="black" points="72,-199.2 0,-199.2 0,-163.2 72,-163.2 72,-199.2"/>
<text xml:space="preserve" text-anchor="middle" x="36" y="-177.32" font-family="Times,serif" font-size="10.00">Activity AA</text>
</g>
<!-- 9beeb2e5&#45;cefe&#45;4878&#45;b1b8&#45;2b2701466dd2&#45;&gt;p_3 -->
<g id="edge6" class="edge">
<title>9beeb2e5&#45;cefe&#45;4878&#45;b1b8&#45;2b2701466dd2&#45;&gt;p_3</title>
<path fill="none" stroke="black" d="M72.41,-181.2C81.2,-181.2 90.82,-181.2 100.28,-181.2"/>
<polygon fill="black" stroke="black" points="100.15,-184.7 110.15,-181.2 100.15,-177.7 100.15,-184.7"/>
<text xml:space="preserve" text-anchor="middle" x="91.88" y="-183.35" font-family="Times,serif" font-size="8.00">n</text>
</g>
<!-- fc7cdae4&#45;443d&#45;4a2a&#45;9df0&#45;34889897db46&#45;&gt;p_4 -->
<g id="edge20" class="edge">
<title>fc7cdae4&#45;443d&#45;4a2a&#45;9df0&#45;34889897db46&#45;&gt;p_4</title>
<path fill="none" stroke="black" d="M310.31,-181.2C319.1,-181.2 328.72,-181.2 338.18,-181.2"/>
<polygon fill="black" stroke="black" points="338.05,-184.7 348.05,-181.2 338.05,-177.7 338.05,-184.7"/>
<text xml:space="preserve" text-anchor="middle" x="329.77" y="-183.35" font-family="Times,serif" font-size="8.00">n</text>
</g>
<!-- d9ac5f98&#45;cab6&#45;4785&#45;9062&#45;74d396647634&#45;&gt;p_13 -->
<g id="edge3" class="edge">
<title>d9ac5f98&#45;cab6&#45;4785&#45;9062&#45;74d396647634&#45;&gt;p_13</title>
<path fill="none" stroke="black" d="M522.97,-199.45C536.73,-223.73 562.44,-267.71 587.55,-303.2 589.94,-306.58 592.48,-310.02 595.09,-313.45"/>
<polygon fill="black" stroke="black" points="592.23,-315.48 601.14,-321.23 597.76,-311.18 592.23,-315.48"/>
<text xml:space="preserve" text-anchor="middle" x="567.67" y="-276.07" font-family="Times,serif" font-size="8.00">n</text>
</g>
<!-- d9ac5f98&#45;cab6&#45;4785&#45;9062&#45;74d396647634&#45;&gt;p_7 -->
<g id="edge9" class="edge">
<title>d9ac5f98&#45;cab6&#45;4785&#45;9062&#45;74d396647634&#45;&gt;p_7</title>
<path fill="none" stroke="black" d="M543.53,-199.59C555.83,-206.96 570.28,-215.6 583.79,-223.69"/>
<polygon fill="black" stroke="black" points="581.74,-226.54 592.11,-228.67 585.33,-220.53 581.74,-226.54"/>
<text xml:space="preserve" text-anchor="middle" x="567.67" y="-216.25" font-family="Times,serif" font-size="8.00">n</text>
</g>
<!-- d9ac5f98&#45;cab6&#45;4785&#45;9062&#45;74d396647634&#45;&gt;p_9 -->
<g id="edge7" class="edge">
<title>d9ac5f98&#45;cab6&#45;4785&#45;9062&#45;74d396647634&#45;&gt;p_9</title>
<path fill="none" stroke="black" d="M548.21,-170.91C557.59,-168.18 567.91,-165.18 577.97,-162.25"/>
<polygon fill="black" stroke="black" points="578.64,-165.7 587.26,-159.55 576.68,-158.98 578.64,-165.7"/>
<text xml:space="preserve" text-anchor="middle" x="567.67" y="-167.37" font-family="Times,serif" font-size="8.00">n</text>
</g>
<!-- d9ac5f98&#45;cab6&#45;4785&#45;9062&#45;74d396647634&#45;&gt;p_11 -->
<g id="edge13" class="edge">
<title>d9ac5f98&#45;cab6&#45;4785&#45;9062&#45;74d396647634&#45;&gt;p_11</title>
<path fill="none" stroke="black" d="M528.33,-162.87C545.19,-142.98 572.66,-110.56 594.76,-84.48"/>
<polygon fill="black" stroke="black" points="597.26,-86.95 601.05,-77.06 591.92,-82.43 597.26,-86.95"/>
<text xml:space="preserve" text-anchor="middle" x="567.67" y="-118.49" font-family="Times,serif" font-size="8.00">n</text>
</g>
<!-- 955952ee&#45;1184&#45;4753&#45;b105&#45;253c0705f0e5&#45;&gt;p_8 -->
<g id="edge11" class="edge">
<title>955952ee&#45;1184&#45;4753&#45;b105&#45;253c0705f0e5&#45;&gt;p_8</title>
<path fill="none" stroke="black" d="M786.11,-251.2C794.9,-251.2 804.52,-251.2 813.98,-251.2"/>
<polygon fill="black" stroke="black" points="813.85,-254.7 823.85,-251.2 813.85,-247.7 813.85,-254.7"/>
<text xml:space="preserve" text-anchor="middle" x="805.58" y="-253.35" font-family="Times,serif" font-size="8.00">n</text>
</g>
<!-- f407415f&#45;9505&#45;4e44&#45;80fe&#45;72790089e359&#45;&gt;p_10 -->
<g id="edge22" class="edge">
<title>f407415f&#45;9505&#45;4e44&#45;80fe&#45;72790089e359&#45;&gt;p_10</title>
<path fill="none" stroke="black" d="M786.11,-147.2C794.9,-147.2 804.52,-147.2 813.98,-147.2"/>
<polygon fill="black" stroke="black" points="813.85,-150.7 823.85,-147.2 813.85,-143.7 813.85,-150.7"/>
<text xml:space="preserve" text-anchor="middle" x="805.58" y="-149.35" font-family="Times,serif" font-size="8.00">n</text>
</g>
<!-- f683090b&#45;e31b&#45;4c86&#45;90e1&#45;ad66e1c7f64e&#45;&gt;p_12 -->
<g id="edge25" class="edge">
<title>f683090b&#45;e31b&#45;4c86&#45;90e1&#45;ad66e1c7f64e&#45;&gt;p_12</title>
<path fill="none" stroke="black" d="M786.11,-43.2C794.9,-43.2 804.52,-43.2 813.98,-43.2"/>
<polygon fill="black" stroke="black" points="813.85,-46.7 823.85,-43.2 813.85,-39.7 813.85,-46.7"/>
<text xml:space="preserve" text-anchor="middle" x="805.58" y="-45.35" font-family="Times,serif" font-size="8.00">n</text>
</g>
<!-- adaf9002&#45;6ecf&#45;4d2e&#45;9593&#45;b8d75ee07d5a&#45;&gt;p_14 -->
<g id="edge34" class="edge">
<title>adaf9002&#45;6ecf&#45;4d2e&#45;9593&#45;b8d75ee07d5a&#45;&gt;p_14</title>
<path fill="none" stroke="black" d="M786.11,-355.2C794.9,-355.2 804.52,-355.2 813.98,-355.2"/>
<polygon fill="black" stroke="black" points="813.85,-358.7 823.85,-355.2 813.85,-351.7 813.85,-358.7"/>
<text xml:space="preserve" text-anchor="middle" x="805.58" y="-357.35" font-family="Times,serif" font-size="8.00">n</text>
</g>
<!-- 5c6c7f99&#45;abf8&#45;4831&#45;a840&#45;2991bd6940e3&#45;&gt;p_15 -->
<g id="edge17" class="edge">
<title>5c6c7f99&#45;abf8&#45;4831&#45;a840&#45;2991bd6940e3&#45;&gt;p_15</title>
<path fill="none" stroke="black" d="M1024.01,-181.2C1032.8,-181.2 1042.42,-181.2 1051.88,-181.2"/>
<polygon fill="black" stroke="black" points="1051.75,-184.7 1061.75,-181.2 1051.75,-177.7 1051.75,-184.7"/>
<text xml:space="preserve" text-anchor="middle" x="1043.48" y="-183.35" font-family="Times,serif" font-size="8.00">n</text>
</g>
<!-- c11df1ca&#45;6a30&#45;4be1&#45;ace1&#45;c5f08bed6931&#45;&gt;p_19 -->
<g id="edge24" class="edge">
<title>c11df1ca&#45;6a30&#45;4be1&#45;ace1&#45;c5f08bed6931&#45;&gt;p_19</title>
<path fill="none" stroke="black" d="M1975.61,-181.2C1984.4,-181.2 1994.02,-181.2 2003.48,-181.2"/>
<polygon fill="black" stroke="black" points="2003.35,-184.7 2013.35,-181.2 2003.35,-177.7 2003.35,-184.7"/>
<text xml:space="preserve" text-anchor="middle" x="1995.08" y="-183.35" font-family="Times,serif" font-size="8.00">n</text>
</g>
<!-- 0c961ee9&#45;575a&#45;4418&#45;a58e&#45;d907d823fe1f&#45;&gt;p_16 -->
<g id="edge15" class="edge">
<title>0c961ee9&#45;575a&#45;4418&#45;a58e&#45;d907d823fe1f&#45;&gt;p_16</title>
<path fill="none" stroke="black" d="M1261.91,-181.2C1270.7,-181.2 1280.32,-181.2 1289.78,-181.2"/>
<polygon fill="black" stroke="black" points="1289.65,-184.7 1299.65,-181.2 1289.65,-177.7 1289.65,-184.7"/>
<text xml:space="preserve" text-anchor="middle" x="1281.38" y="-183.35" font-family="Times,serif" font-size="8.00">n</text>
</g>
<!-- 774a0fad&#45;13e6&#45;44e6&#45;9e95&#45;bbfaa86b04c2&#45;&gt;p_19 -->
<g id="edge27" class="edge">
<title>774a0fad&#45;13e6&#45;44e6&#45;9e95&#45;bbfaa86b04c2&#45;&gt;p_19</title>
<path fill="none" stroke="black" d="M1975.61,-143.55C1985.9,-148.3 1997.32,-153.58 2008.29,-158.64"/>
<polygon fill="black" stroke="black" points="2006.68,-161.75 2017.23,-162.77 2009.62,-155.4 2006.68,-161.75"/>
<text xml:space="preserve" text-anchor="middle" x="1995.08" y="-154.73" font-family="Times,serif" font-size="8.00">n</text>
</g>
</g>
</svg>
