<?xml version="1.0" encoding="UTF-8" standalone="no"?>
<!DOCTYPE svg PUBLIC "-//W3C//DTD SVG 1.1//EN"
 "http://www.w3.org/Graphics/SVG/1.1/DTD/svg11.dtd">
<!-- Generated by graphviz version 13.1.0 (20250701.0955)
 -->
<!-- Pages: 1 -->
<svg width="671pt" height="121pt"
 viewBox="0.00 0.00 671.00 121.00" xmlns="http://www.w3.org/2000/svg" xmlns:xlink="http://www.w3.org/1999/xlink">
<g id="graph0" class="graph" transform="scale(1 1) rotate(0) translate(4 117.15)">
<polygon fill="white" stroke="none" points="-4,4 -4,-117.15 666.55,-117.15 666.55,4 -4,4"/>
<text xml:space="preserve" text-anchor="middle" x="331.27" y="-93.95" font-family="Times,serif" font-size="16.00">Petri Net for Bank &#45; real4_collectivelog</text>
<!-- p_3 -->
<g id="node1" class="node">
<title>p_3</title>
<ellipse fill="none" stroke="black" cx="200.2" cy="-43.2" rx="43.2" ry="43.2"/>
<text xml:space="preserve" text-anchor="middle" x="200.2" y="-44.95" font-family="Times,serif" font-size="10.00">p_3</text>
<text xml:space="preserve" text-anchor="middle" x="200.2" y="-33.7" font-family="Times,serif" font-size="10.00">Bank</text>
</g>
<!-- cc104805&#45;de37&#45;418f&#45;8fd1&#45;aa0e93694acf -->
<g id="node5" class="node">
<title>cc104805&#45;de37&#45;418f&#45;8fd1&#45;aa0e93694acf</title>
<polygon fill="none" stroke="black" points="416.15,-61.2 282.4,-61.2 282.4,-25.2 416.15,-25.2 416.15,-61.2"/>
<text xml:space="preserve" text-anchor="middle" x="349.27" y="-39.32" font-family="Times,serif" font-size="10.00">Process payment information</text>
</g>
<!-- p_3&#45;&gt;cc104805&#45;de37&#45;418f&#45;8fd1&#45;aa0e93694acf -->
<g id="edge3" class="edge">
<title>p_3&#45;&gt;cc104805&#45;de37&#45;418f&#45;8fd1&#45;aa0e93694acf</title>
<path fill="none" stroke="black" d="M243.74,-43.2C252.24,-43.2 261.43,-43.2 270.69,-43.2"/>
<polygon fill="black" stroke="black" points="270.49,-46.7 280.49,-43.2 270.49,-39.7 270.49,-46.7"/>
<text xml:space="preserve" text-anchor="middle" x="262.9" y="-45.35" font-family="Times,serif" font-size="8.00">f</text>
</g>
<!-- p_4 -->
<g id="node2" class="node">
<title>p_4</title>
<ellipse fill="none" stroke="black" cx="498.35" cy="-43.2" rx="43.2" ry="43.2"/>
<text xml:space="preserve" text-anchor="middle" x="498.35" y="-44.95" font-family="Times,serif" font-size="10.00">p_4</text>
<text xml:space="preserve" text-anchor="middle" x="498.35" y="-33.7" font-family="Times,serif" font-size="10.00">Bank</text>
</g>
<!-- ed358f2a&#45;6aec&#45;4727&#45;bb7b&#45;9521b8d496c6 -->
<g id="node4" class="node">
<title>ed358f2a&#45;6aec&#45;4727&#45;bb7b&#45;9521b8d496c6</title>
<polygon fill="none" stroke="black" points="662.55,-61.2 580.55,-61.2 580.55,-25.2 662.55,-25.2 662.55,-61.2"/>
<text xml:space="preserve" text-anchor="middle" x="621.55" y="-39.32" font-family="Times,serif" font-size="10.00">Change account</text>
</g>
<!-- p_4&#45;&gt;ed358f2a&#45;6aec&#45;4727&#45;bb7b&#45;9521b8d496c6 -->
<g id="edge1" class="edge">
<title>p_4&#45;&gt;ed358f2a&#45;6aec&#45;4727&#45;bb7b&#45;9521b8d496c6</title>
<path fill="none" stroke="black" d="M541.74,-43.2C550.57,-43.2 559.97,-43.2 569.09,-43.2"/>
<polygon fill="black" stroke="black" points="568.91,-46.7 578.91,-43.2 568.91,-39.7 568.91,-46.7"/>
<text xml:space="preserve" text-anchor="middle" x="561.05" y="-45.35" font-family="Times,serif" font-size="8.00">f</text>
</g>
<!-- c2aa44c0&#45;30f7&#45;4a45&#45;b500&#45;f4aa69694b04 -->
<g id="node3" class="node">
<title>c2aa44c0&#45;30f7&#45;4a45&#45;b500&#45;f4aa69694b04</title>
<polygon fill="none" stroke="black" points="118,-61.2 0,-61.2 0,-25.2 118,-25.2 118,-61.2"/>
<text xml:space="preserve" text-anchor="middle" x="59" y="-39.32" font-family="Times,serif" font-size="10.00">Receive payment request</text>
</g>
<!-- c2aa44c0&#45;30f7&#45;4a45&#45;b500&#45;f4aa69694b04&#45;&gt;p_3 -->
<g id="edge2" class="edge">
<title>c2aa44c0&#45;30f7&#45;4a45&#45;b500&#45;f4aa69694b04&#45;&gt;p_3</title>
<path fill="none" stroke="black" d="M118.23,-43.2C127.24,-43.2 136.52,-43.2 145.42,-43.2"/>
<polygon fill="black" stroke="black" points="145.36,-46.7 155.36,-43.2 145.36,-39.7 145.36,-46.7"/>
<text xml:space="preserve" text-anchor="middle" x="137.5" y="-45.35" font-family="Times,serif" font-size="8.00">f</text>
</g>
<!-- cc104805&#45;de37&#45;418f&#45;8fd1&#45;aa0e93694acf&#45;&gt;p_4 -->
<g id="edge4" class="edge">
<title>cc104805&#45;de37&#45;418f&#45;8fd1&#45;aa0e93694acf&#45;&gt;p_4</title>
<path fill="none" stroke="black" d="M416.5,-43.2C425.51,-43.2 434.67,-43.2 443.43,-43.2"/>
<polygon fill="black" stroke="black" points="443.16,-46.7 453.16,-43.2 443.16,-39.7 443.16,-46.7"/>
<text xml:space="preserve" text-anchor="middle" x="435.65" y="-45.35" font-family="Times,serif" font-size="8.00">f</text>
</g>
</g>
</svg>
