<?xml version="1.0" encoding="UTF-8" standalone="no"?>
<!DOCTYPE svg PUBLIC "-//W3C//DTD SVG 1.1//EN"
 "http://www.w3.org/Graphics/SVG/1.1/DTD/svg11.dtd">
<!-- Generated by graphviz version 13.1.0 (20250701.0955)
 -->
<!-- Pages: 1 -->
<svg width="1234pt" height="188pt"
 viewBox="0.00 0.00 1234.00 188.00" xmlns="http://www.w3.org/2000/svg" xmlns:xlink="http://www.w3.org/1999/xlink">
<g id="graph0" class="graph" transform="scale(1 1) rotate(0) translate(4 183.95)">
<polygon fill="white" stroke="none" points="-4,4 -4,-183.95 1230.1,-183.95 1230.1,4 -4,4"/>
<text xml:space="preserve" text-anchor="middle" x="613.05" y="-160.75" font-family="Times,serif" font-size="16.00">Petri Net for User &#45; real3_collectivelog</text>
<!-- p_4 -->
<g id="node1" class="node">
<title>p_4</title>
<ellipse fill="none" stroke="black" cx="1034.9" cy="-110" rx="43.2" ry="43.2"/>
<text xml:space="preserve" text-anchor="middle" x="1034.9" y="-111.75" font-family="Times,serif" font-size="10.00">p_4</text>
<text xml:space="preserve" text-anchor="middle" x="1034.9" y="-100.5" font-family="Times,serif" font-size="10.00">User</text>
</g>
<!-- 54ddaf9f&#45;7511&#45;43c2&#45;aac3&#45;15b9678555d2 -->
<g id="node11" class="node">
<title>54ddaf9f&#45;7511&#45;43c2&#45;aac3&#45;15b9678555d2</title>
<polygon fill="none" stroke="black" points="1226.1,-128 1117.85,-128 1117.85,-92 1226.1,-92 1226.1,-128"/>
<text xml:space="preserve" text-anchor="middle" x="1171.98" y="-106.12" font-family="Times,serif" font-size="10.00">Switch Off Thermostat</text>
</g>
<!-- p_4&#45;&gt;54ddaf9f&#45;7511&#45;43c2&#45;aac3&#45;15b9678555d2 -->
<g id="edge2" class="edge">
<title>p_4&#45;&gt;54ddaf9f&#45;7511&#45;43c2&#45;aac3&#45;15b9678555d2</title>
<path fill="none" stroke="black" d="M1078.27,-110C1087.28,-110 1096.98,-110 1106.6,-110"/>
<polygon fill="black" stroke="black" points="1106.3,-113.5 1116.3,-110 1106.3,-106.5 1106.3,-113.5"/>
<text xml:space="preserve" text-anchor="middle" x="1097.98" y="-112.15" font-family="Times,serif" font-size="8.00">o</text>
</g>
<!-- p_3 -->
<g id="node2" class="node">
<title>p_3</title>
<ellipse fill="none" stroke="black" cx="174.7" cy="-105" rx="43.2" ry="43.2"/>
<text xml:space="preserve" text-anchor="middle" x="174.7" y="-106.75" font-family="Times,serif" font-size="10.00">p_3</text>
<text xml:space="preserve" text-anchor="middle" x="174.7" y="-95.5" font-family="Times,serif" font-size="10.00">User</text>
</g>
<!-- skip_1 -->
<g id="node6" class="node">
<title>skip_1</title>
<polygon fill="none" stroke="black" points="419.65,-150 347.65,-150 347.65,-114 419.65,-114 419.65,-150"/>
<text xml:space="preserve" text-anchor="middle" x="383.65" y="-128.12" font-family="Times,serif" font-size="10.00">skip_1</text>
</g>
<!-- p_3&#45;&gt;skip_1 -->
<g id="edge5" class="edge">
<title>p_3&#45;&gt;skip_1</title>
<path fill="none" stroke="black" d="M217.83,-110.5C252.27,-114.99 300.91,-121.34 336.42,-125.97"/>
<polygon fill="black" stroke="black" points="335.59,-129.39 345.96,-127.21 336.49,-122.45 335.59,-129.39"/>
<text xml:space="preserve" text-anchor="middle" x="237.78" y="-115.02" font-family="Times,serif" font-size="8.00">o</text>
</g>
<!-- init_loop_2 -->
<g id="node8" class="node">
<title>init_loop_2</title>
<polygon fill="none" stroke="black" points="329.65,-99 257.65,-99 257.65,-63 329.65,-63 329.65,-99"/>
<text xml:space="preserve" text-anchor="middle" x="293.65" y="-77.12" font-family="Times,serif" font-size="10.00">init_loop_2</text>
</g>
<!-- p_3&#45;&gt;init_loop_2 -->
<g id="edge3" class="edge">
<title>p_3&#45;&gt;init_loop_2</title>
<path fill="none" stroke="black" d="M217.26,-96.47C226.7,-94.53 236.78,-92.47 246.4,-90.49"/>
<polygon fill="black" stroke="black" points="246.84,-93.97 255.93,-88.54 245.43,-87.12 246.84,-93.97"/>
<text xml:space="preserve" text-anchor="middle" x="237.78" y="-94.43" font-family="Times,serif" font-size="8.00">o</text>
</g>
<!-- p_5 -->
<g id="node3" class="node">
<title>p_5</title>
<ellipse fill="none" stroke="black" cx="480.85" cy="-63" rx="43.2" ry="43.2"/>
<text xml:space="preserve" text-anchor="middle" x="480.85" y="-64.75" font-family="Times,serif" font-size="10.00">p_5</text>
<text xml:space="preserve" text-anchor="middle" x="480.85" y="-53.5" font-family="Times,serif" font-size="10.00">User</text>
</g>
<!-- 8189a325&#45;7772&#45;4922&#45;b0be&#45;910e581af48c -->
<g id="node7" class="node">
<title>8189a325&#45;7772&#45;4922&#45;b0be&#45;910e581af48c</title>
<polygon fill="none" stroke="black" points="714.05,-81 563.8,-81 563.8,-45 714.05,-45 714.05,-81"/>
<text xml:space="preserve" text-anchor="middle" x="638.93" y="-59.12" font-family="Times,serif" font-size="10.00">Check Environment Temperature</text>
</g>
<!-- p_5&#45;&gt;8189a325&#45;7772&#45;4922&#45;b0be&#45;910e581af48c -->
<g id="edge8" class="edge">
<title>p_5&#45;&gt;8189a325&#45;7772&#45;4922&#45;b0be&#45;910e581af48c</title>
<path fill="none" stroke="black" d="M524.5,-63C533.19,-63 542.63,-63 552.22,-63"/>
<polygon fill="black" stroke="black" points="552,-66.5 562,-63 552,-59.5 552,-66.5"/>
<text xml:space="preserve" text-anchor="middle" x="543.93" y="-65.15" font-family="Times,serif" font-size="8.00">o</text>
</g>
<!-- p_6 -->
<g id="node4" class="node">
<title>p_6</title>
<ellipse fill="none" stroke="black" cx="797" cy="-63" rx="43.2" ry="43.2"/>
<text xml:space="preserve" text-anchor="middle" x="797" y="-64.75" font-family="Times,serif" font-size="10.00">p_6</text>
<text xml:space="preserve" text-anchor="middle" x="797" y="-53.5" font-family="Times,serif" font-size="10.00">User</text>
</g>
<!-- skip_4 -->
<g id="node9" class="node">
<title>skip_4</title>
<polygon fill="none" stroke="black" points="951.95,-36 879.95,-36 879.95,0 951.95,0 951.95,-36"/>
<text xml:space="preserve" text-anchor="middle" x="915.95" y="-14.12" font-family="Times,serif" font-size="10.00">skip_4</text>
</g>
<!-- p_6&#45;&gt;skip_4 -->
<g id="edge10" class="edge">
<title>p_6&#45;&gt;skip_4</title>
<path fill="none" stroke="black" d="M837.59,-47.77C847.73,-43.87 858.7,-39.64 869.12,-35.63"/>
<polygon fill="black" stroke="black" points="870.22,-38.96 878.3,-32.1 867.71,-32.43 870.22,-38.96"/>
<text xml:space="preserve" text-anchor="middle" x="860.08" y="-41.3" font-family="Times,serif" font-size="8.00">o</text>
</g>
<!-- skip_5 -->
<g id="node10" class="node">
<title>skip_5</title>
<polygon fill="none" stroke="black" points="951.95,-98 879.95,-98 879.95,-62 951.95,-62 951.95,-98"/>
<text xml:space="preserve" text-anchor="middle" x="915.95" y="-76.12" font-family="Times,serif" font-size="10.00">skip_5</text>
</g>
<!-- p_6&#45;&gt;skip_5 -->
<g id="edge12" class="edge">
<title>p_6&#45;&gt;skip_5</title>
<path fill="none" stroke="black" d="M840.22,-69.14C849.43,-70.48 859.23,-71.9 868.59,-73.26"/>
<polygon fill="black" stroke="black" points="867.83,-76.69 878.22,-74.66 868.83,-69.76 867.83,-76.69"/>
<text xml:space="preserve" text-anchor="middle" x="860.08" y="-74.16" font-family="Times,serif" font-size="8.00">o</text>
</g>
<!-- d1e36fed&#45;9f3f&#45;4f9e&#45;a290&#45;1df2e2355dbd -->
<g id="node5" class="node">
<title>d1e36fed&#45;9f3f&#45;4f9e&#45;a290&#45;1df2e2355dbd</title>
<polygon fill="none" stroke="black" points="91.75,-123 0,-123 0,-87 91.75,-87 91.75,-123"/>
<text xml:space="preserve" text-anchor="middle" x="45.88" y="-101.12" font-family="Times,serif" font-size="10.00">Set Up Thermostat</text>
</g>
<!-- d1e36fed&#45;9f3f&#45;4f9e&#45;a290&#45;1df2e2355dbd&#45;&gt;p_3 -->
<g id="edge6" class="edge">
<title>d1e36fed&#45;9f3f&#45;4f9e&#45;a290&#45;1df2e2355dbd&#45;&gt;p_3</title>
<path fill="none" stroke="black" d="M91.95,-105C101.06,-105 110.72,-105 120.09,-105"/>
<polygon fill="black" stroke="black" points="119.81,-108.5 129.81,-105 119.81,-101.5 119.81,-108.5"/>
<text xml:space="preserve" text-anchor="middle" x="111.62" y="-107.15" font-family="Times,serif" font-size="8.00">o</text>
</g>
<!-- skip_1&#45;&gt;p_4 -->
<g id="edge4" class="edge">
<title>skip_1&#45;&gt;p_4</title>
<path fill="none" stroke="black" d="M419.85,-132.7C451.93,-133.28 500.61,-134 542.93,-134 542.93,-134 542.93,-134 916.95,-134 938.54,-134 961.91,-130.03 982.05,-125.32"/>
<polygon fill="black" stroke="black" points="982.85,-128.72 991.72,-122.93 981.17,-121.93 982.85,-128.72"/>
<text xml:space="preserve" text-anchor="middle" x="733.93" y="-136.15" font-family="Times,serif" font-size="8.00">o</text>
</g>
<!-- 8189a325&#45;7772&#45;4922&#45;b0be&#45;910e581af48c&#45;&gt;p_6 -->
<g id="edge9" class="edge">
<title>8189a325&#45;7772&#45;4922&#45;b0be&#45;910e581af48c&#45;&gt;p_6</title>
<path fill="none" stroke="black" d="M714.31,-63C723.7,-63 733.16,-63 742.14,-63"/>
<polygon fill="black" stroke="black" points="742.12,-66.5 752.12,-63 742.12,-59.5 742.12,-66.5"/>
<text xml:space="preserve" text-anchor="middle" x="733.93" y="-65.15" font-family="Times,serif" font-size="8.00">o</text>
</g>
<!-- init_loop_2&#45;&gt;p_5 -->
<g id="edge7" class="edge">
<title>init_loop_2&#45;&gt;p_5</title>
<path fill="none" stroke="black" d="M329.92,-77.57C357.21,-74.92 395.46,-71.2 426.5,-68.19"/>
<polygon fill="black" stroke="black" points="426.45,-71.71 436.06,-67.26 425.77,-64.74 426.45,-71.71"/>
<text xml:space="preserve" text-anchor="middle" x="383.65" y="-77.83" font-family="Times,serif" font-size="8.00">o</text>
</g>
<!-- skip_4&#45;&gt;p_5 -->
<g id="edge11" class="edge">
<title>skip_4&#45;&gt;p_5</title>
<path fill="none" stroke="black" d="M879.63,-14.01C867.19,-12.79 853.09,-11.6 840.2,-11 716.99,-5.24 684.05,-8.54 563.8,-36 553.61,-38.33 542.89,-41.39 532.68,-44.62"/>
<polygon fill="black" stroke="black" points="531.71,-41.25 523.3,-47.68 533.89,-47.91 531.71,-41.25"/>
<text xml:space="preserve" text-anchor="middle" x="733.93" y="-11.17" font-family="Times,serif" font-size="8.00">o</text>
</g>
<!-- skip_5&#45;&gt;p_4 -->
<g id="edge1" class="edge">
<title>skip_5&#45;&gt;p_4</title>
<path fill="none" stroke="black" d="M952.36,-89.08C961.64,-91.46 971.84,-94.08 981.8,-96.63"/>
<polygon fill="black" stroke="black" points="980.84,-100 991.4,-99.1 982.58,-93.22 980.84,-100"/>
<text xml:space="preserve" text-anchor="middle" x="971.83" y="-96.25" font-family="Times,serif" font-size="8.00">o</text>
</g>
</g>
</svg>
