<?xml version="1.0" encoding="UTF-8" standalone="no"?>
<!DOCTYPE svg PUBLIC "-//W3C//DTD SVG 1.1//EN"
 "http://www.w3.org/Graphics/SVG/1.1/DTD/svg11.dtd">
<!-- Generated by graphviz version 13.1.0 (20250701.0955)
 -->
<!-- Pages: 1 -->
<svg width="1327pt" height="710pt"
 viewBox="0.00 0.00 1327.00 710.00" xmlns="http://www.w3.org/2000/svg" xmlns:xlink="http://www.w3.org/1999/xlink">
<g id="graph0" class="graph" transform="scale(1 1) rotate(0) translate(4 705.95)">
<polygon fill="white" stroke="none" points="-4,4 -4,-705.95 1323.25,-705.95 1323.25,4 -4,4"/>
<text xml:space="preserve" text-anchor="middle" x="659.63" y="-682.75" font-family="Times,serif" font-size="16.00">Composed Petri Net &#45; real2_collectivelog</text>
<!-- p_16_TravelAgency -->
<g id="node1" class="node">
<title>p_16_TravelAgency</title>
<ellipse fill="none" stroke="black" cx="154.95" cy="-279" rx="43.2" ry="43.2"/>
<text xml:space="preserve" text-anchor="middle" x="154.95" y="-280.75" font-family="Times,serif" font-size="10.00">p_16</text>
<text xml:space="preserve" text-anchor="middle" x="154.95" y="-269.5" font-family="Times,serif" font-size="10.00">TravelAgency</text>
</g>
<!-- f808798d&#45;dfb6&#45;49b6&#45;b9b6&#45;e2d4b707a74b_TravelAgency -->
<g id="node17" class="node">
<title>f808798d&#45;dfb6&#45;49b6&#45;b9b6&#45;e2d4b707a74b_TravelAgency</title>
<polygon fill="none" stroke="black" points="330.78,-297 239.03,-297 239.03,-261 330.78,-261 330.78,-297"/>
<text xml:space="preserve" text-anchor="middle" x="284.9" y="-275.12" font-family="Times,serif" font-size="10.00">Payment Received</text>
</g>
<!-- p_16_TravelAgency&#45;&gt;f808798d&#45;dfb6&#45;49b6&#45;b9b6&#45;e2d4b707a74b_TravelAgency -->
<g id="edge19" class="edge">
<title>p_16_TravelAgency&#45;&gt;f808798d&#45;dfb6&#45;49b6&#45;b9b6&#45;e2d4b707a74b_TravelAgency</title>
<path fill="none" stroke="black" d="M198.56,-279C207.86,-279 217.84,-279 227.58,-279"/>
<polygon fill="black" stroke="black" points="227.34,-282.5 237.34,-279 227.34,-275.5 227.34,-282.5"/>
<text xml:space="preserve" text-anchor="middle" x="218.03" y="-281.15" font-family="Times,serif" font-size="8.00">h</text>
</g>
<!-- p_13_TravelAgency -->
<g id="node2" class="node">
<title>p_13_TravelAgency</title>
<ellipse fill="none" stroke="black" cx="414.85" cy="-487" rx="43.2" ry="43.2"/>
<text xml:space="preserve" text-anchor="middle" x="414.85" y="-488.75" font-family="Times,serif" font-size="10.00">p_13</text>
<text xml:space="preserve" text-anchor="middle" x="414.85" y="-477.5" font-family="Times,serif" font-size="10.00">TravelAgency</text>
</g>
<!-- tauJoin_4_TravelAgency -->
<g id="node21" class="node">
<title>tauJoin_4_TravelAgency</title>
<polygon fill="black" stroke="black" points="569.8,-297 497.8,-297 497.8,-261 569.8,-261 569.8,-297"/>
<text xml:space="preserve" text-anchor="middle" x="533.8" y="-275.12" font-family="Times,serif" font-size="10.00">τ</text>
</g>
<!-- p_13_TravelAgency&#45;&gt;tauJoin_4_TravelAgency -->
<g id="edge2" class="edge">
<title>p_13_TravelAgency&#45;&gt;tauJoin_4_TravelAgency</title>
<path fill="none" stroke="black" d="M444.08,-454.58C449.01,-448.28 453.88,-441.58 458.05,-435 484.77,-392.78 508.34,-339.54 521.56,-307.44"/>
<polygon fill="black" stroke="black" points="524.7,-309.01 525.22,-298.43 518.21,-306.37 524.7,-309.01"/>
<text xml:space="preserve" text-anchor="middle" x="477.93" y="-404.45" font-family="Times,serif" font-size="8.00">h</text>
</g>
<!-- p_15_TravelAgency -->
<g id="node3" class="node">
<title>p_15_TravelAgency</title>
<ellipse fill="none" stroke="black" cx="414.85" cy="-383" rx="43.2" ry="43.2"/>
<text xml:space="preserve" text-anchor="middle" x="414.85" y="-384.75" font-family="Times,serif" font-size="10.00">p_15</text>
<text xml:space="preserve" text-anchor="middle" x="414.85" y="-373.5" font-family="Times,serif" font-size="10.00">TravelAgency</text>
</g>
<!-- p_15_TravelAgency&#45;&gt;tauJoin_4_TravelAgency -->
<g id="edge18" class="edge">
<title>p_15_TravelAgency&#45;&gt;tauJoin_4_TravelAgency</title>
<path fill="none" stroke="black" d="M447.81,-354.58C465.31,-339.01 486.85,-319.87 503.86,-304.74"/>
<polygon fill="black" stroke="black" points="506.02,-307.5 511.16,-298.24 501.37,-302.27 506.02,-307.5"/>
<text xml:space="preserve" text-anchor="middle" x="477.93" y="-330.03" font-family="Times,serif" font-size="8.00">h</text>
</g>
<!-- p_17_TravelAgency -->
<g id="node4" class="node">
<title>p_17_TravelAgency</title>
<ellipse fill="none" stroke="black" cx="414.85" cy="-279" rx="43.2" ry="43.2"/>
<text xml:space="preserve" text-anchor="middle" x="414.85" y="-280.75" font-family="Times,serif" font-size="10.00">p_17</text>
<text xml:space="preserve" text-anchor="middle" x="414.85" y="-269.5" font-family="Times,serif" font-size="10.00">TravelAgency</text>
</g>
<!-- p_17_TravelAgency&#45;&gt;tauJoin_4_TravelAgency -->
<g id="edge3" class="edge">
<title>p_17_TravelAgency&#45;&gt;tauJoin_4_TravelAgency</title>
<path fill="none" stroke="black" d="M458.4,-279C467.4,-279 476.95,-279 486.09,-279"/>
<polygon fill="black" stroke="black" points="485.88,-282.5 495.88,-279 485.88,-275.5 485.88,-282.5"/>
<text xml:space="preserve" text-anchor="middle" x="477.93" y="-281.15" font-family="Times,serif" font-size="8.00">h</text>
</g>
<!-- p_12_TravelAgency -->
<g id="node5" class="node">
<title>p_12_TravelAgency</title>
<ellipse fill="none" stroke="black" cx="154.95" cy="-487" rx="43.2" ry="43.2"/>
<text xml:space="preserve" text-anchor="middle" x="154.95" y="-488.75" font-family="Times,serif" font-size="10.00">p_12</text>
<text xml:space="preserve" text-anchor="middle" x="154.95" y="-477.5" font-family="Times,serif" font-size="10.00">TravelAgency</text>
</g>
<!-- e264d402&#45;40b1&#45;4f67&#45;9a74&#45;275d5cc0bdb1_TravelAgency -->
<g id="node24" class="node">
<title>e264d402&#45;40b1&#45;4f67&#45;9a74&#45;275d5cc0bdb1_TravelAgency</title>
<polygon fill="none" stroke="black" points="328.9,-505 240.9,-505 240.9,-469 328.9,-469 328.9,-505"/>
<text xml:space="preserve" text-anchor="middle" x="284.9" y="-483.12" font-family="Times,serif" font-size="10.00">Confirm Booking</text>
</g>
<!-- p_12_TravelAgency&#45;&gt;e264d402&#45;40b1&#45;4f67&#45;9a74&#45;275d5cc0bdb1_TravelAgency -->
<g id="edge16" class="edge">
<title>p_12_TravelAgency&#45;&gt;e264d402&#45;40b1&#45;4f67&#45;9a74&#45;275d5cc0bdb1_TravelAgency</title>
<path fill="none" stroke="black" d="M198.56,-487C208.38,-487 218.96,-487 229.22,-487"/>
<polygon fill="black" stroke="black" points="229.09,-490.5 239.09,-487 229.09,-483.5 229.09,-490.5"/>
<text xml:space="preserve" text-anchor="middle" x="218.03" y="-489.15" font-family="Times,serif" font-size="8.00">h</text>
</g>
<!-- p_5_TravelAgency -->
<g id="node6" class="node">
<title>p_5_TravelAgency</title>
<ellipse fill="none" stroke="black" cx="154.95" cy="-175" rx="43.2" ry="43.2"/>
<text xml:space="preserve" text-anchor="middle" x="154.95" y="-176.75" font-family="Times,serif" font-size="10.00">p_5</text>
<text xml:space="preserve" text-anchor="middle" x="154.95" y="-165.5" font-family="Times,serif" font-size="10.00">TravelAgency</text>
</g>
<!-- 04461778&#45;0c42&#45;4781&#45;8287&#45;5fa93d8d0553_TravelAgency -->
<g id="node20" class="node">
<title>04461778&#45;0c42&#45;4781&#45;8287&#45;5fa93d8d0553_TravelAgency</title>
<polygon fill="none" stroke="black" points="320.9,-193 248.9,-193 248.9,-157 320.9,-157 320.9,-193"/>
<text xml:space="preserve" text-anchor="middle" x="284.9" y="-171.12" font-family="Times,serif" font-size="10.00">Order Ticket</text>
</g>
<!-- p_5_TravelAgency&#45;&gt;04461778&#45;0c42&#45;4781&#45;8287&#45;5fa93d8d0553_TravelAgency -->
<g id="edge8" class="edge">
<title>p_5_TravelAgency&#45;&gt;04461778&#45;0c42&#45;4781&#45;8287&#45;5fa93d8d0553_TravelAgency</title>
<path fill="none" stroke="black" d="M198.56,-175C211.02,-175 224.71,-175 237.41,-175"/>
<polygon fill="black" stroke="black" points="237.21,-178.5 247.21,-175 237.21,-171.5 237.21,-178.5"/>
<text xml:space="preserve" text-anchor="middle" x="218.03" y="-177.15" font-family="Times,serif" font-size="8.00">h</text>
</g>
<!-- p_6_TravelAgency -->
<g id="node7" class="node">
<title>p_6_TravelAgency</title>
<ellipse fill="none" stroke="black" cx="414.85" cy="-175" rx="43.2" ry="43.2"/>
<text xml:space="preserve" text-anchor="middle" x="414.85" y="-176.75" font-family="Times,serif" font-size="10.00">p_6</text>
<text xml:space="preserve" text-anchor="middle" x="414.85" y="-165.5" font-family="Times,serif" font-size="10.00">TravelAgency</text>
</g>
<!-- p_6_TravelAgency&#45;&gt;tauJoin_4_TravelAgency -->
<g id="edge13" class="edge">
<title>p_6_TravelAgency&#45;&gt;tauJoin_4_TravelAgency</title>
<path fill="none" stroke="black" d="M447.81,-203.42C465.31,-218.99 486.85,-238.13 503.86,-253.26"/>
<polygon fill="black" stroke="black" points="501.37,-255.73 511.16,-259.76 506.02,-250.5 501.37,-255.73"/>
<text xml:space="preserve" text-anchor="middle" x="477.93" y="-232.27" font-family="Times,serif" font-size="8.00">h</text>
</g>
<!-- p_9_TravelAgency -->
<g id="node8" class="node">
<title>p_9_TravelAgency</title>
<ellipse fill="none" stroke="black" cx="154.95" cy="-71" rx="43.2" ry="43.2"/>
<text xml:space="preserve" text-anchor="middle" x="154.95" y="-72.75" font-family="Times,serif" font-size="10.00">p_9</text>
<text xml:space="preserve" text-anchor="middle" x="154.95" y="-61.5" font-family="Times,serif" font-size="10.00">TravelAgency</text>
</g>
<!-- 4a1f1d9d&#45;ad88&#45;4473&#45;abc0&#45;f6c87a9684bd_TravelAgency -->
<g id="node22" class="node">
<title>4a1f1d9d&#45;ad88&#45;4473&#45;abc0&#45;f6c87a9684bd_TravelAgency</title>
<polygon fill="none" stroke="black" points="330.4,-89 239.4,-89 239.4,-53 330.4,-53 330.4,-89"/>
<text xml:space="preserve" text-anchor="middle" x="284.9" y="-67.12" font-family="Times,serif" font-size="10.00">Make Travel Offer</text>
</g>
<!-- p_9_TravelAgency&#45;&gt;4a1f1d9d&#45;ad88&#45;4473&#45;abc0&#45;f6c87a9684bd_TravelAgency -->
<g id="edge4" class="edge">
<title>p_9_TravelAgency&#45;&gt;4a1f1d9d&#45;ad88&#45;4473&#45;abc0&#45;f6c87a9684bd_TravelAgency</title>
<path fill="none" stroke="black" d="M198.56,-71C207.96,-71 218.06,-71 227.91,-71"/>
<polygon fill="black" stroke="black" points="227.78,-74.5 237.78,-71 227.78,-67.5 227.78,-74.5"/>
<text xml:space="preserve" text-anchor="middle" x="218.03" y="-73.15" font-family="Times,serif" font-size="8.00">h</text>
</g>
<!-- p_10_TravelAgency -->
<g id="node9" class="node">
<title>p_10_TravelAgency</title>
<ellipse fill="none" stroke="black" cx="414.85" cy="-71" rx="43.2" ry="43.2"/>
<text xml:space="preserve" text-anchor="middle" x="414.85" y="-72.75" font-family="Times,serif" font-size="10.00">p_10</text>
<text xml:space="preserve" text-anchor="middle" x="414.85" y="-61.5" font-family="Times,serif" font-size="10.00">TravelAgency</text>
</g>
<!-- p_10_TravelAgency&#45;&gt;tauJoin_4_TravelAgency -->
<g id="edge7" class="edge">
<title>p_10_TravelAgency&#45;&gt;tauJoin_4_TravelAgency</title>
<path fill="none" stroke="black" d="M444.08,-103.42C449.01,-109.72 453.88,-116.42 458.05,-123 484.77,-165.22 508.34,-218.46 521.56,-250.56"/>
<polygon fill="black" stroke="black" points="518.21,-251.63 525.22,-259.57 524.7,-248.99 518.21,-251.63"/>
<text xml:space="preserve" text-anchor="middle" x="477.93" y="-162.08" font-family="Times,serif" font-size="8.00">h</text>
</g>
<!-- skip_7_TravelAgency -->
<g id="node23" class="node">
<title>skip_7_TravelAgency</title>
<polygon fill="none" stroke="black" points="569.8,-36 497.8,-36 497.8,0 569.8,0 569.8,-36"/>
<text xml:space="preserve" text-anchor="middle" x="533.8" y="-14.12" font-family="Times,serif" font-size="10.00">skip_7</text>
</g>
<!-- p_10_TravelAgency&#45;&gt;skip_7_TravelAgency -->
<g id="edge6" class="edge">
<title>p_10_TravelAgency&#45;&gt;skip_7_TravelAgency</title>
<path fill="none" stroke="black" d="M454.79,-53.35C465.16,-48.65 476.45,-43.54 487.14,-38.69"/>
<polygon fill="black" stroke="black" points="488.53,-41.91 496.19,-34.59 485.64,-35.53 488.53,-41.91"/>
<text xml:space="preserve" text-anchor="middle" x="477.93" y="-45.06" font-family="Times,serif" font-size="8.00">h</text>
</g>
<!-- p_14_TravelAgency -->
<g id="node10" class="node">
<title>p_14_TravelAgency</title>
<ellipse fill="none" stroke="black" cx="154.95" cy="-383" rx="43.2" ry="43.2"/>
<text xml:space="preserve" text-anchor="middle" x="154.95" y="-384.75" font-family="Times,serif" font-size="10.00">p_14</text>
<text xml:space="preserve" text-anchor="middle" x="154.95" y="-373.5" font-family="Times,serif" font-size="10.00">TravelAgency</text>
</g>
<!-- 14164235&#45;2c9b&#45;468c&#45;bd4a&#45;dfb6eb39973a_TravelAgency -->
<g id="node16" class="node">
<title>14164235&#45;2c9b&#45;468c&#45;bd4a&#45;dfb6eb39973a_TravelAgency</title>
<polygon fill="none" stroke="black" points="324.4,-401 245.4,-401 245.4,-365 324.4,-365 324.4,-401"/>
<text xml:space="preserve" text-anchor="middle" x="284.9" y="-379.12" font-family="Times,serif" font-size="10.00">Book Received</text>
</g>
<!-- p_14_TravelAgency&#45;&gt;14164235&#45;2c9b&#45;468c&#45;bd4a&#45;dfb6eb39973a_TravelAgency -->
<g id="edge21" class="edge">
<title>p_14_TravelAgency&#45;&gt;14164235&#45;2c9b&#45;468c&#45;bd4a&#45;dfb6eb39973a_TravelAgency</title>
<path fill="none" stroke="black" d="M198.56,-383C209.79,-383 222.01,-383 233.61,-383"/>
<polygon fill="black" stroke="black" points="233.42,-386.5 243.42,-383 233.42,-379.5 233.42,-386.5"/>
<text xml:space="preserve" text-anchor="middle" x="218.03" y="-385.15" font-family="Times,serif" font-size="8.00">h</text>
</g>
<!-- p_5_Customer -->
<g id="node11" class="node">
<title>p_5_Customer</title>
<ellipse fill="none" stroke="black" cx="154.95" cy="-597" rx="43.2" ry="43.2"/>
<text xml:space="preserve" text-anchor="middle" x="154.95" y="-598.75" font-family="Times,serif" font-size="10.00">p_5</text>
<text xml:space="preserve" text-anchor="middle" x="154.95" y="-587.5" font-family="Times,serif" font-size="10.00">Customer</text>
</g>
<!-- 17a4996a&#45;00d9&#45;41a5&#45;a66e&#45;919fee5d84bd_Customer -->
<g id="node26" class="node">
<title>17a4996a&#45;00d9&#45;41a5&#45;a66e&#45;919fee5d84bd_Customer</title>
<polygon fill="none" stroke="black" points="331.9,-637 237.9,-637 237.9,-601 331.9,-601 331.9,-637"/>
<text xml:space="preserve" text-anchor="middle" x="284.9" y="-615.12" font-family="Times,serif" font-size="10.00">Check Travel Offer</text>
</g>
<!-- p_5_Customer&#45;&gt;17a4996a&#45;00d9&#45;41a5&#45;a66e&#45;919fee5d84bd_Customer -->
<g id="edge31" class="edge">
<title>p_5_Customer&#45;&gt;17a4996a&#45;00d9&#45;41a5&#45;a66e&#45;919fee5d84bd_Customer</title>
<path fill="none" stroke="black" d="M197.85,-604.2C206.96,-605.77 216.76,-607.46 226.36,-609.11"/>
<polygon fill="black" stroke="black" points="225.55,-612.52 235.99,-610.76 226.73,-605.62 225.55,-612.52"/>
<text xml:space="preserve" text-anchor="middle" x="218.03" y="-609.82" font-family="Times,serif" font-size="8.00">o</text>
</g>
<!-- p_6_Customer -->
<g id="node12" class="node">
<title>p_6_Customer</title>
<ellipse fill="none" stroke="black" cx="414.85" cy="-632" rx="43.2" ry="43.2"/>
<text xml:space="preserve" text-anchor="middle" x="414.85" y="-633.75" font-family="Times,serif" font-size="10.00">p_6</text>
<text xml:space="preserve" text-anchor="middle" x="414.85" y="-622.5" font-family="Times,serif" font-size="10.00">Customer</text>
</g>
<!-- skip_4_Customer -->
<g id="node25" class="node">
<title>skip_4_Customer</title>
<polygon fill="none" stroke="black" points="569.8,-587 497.8,-587 497.8,-551 569.8,-551 569.8,-587"/>
<text xml:space="preserve" text-anchor="middle" x="533.8" y="-565.12" font-family="Times,serif" font-size="10.00">skip_4</text>
</g>
<!-- p_6_Customer&#45;&gt;skip_4_Customer -->
<g id="edge24" class="edge">
<title>p_6_Customer&#45;&gt;skip_4_Customer</title>
<path fill="none" stroke="black" d="M453.5,-611.72C464.76,-605.65 477.2,-598.95 488.83,-592.69"/>
<polygon fill="black" stroke="black" points="490.31,-595.87 497.45,-588.04 486.99,-589.7 490.31,-595.87"/>
<text xml:space="preserve" text-anchor="middle" x="477.93" y="-600.76" font-family="Times,serif" font-size="8.00">o</text>
</g>
<!-- 32a6d1be&#45;e87b&#45;4c41&#45;ba4c&#45;8bc742ac9394_Customer -->
<g id="node27" class="node">
<title>32a6d1be&#45;e87b&#45;4c41&#45;ba4c&#45;8bc742ac9394_Customer</title>
<polygon fill="none" stroke="black" points="569.8,-650 497.8,-650 497.8,-614 569.8,-614 569.8,-650"/>
<text xml:space="preserve" text-anchor="middle" x="533.8" y="-628.12" font-family="Times,serif" font-size="10.00">Book Travel</text>
</g>
<!-- p_6_Customer&#45;&gt;32a6d1be&#45;e87b&#45;4c41&#45;ba4c&#45;8bc742ac9394_Customer -->
<g id="edge25" class="edge">
<title>p_6_Customer&#45;&gt;32a6d1be&#45;e87b&#45;4c41&#45;ba4c&#45;8bc742ac9394_Customer</title>
<path fill="none" stroke="black" d="M458.4,-632C467.4,-632 476.95,-632 486.09,-632"/>
<polygon fill="black" stroke="black" points="485.88,-635.5 495.88,-632 485.88,-628.5 485.88,-635.5"/>
<text xml:space="preserve" text-anchor="middle" x="477.93" y="-634.15" font-family="Times,serif" font-size="8.00">o</text>
</g>
<!-- p_8_Customer -->
<g id="node13" class="node">
<title>p_8_Customer</title>
<ellipse fill="none" stroke="black" cx="652.75" cy="-632" rx="43.2" ry="43.2"/>
<text xml:space="preserve" text-anchor="middle" x="652.75" y="-633.75" font-family="Times,serif" font-size="10.00">p_8</text>
<text xml:space="preserve" text-anchor="middle" x="652.75" y="-622.5" font-family="Times,serif" font-size="10.00">Customer</text>
</g>
<!-- 257cf915&#45;ae58&#45;48e8&#45;b7f9&#45;eaf3373c852e_Customer -->
<g id="node28" class="node">
<title>257cf915&#45;ae58&#45;48e8&#45;b7f9&#45;eaf3373c852e_Customer</title>
<polygon fill="none" stroke="black" points="807.7,-650 735.7,-650 735.7,-614 807.7,-614 807.7,-650"/>
<text xml:space="preserve" text-anchor="middle" x="771.7" y="-628.12" font-family="Times,serif" font-size="10.00">Pay Travel</text>
</g>
<!-- p_8_Customer&#45;&gt;257cf915&#45;ae58&#45;48e8&#45;b7f9&#45;eaf3373c852e_Customer -->
<g id="edge27" class="edge">
<title>p_8_Customer&#45;&gt;257cf915&#45;ae58&#45;48e8&#45;b7f9&#45;eaf3373c852e_Customer</title>
<path fill="none" stroke="black" d="M696.3,-632C705.3,-632 714.85,-632 723.99,-632"/>
<polygon fill="black" stroke="black" points="723.78,-635.5 733.78,-632 723.78,-628.5 723.78,-635.5"/>
<text xml:space="preserve" text-anchor="middle" x="715.83" y="-634.15" font-family="Times,serif" font-size="8.00">o</text>
</g>
<!-- p_9_Customer -->
<g id="node14" class="node">
<title>p_9_Customer</title>
<ellipse fill="none" stroke="black" cx="890.65" cy="-632" rx="43.2" ry="43.2"/>
<text xml:space="preserve" text-anchor="middle" x="890.65" y="-633.75" font-family="Times,serif" font-size="10.00">p_9</text>
<text xml:space="preserve" text-anchor="middle" x="890.65" y="-622.5" font-family="Times,serif" font-size="10.00">Customer</text>
</g>
<!-- 5625c8ed&#45;bfb6&#45;4d01&#45;a914&#45;4457c163d6e7_Customer -->
<g id="node29" class="node">
<title>5625c8ed&#45;bfb6&#45;4d01&#45;a914&#45;4457c163d6e7_Customer</title>
<polygon fill="none" stroke="black" points="1055.6,-650 973.6,-650 973.6,-614 1055.6,-614 1055.6,-650"/>
<text xml:space="preserve" text-anchor="middle" x="1014.6" y="-628.12" font-family="Times,serif" font-size="10.00">Ticket Received</text>
</g>
<!-- p_9_Customer&#45;&gt;5625c8ed&#45;bfb6&#45;4d01&#45;a914&#45;4457c163d6e7_Customer -->
<g id="edge26" class="edge">
<title>p_9_Customer&#45;&gt;5625c8ed&#45;bfb6&#45;4d01&#45;a914&#45;4457c163d6e7_Customer</title>
<path fill="none" stroke="black" d="M934.3,-632C943.19,-632 952.65,-632 961.82,-632"/>
<polygon fill="black" stroke="black" points="961.71,-635.5 971.71,-632 961.71,-628.5 961.71,-635.5"/>
<text xml:space="preserve" text-anchor="middle" x="953.73" y="-634.15" font-family="Times,serif" font-size="8.00">o</text>
</g>
<!-- p_10_Customer -->
<g id="node15" class="node">
<title>p_10_Customer</title>
<ellipse fill="none" stroke="black" cx="1138.55" cy="-632" rx="43.2" ry="43.2"/>
<text xml:space="preserve" text-anchor="middle" x="1138.55" y="-633.75" font-family="Times,serif" font-size="10.00">p_10</text>
<text xml:space="preserve" text-anchor="middle" x="1138.55" y="-622.5" font-family="Times,serif" font-size="10.00">Customer</text>
</g>
<!-- ecf28948&#45;4add&#45;4883&#45;980c&#45;f3b166fee938_Customer -->
<g id="node30" class="node">
<title>ecf28948&#45;4add&#45;4883&#45;980c&#45;f3b166fee938_Customer</title>
<polygon fill="none" stroke="black" points="1319.25,-650 1221.5,-650 1221.5,-614 1319.25,-614 1319.25,-650"/>
<text xml:space="preserve" text-anchor="middle" x="1270.38" y="-628.12" font-family="Times,serif" font-size="10.00">Booking Confirmed</text>
</g>
<!-- p_10_Customer&#45;&gt;ecf28948&#45;4add&#45;4883&#45;980c&#45;f3b166fee938_Customer -->
<g id="edge28" class="edge">
<title>p_10_Customer&#45;&gt;ecf28948&#45;4add&#45;4883&#45;980c&#45;f3b166fee938_Customer</title>
<path fill="none" stroke="black" d="M1182.06,-632C1191,-632 1200.58,-632 1210.01,-632"/>
<polygon fill="black" stroke="black" points="1209.86,-635.5 1219.86,-632 1209.86,-628.5 1209.86,-635.5"/>
<text xml:space="preserve" text-anchor="middle" x="1201.63" y="-634.15" font-family="Times,serif" font-size="8.00">o</text>
</g>
<!-- 14164235&#45;2c9b&#45;468c&#45;bd4a&#45;dfb6eb39973a_TravelAgency&#45;&gt;p_15_TravelAgency -->
<g id="edge22" class="edge">
<title>14164235&#45;2c9b&#45;468c&#45;bd4a&#45;dfb6eb39973a_TravelAgency&#45;&gt;p_15_TravelAgency</title>
<path fill="none" stroke="black" d="M324.64,-383C335.78,-383 348.15,-383 360.04,-383"/>
<polygon fill="black" stroke="black" points="359.71,-386.5 369.71,-383 359.71,-379.5 359.71,-386.5"/>
<text xml:space="preserve" text-anchor="middle" x="351.78" y="-385.15" font-family="Times,serif" font-size="8.00">h</text>
</g>
<!-- f808798d&#45;dfb6&#45;49b6&#45;b9b6&#45;e2d4b707a74b_TravelAgency&#45;&gt;p_17_TravelAgency -->
<g id="edge20" class="edge">
<title>f808798d&#45;dfb6&#45;49b6&#45;b9b6&#45;e2d4b707a74b_TravelAgency&#45;&gt;p_17_TravelAgency</title>
<path fill="none" stroke="black" d="M331.01,-279C340.32,-279 350.21,-279 359.8,-279"/>
<polygon fill="black" stroke="black" points="359.78,-282.5 369.78,-279 359.78,-275.5 359.78,-282.5"/>
<text xml:space="preserve" text-anchor="middle" x="351.78" y="-281.15" font-family="Times,serif" font-size="8.00">h</text>
</g>
<!-- tau_1_TravelAgency -->
<g id="node18" class="node">
<title>tau_1_TravelAgency</title>
<polygon fill="black" stroke="black" points="72,-297 0,-297 0,-261 72,-261 72,-297"/>
<text xml:space="preserve" text-anchor="middle" x="36" y="-275.12" font-family="Times,serif" font-size="10.00">τ</text>
</g>
<!-- tau_1_TravelAgency&#45;&gt;p_16_TravelAgency -->
<g id="edge11" class="edge">
<title>tau_1_TravelAgency&#45;&gt;p_16_TravelAgency</title>
<path fill="none" stroke="black" d="M72.41,-279C81.2,-279 90.82,-279 100.28,-279"/>
<polygon fill="black" stroke="black" points="100.15,-282.5 110.15,-279 100.15,-275.5 100.15,-282.5"/>
<text xml:space="preserve" text-anchor="middle" x="91.88" y="-281.15" font-family="Times,serif" font-size="8.00">h</text>
</g>
<!-- tau_1_TravelAgency&#45;&gt;p_12_TravelAgency -->
<g id="edge10" class="edge">
<title>tau_1_TravelAgency&#45;&gt;p_12_TravelAgency</title>
<path fill="none" stroke="black" d="M44.01,-297.03C55.95,-326.84 81.88,-387.8 111.75,-435 113.96,-438.5 116.38,-442.03 118.89,-445.51"/>
<polygon fill="black" stroke="black" points="116,-447.49 124.81,-453.37 121.59,-443.28 116,-447.49"/>
<text xml:space="preserve" text-anchor="middle" x="91.88" y="-404.45" font-family="Times,serif" font-size="8.00">h</text>
</g>
<!-- tau_1_TravelAgency&#45;&gt;p_5_TravelAgency -->
<g id="edge15" class="edge">
<title>tau_1_TravelAgency&#45;&gt;p_5_TravelAgency</title>
<path fill="none" stroke="black" d="M57.64,-260.65C73.11,-246.89 94.76,-227.63 113.62,-210.86"/>
<polygon fill="black" stroke="black" points="115.78,-213.62 120.93,-204.36 111.13,-208.39 115.78,-213.62"/>
<text xml:space="preserve" text-anchor="middle" x="91.88" y="-232.27" font-family="Times,serif" font-size="8.00">h</text>
</g>
<!-- tau_1_TravelAgency&#45;&gt;p_9_TravelAgency -->
<g id="edge12" class="edge">
<title>tau_1_TravelAgency&#45;&gt;p_9_TravelAgency</title>
<path fill="none" stroke="black" d="M44.01,-260.97C55.95,-231.16 81.88,-170.2 111.75,-123 113.96,-119.5 116.38,-115.97 118.89,-112.49"/>
<polygon fill="black" stroke="black" points="121.59,-114.72 124.81,-104.63 116,-110.51 121.59,-114.72"/>
<text xml:space="preserve" text-anchor="middle" x="91.88" y="-162.08" font-family="Times,serif" font-size="8.00">h</text>
</g>
<!-- tau_1_TravelAgency&#45;&gt;p_14_TravelAgency -->
<g id="edge14" class="edge">
<title>tau_1_TravelAgency&#45;&gt;p_14_TravelAgency</title>
<path fill="none" stroke="black" d="M57.64,-297.35C73.11,-311.11 94.76,-330.37 113.62,-347.14"/>
<polygon fill="black" stroke="black" points="111.13,-349.61 120.93,-353.64 115.78,-344.38 111.13,-349.61"/>
<text xml:space="preserve" text-anchor="middle" x="91.88" y="-330.03" font-family="Times,serif" font-size="8.00">h</text>
</g>
<!-- tau_1_Customer -->
<g id="node19" class="node">
<title>tau_1_Customer</title>
<polygon fill="black" stroke="black" points="72,-615 0,-615 0,-579 72,-579 72,-615"/>
<text xml:space="preserve" text-anchor="middle" x="36" y="-593.12" font-family="Times,serif" font-size="10.00">τ</text>
</g>
<!-- tau_1_Customer&#45;&gt;p_5_Customer -->
<g id="edge32" class="edge">
<title>tau_1_Customer&#45;&gt;p_5_Customer</title>
<path fill="none" stroke="black" d="M72.41,-597C81.2,-597 90.82,-597 100.28,-597"/>
<polygon fill="black" stroke="black" points="100.15,-600.5 110.15,-597 100.15,-593.5 100.15,-600.5"/>
<text xml:space="preserve" text-anchor="middle" x="91.88" y="-599.15" font-family="Times,serif" font-size="8.00">o</text>
</g>
<!-- 04461778&#45;0c42&#45;4781&#45;8287&#45;5fa93d8d0553_TravelAgency&#45;&gt;p_6_TravelAgency -->
<g id="edge1" class="edge">
<title>04461778&#45;0c42&#45;4781&#45;8287&#45;5fa93d8d0553_TravelAgency&#45;&gt;p_6_TravelAgency</title>
<path fill="none" stroke="black" d="M321.2,-175C333.22,-175 346.93,-175 360.06,-175"/>
<polygon fill="black" stroke="black" points="359.87,-178.5 369.87,-175 359.87,-171.5 359.87,-178.5"/>
<text xml:space="preserve" text-anchor="middle" x="351.78" y="-177.15" font-family="Times,serif" font-size="8.00">h</text>
</g>
<!-- 4a1f1d9d&#45;ad88&#45;4473&#45;abc0&#45;f6c87a9684bd_TravelAgency&#45;&gt;p_10_TravelAgency -->
<g id="edge5" class="edge">
<title>4a1f1d9d&#45;ad88&#45;4473&#45;abc0&#45;f6c87a9684bd_TravelAgency&#45;&gt;p_10_TravelAgency</title>
<path fill="none" stroke="black" d="M330.65,-71C340.18,-71 350.34,-71 360.16,-71"/>
<polygon fill="black" stroke="black" points="359.98,-74.5 369.98,-71 359.98,-67.5 359.98,-74.5"/>
<text xml:space="preserve" text-anchor="middle" x="351.78" y="-73.15" font-family="Times,serif" font-size="8.00">h</text>
</g>
<!-- skip_7_TravelAgency&#45;&gt;p_9_TravelAgency -->
<g id="edge9" class="edge">
<title>skip_7_TravelAgency&#45;&gt;p_9_TravelAgency</title>
<path fill="none" stroke="black" d="M497.5,-16.41C464.79,-15.37 414.82,-14.87 371.65,-19 311.45,-24.77 296.47,-28.95 237.9,-44 227.78,-46.6 217.09,-49.79 206.89,-53.05"/>
<polygon fill="black" stroke="black" points="205.92,-49.69 197.5,-56.13 208.1,-56.34 205.92,-49.69"/>
<text xml:space="preserve" text-anchor="middle" x="351.78" y="-23.36" font-family="Times,serif" font-size="8.00">h</text>
</g>
<!-- e264d402&#45;40b1&#45;4f67&#45;9a74&#45;275d5cc0bdb1_TravelAgency&#45;&gt;p_13_TravelAgency -->
<g id="edge17" class="edge">
<title>e264d402&#45;40b1&#45;4f67&#45;9a74&#45;275d5cc0bdb1_TravelAgency&#45;&gt;p_13_TravelAgency</title>
<path fill="none" stroke="black" d="M329.22,-487C339.12,-487 349.76,-487 360.05,-487"/>
<polygon fill="black" stroke="black" points="359.93,-490.5 369.93,-487 359.93,-483.5 359.93,-490.5"/>
<text xml:space="preserve" text-anchor="middle" x="351.78" y="-489.15" font-family="Times,serif" font-size="8.00">h</text>
</g>
<!-- skip_4_Customer&#45;&gt;p_5_Customer -->
<g id="edge23" class="edge">
<title>skip_4_Customer&#45;&gt;p_5_Customer</title>
<path fill="none" stroke="black" d="M497.58,-571.3C464.93,-573.45 415,-576.81 371.65,-580 316.45,-584.06 253.35,-589.08 209.71,-592.61"/>
<polygon fill="black" stroke="black" points="209.7,-589.09 200.01,-593.39 210.26,-596.07 209.7,-589.09"/>
<text xml:space="preserve" text-anchor="middle" x="351.78" y="-583.65" font-family="Times,serif" font-size="8.00">o</text>
</g>
<!-- 17a4996a&#45;00d9&#45;41a5&#45;a66e&#45;919fee5d84bd_Customer&#45;&gt;p_6_Customer -->
<g id="edge33" class="edge">
<title>17a4996a&#45;00d9&#45;41a5&#45;a66e&#45;919fee5d84bd_Customer&#45;&gt;p_6_Customer</title>
<path fill="none" stroke="black" d="M332.09,-623.69C341.25,-624.62 350.94,-625.61 360.32,-626.56"/>
<polygon fill="black" stroke="black" points="359.75,-630.02 370.05,-627.55 360.45,-623.06 359.75,-630.02"/>
<text xml:space="preserve" text-anchor="middle" x="351.78" y="-627.84" font-family="Times,serif" font-size="8.00">o</text>
</g>
<!-- 32a6d1be&#45;e87b&#45;4c41&#45;ba4c&#45;8bc742ac9394_Customer&#45;&gt;p_8_Customer -->
<g id="edge34" class="edge">
<title>32a6d1be&#45;e87b&#45;4c41&#45;ba4c&#45;8bc742ac9394_Customer&#45;&gt;p_8_Customer</title>
<path fill="none" stroke="black" d="M570.21,-632C579,-632 588.62,-632 598.08,-632"/>
<polygon fill="black" stroke="black" points="597.95,-635.5 607.95,-632 597.95,-628.5 597.95,-635.5"/>
<text xml:space="preserve" text-anchor="middle" x="589.68" y="-634.15" font-family="Times,serif" font-size="8.00">o</text>
</g>
<!-- 257cf915&#45;ae58&#45;48e8&#45;b7f9&#45;eaf3373c852e_Customer&#45;&gt;p_9_Customer -->
<g id="edge29" class="edge">
<title>257cf915&#45;ae58&#45;48e8&#45;b7f9&#45;eaf3373c852e_Customer&#45;&gt;p_9_Customer</title>
<path fill="none" stroke="black" d="M808.11,-632C816.9,-632 826.52,-632 835.98,-632"/>
<polygon fill="black" stroke="black" points="835.85,-635.5 845.85,-632 835.85,-628.5 835.85,-635.5"/>
<text xml:space="preserve" text-anchor="middle" x="827.58" y="-634.15" font-family="Times,serif" font-size="8.00">o</text>
</g>
<!-- 5625c8ed&#45;bfb6&#45;4d01&#45;a914&#45;4457c163d6e7_Customer&#45;&gt;p_10_Customer -->
<g id="edge30" class="edge">
<title>5625c8ed&#45;bfb6&#45;4d01&#45;a914&#45;4457c163d6e7_Customer&#45;&gt;p_10_Customer</title>
<path fill="none" stroke="black" d="M1055.87,-632C1064.85,-632 1074.5,-632 1083.92,-632"/>
<polygon fill="black" stroke="black" points="1083.72,-635.5 1093.72,-632 1083.72,-628.5 1083.72,-635.5"/>
<text xml:space="preserve" text-anchor="middle" x="1075.48" y="-634.15" font-family="Times,serif" font-size="8.00">o</text>
</g>
</g>
</svg>
