<?xml version="1.0" encoding="UTF-8" standalone="no"?>
<!DOCTYPE svg PUBLIC "-//W3C//DTD SVG 1.1//EN"
 "http://www.w3.org/Graphics/SVG/1.1/DTD/svg11.dtd">
<!-- Generated by graphviz version 13.1.0 (20250701.0955)
 -->
<!-- Pages: 1 -->
<svg width="2050pt" height="329pt"
 viewBox="0.00 0.00 2050.00 329.00" xmlns="http://www.w3.org/2000/svg" xmlns:xlink="http://www.w3.org/1999/xlink">
<g id="graph0" class="graph" transform="scale(1 1) rotate(0) translate(4 325.15)">
<polygon fill="white" stroke="none" points="-4,4 -4,-325.15 2045.8,-325.15 2045.8,4 -4,4"/>
<text xml:space="preserve" text-anchor="middle" x="1020.9" y="-301.95" font-family="Times,serif" font-size="16.00">Petri Net for Agent 1 &#45; </text>
<!-- p_14 -->
<g id="node1" class="node">
<title>p_14</title>
<ellipse fill="none" stroke="black" cx="1302.3" cy="-147.2" rx="43.2" ry="43.2"/>
<text xml:space="preserve" text-anchor="middle" x="1302.3" y="-148.95" font-family="Times,serif" font-size="10.00">p_14</text>
<text xml:space="preserve" text-anchor="middle" x="1302.3" y="-137.7" font-family="Times,serif" font-size="10.00">Agent 1</text>
</g>
<!-- 9bc58fc2&#45;a648&#45;44a0&#45;8d16&#45;1295b62235e2 -->
<g id="node28" class="node">
<title>9bc58fc2&#45;a648&#45;44a0&#45;8d16&#45;1295b62235e2</title>
<polygon fill="none" stroke="black" points="1479,-165.2 1407,-165.2 1407,-129.2 1479,-129.2 1479,-165.2"/>
<text xml:space="preserve" text-anchor="middle" x="1443" y="-143.32" font-family="Times,serif" font-size="10.00">t11</text>
</g>
<!-- p_14&#45;&gt;9bc58fc2&#45;a648&#45;44a0&#45;8d16&#45;1295b62235e2 -->
<g id="edge1" class="edge">
<title>p_14&#45;&gt;9bc58fc2&#45;a648&#45;44a0&#45;8d16&#45;1295b62235e2</title>
<path fill="none" stroke="black" d="M1345.67,-147.2C1361.44,-147.2 1379.41,-147.2 1395.53,-147.2"/>
<polygon fill="black" stroke="black" points="1395.37,-150.7 1405.37,-147.2 1395.37,-143.7 1395.37,-150.7"/>
<text xml:space="preserve" text-anchor="middle" x="1376.25" y="-149.35" font-family="Times,serif" font-size="8.00">Agent 1</text>
</g>
<!-- p_11 -->
<g id="node2" class="node">
<title>p_11</title>
<ellipse fill="none" stroke="black" cx="1302.3" cy="-43.2" rx="43.2" ry="43.2"/>
<text xml:space="preserve" text-anchor="middle" x="1302.3" y="-44.95" font-family="Times,serif" font-size="10.00">p_11</text>
<text xml:space="preserve" text-anchor="middle" x="1302.3" y="-33.7" font-family="Times,serif" font-size="10.00">Agent 1</text>
</g>
<!-- 37f8e1da&#45;8831&#45;42d9&#45;b3b8&#45;db5c4cee464b -->
<g id="node24" class="node">
<title>37f8e1da&#45;8831&#45;42d9&#45;b3b8&#45;db5c4cee464b</title>
<polygon fill="none" stroke="black" points="1479,-61.2 1407,-61.2 1407,-25.2 1479,-25.2 1479,-61.2"/>
<text xml:space="preserve" text-anchor="middle" x="1443" y="-39.32" font-family="Times,serif" font-size="10.00">t9</text>
</g>
<!-- p_11&#45;&gt;37f8e1da&#45;8831&#45;42d9&#45;b3b8&#45;db5c4cee464b -->
<g id="edge7" class="edge">
<title>p_11&#45;&gt;37f8e1da&#45;8831&#45;42d9&#45;b3b8&#45;db5c4cee464b</title>
<path fill="none" stroke="black" d="M1345.67,-43.2C1361.44,-43.2 1379.41,-43.2 1395.53,-43.2"/>
<polygon fill="black" stroke="black" points="1395.37,-46.7 1405.37,-43.2 1395.37,-39.7 1395.37,-46.7"/>
<text xml:space="preserve" text-anchor="middle" x="1376.25" y="-45.35" font-family="Times,serif" font-size="8.00">Agent 1</text>
</g>
<!-- p_18 -->
<g id="node3" class="node">
<title>p_18</title>
<ellipse fill="none" stroke="black" cx="1865.1" cy="-251.2" rx="43.2" ry="43.2"/>
<text xml:space="preserve" text-anchor="middle" x="1865.1" y="-252.95" font-family="Times,serif" font-size="10.00">p_18</text>
<text xml:space="preserve" text-anchor="middle" x="1865.1" y="-241.7" font-family="Times,serif" font-size="10.00">Agent 1</text>
</g>
<!-- f891c70d&#45;355a&#45;436a&#45;9077&#45;0aaf629deef4 -->
<g id="node15" class="node">
<title>f891c70d&#45;355a&#45;436a&#45;9077&#45;0aaf629deef4</title>
<polygon fill="none" stroke="black" points="2041.8,-216.2 1969.8,-216.2 1969.8,-180.2 2041.8,-180.2 2041.8,-216.2"/>
<text xml:space="preserve" text-anchor="middle" x="2005.8" y="-194.32" font-family="Times,serif" font-size="10.00">t14</text>
</g>
<!-- p_18&#45;&gt;f891c70d&#45;355a&#45;436a&#45;9077&#45;0aaf629deef4 -->
<g id="edge11" class="edge">
<title>p_18&#45;&gt;f891c70d&#45;355a&#45;436a&#45;9077&#45;0aaf629deef4</title>
<path fill="none" stroke="black" d="M1905.85,-236.01C1922.42,-229.68 1941.77,-222.29 1958.94,-215.72"/>
<polygon fill="black" stroke="black" points="1959.8,-219.14 1967.89,-212.3 1957.3,-212.6 1959.8,-219.14"/>
<text xml:space="preserve" text-anchor="middle" x="1939.05" y="-230.02" font-family="Times,serif" font-size="8.00">Agent 1</text>
</g>
<!-- p_8 -->
<g id="node4" class="node">
<title>p_8</title>
<ellipse fill="none" stroke="black" cx="458.1" cy="-55.2" rx="43.2" ry="43.2"/>
<text xml:space="preserve" text-anchor="middle" x="458.1" y="-56.95" font-family="Times,serif" font-size="10.00">p_8</text>
<text xml:space="preserve" text-anchor="middle" x="458.1" y="-45.7" font-family="Times,serif" font-size="10.00">Agent 1</text>
</g>
<!-- b021edec&#45;1260&#45;413a&#45;8e6d&#45;67f4cabf429e -->
<g id="node21" class="node">
<title>b021edec&#45;1260&#45;413a&#45;8e6d&#45;67f4cabf429e</title>
<polygon fill="none" stroke="black" points="634.8,-124.2 562.8,-124.2 562.8,-88.2 634.8,-88.2 634.8,-124.2"/>
<text xml:space="preserve" text-anchor="middle" x="598.8" y="-102.32" font-family="Times,serif" font-size="10.00">t4</text>
</g>
<!-- p_8&#45;&gt;b021edec&#45;1260&#45;413a&#45;8e6d&#45;67f4cabf429e -->
<g id="edge2" class="edge">
<title>p_8&#45;&gt;b021edec&#45;1260&#45;413a&#45;8e6d&#45;67f4cabf429e</title>
<path fill="none" stroke="black" d="M499.22,-69.95C515.63,-75.98 534.71,-83 551.68,-89.24"/>
<polygon fill="black" stroke="black" points="550.47,-92.53 561.07,-92.69 552.89,-85.96 550.47,-92.53"/>
<text xml:space="preserve" text-anchor="middle" x="532.05" y="-87.42" font-family="Times,serif" font-size="8.00">Agent 1</text>
</g>
<!-- p_10 -->
<g id="node5" class="node">
<title>p_10</title>
<ellipse fill="none" stroke="black" cx="1020.9" cy="-43.2" rx="43.2" ry="43.2"/>
<text xml:space="preserve" text-anchor="middle" x="1020.9" y="-44.95" font-family="Times,serif" font-size="10.00">p_10</text>
<text xml:space="preserve" text-anchor="middle" x="1020.9" y="-33.7" font-family="Times,serif" font-size="10.00">Agent 1</text>
</g>
<!-- ed9bd5f0&#45;b24c&#45;4b66&#45;9711&#45;9efad66ac97a -->
<g id="node23" class="node">
<title>ed9bd5f0&#45;b24c&#45;4b66&#45;9711&#45;9efad66ac97a</title>
<polygon fill="none" stroke="black" points="1197.6,-61.2 1125.6,-61.2 1125.6,-25.2 1197.6,-25.2 1197.6,-61.2"/>
<text xml:space="preserve" text-anchor="middle" x="1161.6" y="-39.32" font-family="Times,serif" font-size="10.00">a!_1</text>
</g>
<!-- p_10&#45;&gt;ed9bd5f0&#45;b24c&#45;4b66&#45;9711&#45;9efad66ac97a -->
<g id="edge23" class="edge">
<title>p_10&#45;&gt;ed9bd5f0&#45;b24c&#45;4b66&#45;9711&#45;9efad66ac97a</title>
<path fill="none" stroke="black" d="M1064.27,-43.2C1080.04,-43.2 1098.01,-43.2 1114.13,-43.2"/>
<polygon fill="black" stroke="black" points="1113.97,-46.7 1123.97,-43.2 1113.97,-39.7 1113.97,-46.7"/>
<text xml:space="preserve" text-anchor="middle" x="1094.85" y="-45.35" font-family="Times,serif" font-size="8.00">Agent 1</text>
</g>
<!-- p_20 -->
<g id="node6" class="node">
<title>p_20</title>
<ellipse fill="none" stroke="black" cx="1865.1" cy="-147.2" rx="43.2" ry="43.2"/>
<text xml:space="preserve" text-anchor="middle" x="1865.1" y="-148.95" font-family="Times,serif" font-size="10.00">p_20</text>
<text xml:space="preserve" text-anchor="middle" x="1865.1" y="-137.7" font-family="Times,serif" font-size="10.00">Agent 1</text>
</g>
<!-- p_20&#45;&gt;f891c70d&#45;355a&#45;436a&#45;9077&#45;0aaf629deef4 -->
<g id="edge3" class="edge">
<title>p_20&#45;&gt;f891c70d&#45;355a&#45;436a&#45;9077&#45;0aaf629deef4</title>
<path fill="none" stroke="black" d="M1906.22,-161.95C1922.63,-167.98 1941.71,-175 1958.68,-181.24"/>
<polygon fill="black" stroke="black" points="1957.47,-184.53 1968.07,-184.69 1959.89,-177.96 1957.47,-184.53"/>
<text xml:space="preserve" text-anchor="middle" x="1939.05" y="-179.42" font-family="Times,serif" font-size="8.00">Agent 1</text>
</g>
<!-- p_17 -->
<g id="node7" class="node">
<title>p_17</title>
<ellipse fill="none" stroke="black" cx="1583.7" cy="-251.2" rx="43.2" ry="43.2"/>
<text xml:space="preserve" text-anchor="middle" x="1583.7" y="-252.95" font-family="Times,serif" font-size="10.00">p_17</text>
<text xml:space="preserve" text-anchor="middle" x="1583.7" y="-241.7" font-family="Times,serif" font-size="10.00">Agent 1</text>
</g>
<!-- 7e4ce928&#45;d249&#45;4eb6&#45;a28b&#45;f4a1e17e6135 -->
<g id="node27" class="node">
<title>7e4ce928&#45;d249&#45;4eb6&#45;a28b&#45;f4a1e17e6135</title>
<polygon fill="none" stroke="black" points="1760.4,-269.2 1688.4,-269.2 1688.4,-233.2 1760.4,-233.2 1760.4,-269.2"/>
<text xml:space="preserve" text-anchor="middle" x="1724.4" y="-247.32" font-family="Times,serif" font-size="10.00">t13</text>
</g>
<!-- p_17&#45;&gt;7e4ce928&#45;d249&#45;4eb6&#45;a28b&#45;f4a1e17e6135 -->
<g id="edge27" class="edge">
<title>p_17&#45;&gt;7e4ce928&#45;d249&#45;4eb6&#45;a28b&#45;f4a1e17e6135</title>
<path fill="none" stroke="black" d="M1627.07,-251.2C1642.84,-251.2 1660.81,-251.2 1676.93,-251.2"/>
<polygon fill="black" stroke="black" points="1676.77,-254.7 1686.77,-251.2 1676.77,-247.7 1676.77,-254.7"/>
<text xml:space="preserve" text-anchor="middle" x="1657.65" y="-253.35" font-family="Times,serif" font-size="8.00">Agent 1</text>
</g>
<!-- p_19 -->
<g id="node8" class="node">
<title>p_19</title>
<ellipse fill="none" stroke="black" cx="1583.7" cy="-147.2" rx="43.2" ry="43.2"/>
<text xml:space="preserve" text-anchor="middle" x="1583.7" y="-148.95" font-family="Times,serif" font-size="10.00">p_19</text>
<text xml:space="preserve" text-anchor="middle" x="1583.7" y="-137.7" font-family="Times,serif" font-size="10.00">Agent 1</text>
</g>
<!-- cbe16ed7&#45;9ac0&#45;4c71&#45;97c6&#45;8802f406ba5c -->
<g id="node26" class="node">
<title>cbe16ed7&#45;9ac0&#45;4c71&#45;97c6&#45;8802f406ba5c</title>
<polygon fill="none" stroke="black" points="1760.4,-165.2 1688.4,-165.2 1688.4,-129.2 1760.4,-129.2 1760.4,-165.2"/>
<text xml:space="preserve" text-anchor="middle" x="1724.4" y="-143.32" font-family="Times,serif" font-size="10.00">t12</text>
</g>
<!-- p_19&#45;&gt;cbe16ed7&#45;9ac0&#45;4c71&#45;97c6&#45;8802f406ba5c -->
<g id="edge14" class="edge">
<title>p_19&#45;&gt;cbe16ed7&#45;9ac0&#45;4c71&#45;97c6&#45;8802f406ba5c</title>
<path fill="none" stroke="black" d="M1627.07,-147.2C1642.84,-147.2 1660.81,-147.2 1676.93,-147.2"/>
<polygon fill="black" stroke="black" points="1676.77,-150.7 1686.77,-147.2 1676.77,-143.7 1676.77,-150.7"/>
<text xml:space="preserve" text-anchor="middle" x="1657.65" y="-149.35" font-family="Times,serif" font-size="8.00">Agent 1</text>
</g>
<!-- p_13 -->
<g id="node9" class="node">
<title>p_13</title>
<ellipse fill="none" stroke="black" cx="1020.9" cy="-147.2" rx="43.2" ry="43.2"/>
<text xml:space="preserve" text-anchor="middle" x="1020.9" y="-148.95" font-family="Times,serif" font-size="10.00">p_13</text>
<text xml:space="preserve" text-anchor="middle" x="1020.9" y="-137.7" font-family="Times,serif" font-size="10.00">Agent 1</text>
</g>
<!-- 0c4a1802&#45;b01b&#45;46af&#45;a9f0&#45;b402a888426d -->
<g id="node16" class="node">
<title>0c4a1802&#45;b01b&#45;46af&#45;a9f0&#45;b402a888426d</title>
<polygon fill="none" stroke="black" points="1197.6,-165.2 1125.6,-165.2 1125.6,-129.2 1197.6,-129.2 1197.6,-165.2"/>
<text xml:space="preserve" text-anchor="middle" x="1161.6" y="-143.32" font-family="Times,serif" font-size="10.00">a!_2</text>
</g>
<!-- p_13&#45;&gt;0c4a1802&#45;b01b&#45;46af&#45;a9f0&#45;b402a888426d -->
<g id="edge17" class="edge">
<title>p_13&#45;&gt;0c4a1802&#45;b01b&#45;46af&#45;a9f0&#45;b402a888426d</title>
<path fill="none" stroke="black" d="M1064.27,-147.2C1080.04,-147.2 1098.01,-147.2 1114.13,-147.2"/>
<polygon fill="black" stroke="black" points="1113.97,-150.7 1123.97,-147.2 1113.97,-143.7 1113.97,-150.7"/>
<text xml:space="preserve" text-anchor="middle" x="1094.85" y="-149.35" font-family="Times,serif" font-size="8.00">Agent 1</text>
</g>
<!-- p_5 -->
<g id="node10" class="node">
<title>p_5</title>
<ellipse fill="none" stroke="black" cx="176.7" cy="-159.2" rx="43.2" ry="43.2"/>
<text xml:space="preserve" text-anchor="middle" x="176.7" y="-160.95" font-family="Times,serif" font-size="10.00">p_5</text>
<text xml:space="preserve" text-anchor="middle" x="176.7" y="-149.7" font-family="Times,serif" font-size="10.00">Agent 1</text>
</g>
<!-- c4d1321f&#45;8b13&#45;4411&#45;ac58&#45;e01366387506 -->
<g id="node20" class="node">
<title>c4d1321f&#45;8b13&#45;4411&#45;ac58&#45;e01366387506</title>
<polygon fill="none" stroke="black" points="353.4,-177.2 281.4,-177.2 281.4,-141.2 353.4,-141.2 353.4,-177.2"/>
<text xml:space="preserve" text-anchor="middle" x="317.4" y="-155.32" font-family="Times,serif" font-size="10.00">t3</text>
</g>
<!-- p_5&#45;&gt;c4d1321f&#45;8b13&#45;4411&#45;ac58&#45;e01366387506 -->
<g id="edge24" class="edge">
<title>p_5&#45;&gt;c4d1321f&#45;8b13&#45;4411&#45;ac58&#45;e01366387506</title>
<path fill="none" stroke="black" d="M220.07,-159.2C235.84,-159.2 253.81,-159.2 269.93,-159.2"/>
<polygon fill="black" stroke="black" points="269.77,-162.7 279.77,-159.2 269.77,-155.7 269.77,-162.7"/>
<text xml:space="preserve" text-anchor="middle" x="250.65" y="-161.35" font-family="Times,serif" font-size="8.00">Agent 1</text>
</g>
<!-- p_6 -->
<g id="node11" class="node">
<title>p_6</title>
<ellipse fill="none" stroke="black" cx="458.1" cy="-159.2" rx="43.2" ry="43.2"/>
<text xml:space="preserve" text-anchor="middle" x="458.1" y="-160.95" font-family="Times,serif" font-size="10.00">p_6</text>
<text xml:space="preserve" text-anchor="middle" x="458.1" y="-149.7" font-family="Times,serif" font-size="10.00">Agent 1</text>
</g>
<!-- p_6&#45;&gt;b021edec&#45;1260&#45;413a&#45;8e6d&#45;67f4cabf429e -->
<g id="edge12" class="edge">
<title>p_6&#45;&gt;b021edec&#45;1260&#45;413a&#45;8e6d&#45;67f4cabf429e</title>
<path fill="none" stroke="black" d="M498.85,-144.01C515.42,-137.68 534.77,-130.29 551.94,-123.72"/>
<polygon fill="black" stroke="black" points="552.8,-127.14 560.89,-120.3 550.3,-120.6 552.8,-127.14"/>
<text xml:space="preserve" text-anchor="middle" x="532.05" y="-138.02" font-family="Times,serif" font-size="8.00">Agent 1</text>
</g>
<!-- p_7 -->
<g id="node12" class="node">
<title>p_7</title>
<ellipse fill="none" stroke="black" cx="176.7" cy="-55.2" rx="43.2" ry="43.2"/>
<text xml:space="preserve" text-anchor="middle" x="176.7" y="-56.95" font-family="Times,serif" font-size="10.00">p_7</text>
<text xml:space="preserve" text-anchor="middle" x="176.7" y="-45.7" font-family="Times,serif" font-size="10.00">Agent 1</text>
</g>
<!-- e9993a2c&#45;fc47&#45;4aac&#45;89cd&#45;880a6caca40c -->
<g id="node19" class="node">
<title>e9993a2c&#45;fc47&#45;4aac&#45;89cd&#45;880a6caca40c</title>
<polygon fill="none" stroke="black" points="353.4,-73.2 281.4,-73.2 281.4,-37.2 353.4,-37.2 353.4,-73.2"/>
<text xml:space="preserve" text-anchor="middle" x="317.4" y="-51.32" font-family="Times,serif" font-size="10.00">t2</text>
</g>
<!-- p_7&#45;&gt;e9993a2c&#45;fc47&#45;4aac&#45;89cd&#45;880a6caca40c -->
<g id="edge13" class="edge">
<title>p_7&#45;&gt;e9993a2c&#45;fc47&#45;4aac&#45;89cd&#45;880a6caca40c</title>
<path fill="none" stroke="black" d="M220.07,-55.2C235.84,-55.2 253.81,-55.2 269.93,-55.2"/>
<polygon fill="black" stroke="black" points="269.77,-58.7 279.77,-55.2 269.77,-51.7 269.77,-58.7"/>
<text xml:space="preserve" text-anchor="middle" x="250.65" y="-57.35" font-family="Times,serif" font-size="8.00">Agent 1</text>
</g>
<!-- p_9 -->
<g id="node13" class="node">
<title>p_9</title>
<ellipse fill="none" stroke="black" cx="739.5" cy="-106.2" rx="43.2" ry="43.2"/>
<text xml:space="preserve" text-anchor="middle" x="739.5" y="-107.95" font-family="Times,serif" font-size="10.00">p_9</text>
<text xml:space="preserve" text-anchor="middle" x="739.5" y="-96.7" font-family="Times,serif" font-size="10.00">Agent 1</text>
</g>
<!-- 35ab0bf5&#45;dc91&#45;4e52&#45;87b3&#45;53c6def1dfac -->
<g id="node17" class="node">
<title>35ab0bf5&#45;dc91&#45;4e52&#45;87b3&#45;53c6def1dfac</title>
<polygon fill="none" stroke="black" points="916.2,-158.2 844.2,-158.2 844.2,-122.2 916.2,-122.2 916.2,-158.2"/>
<text xml:space="preserve" text-anchor="middle" x="880.2" y="-136.32" font-family="Times,serif" font-size="10.00">t6</text>
</g>
<!-- p_9&#45;&gt;35ab0bf5&#45;dc91&#45;4e52&#45;87b3&#45;53c6def1dfac -->
<g id="edge26" class="edge">
<title>p_9&#45;&gt;35ab0bf5&#45;dc91&#45;4e52&#45;87b3&#45;53c6def1dfac</title>
<path fill="none" stroke="black" d="M781.74,-116.31C797.83,-120.25 816.35,-124.79 832.9,-128.85"/>
<polygon fill="black" stroke="black" points="831.97,-132.22 842.51,-131.21 833.63,-125.43 831.97,-132.22"/>
<text xml:space="preserve" text-anchor="middle" x="813.45" y="-128.4" font-family="Times,serif" font-size="8.00">Agent 1</text>
</g>
<!-- a828f51a&#45;b274&#45;4ef0&#45;a4b8&#45;13c85dbf2a55 -->
<g id="node22" class="node">
<title>a828f51a&#45;b274&#45;4ef0&#45;a4b8&#45;13c85dbf2a55</title>
<polygon fill="none" stroke="black" points="916.2,-98.2 844.2,-98.2 844.2,-62.2 916.2,-62.2 916.2,-98.2"/>
<text xml:space="preserve" text-anchor="middle" x="880.2" y="-76.32" font-family="Times,serif" font-size="10.00">t5</text>
</g>
<!-- p_9&#45;&gt;a828f51a&#45;b274&#45;4ef0&#45;a4b8&#45;13c85dbf2a55 -->
<g id="edge4" class="edge">
<title>p_9&#45;&gt;a828f51a&#45;b274&#45;4ef0&#45;a4b8&#45;13c85dbf2a55</title>
<path fill="none" stroke="black" d="M782.11,-98.4C798.06,-95.41 816.36,-91.98 832.73,-88.91"/>
<polygon fill="black" stroke="black" points="833.04,-92.41 842.22,-87.13 831.75,-85.53 833.04,-92.41"/>
<text xml:space="preserve" text-anchor="middle" x="813.45" y="-96.91" font-family="Times,serif" font-size="8.00">Agent 1</text>
</g>
<!-- p_12 -->
<g id="node14" class="node">
<title>p_12</title>
<ellipse fill="none" stroke="black" cx="1583.7" cy="-43.2" rx="43.2" ry="43.2"/>
<text xml:space="preserve" text-anchor="middle" x="1583.7" y="-44.95" font-family="Times,serif" font-size="10.00">p_12</text>
<text xml:space="preserve" text-anchor="middle" x="1583.7" y="-33.7" font-family="Times,serif" font-size="10.00">Agent 1</text>
</g>
<!-- 86116bb1&#45;8ec9&#45;4c22&#45;a210&#45;54ea4ca9ca0a -->
<g id="node25" class="node">
<title>86116bb1&#45;8ec9&#45;4c22&#45;a210&#45;54ea4ca9ca0a</title>
<polygon fill="none" stroke="black" points="1760.4,-61.2 1688.4,-61.2 1688.4,-25.2 1760.4,-25.2 1760.4,-61.2"/>
<text xml:space="preserve" text-anchor="middle" x="1724.4" y="-39.32" font-family="Times,serif" font-size="10.00">t10</text>
</g>
<!-- p_12&#45;&gt;86116bb1&#45;8ec9&#45;4c22&#45;a210&#45;54ea4ca9ca0a -->
<g id="edge20" class="edge">
<title>p_12&#45;&gt;86116bb1&#45;8ec9&#45;4c22&#45;a210&#45;54ea4ca9ca0a</title>
<path fill="none" stroke="black" d="M1627.07,-43.2C1642.84,-43.2 1660.81,-43.2 1676.93,-43.2"/>
<polygon fill="black" stroke="black" points="1676.77,-46.7 1686.77,-43.2 1676.77,-39.7 1676.77,-46.7"/>
<text xml:space="preserve" text-anchor="middle" x="1657.65" y="-45.35" font-family="Times,serif" font-size="8.00">Agent 1</text>
</g>
<!-- 0c4a1802&#45;b01b&#45;46af&#45;a9f0&#45;b402a888426d&#45;&gt;p_14 -->
<g id="edge18" class="edge">
<title>0c4a1802&#45;b01b&#45;46af&#45;a9f0&#45;b402a888426d&#45;&gt;p_14</title>
<path fill="none" stroke="black" d="M1197.96,-147.2C1213.02,-147.2 1230.93,-147.2 1247.57,-147.2"/>
<polygon fill="black" stroke="black" points="1247.32,-150.7 1257.32,-147.2 1247.32,-143.7 1247.32,-150.7"/>
<text xml:space="preserve" text-anchor="middle" x="1228.35" y="-149.35" font-family="Times,serif" font-size="8.00">Agent 1</text>
</g>
<!-- 35ab0bf5&#45;dc91&#45;4e52&#45;87b3&#45;53c6def1dfac&#45;&gt;p_13 -->
<g id="edge15" class="edge">
<title>35ab0bf5&#45;dc91&#45;4e52&#45;87b3&#45;53c6def1dfac&#45;&gt;p_13</title>
<path fill="none" stroke="black" d="M916.56,-141.98C931.62,-142.74 949.53,-143.65 966.17,-144.49"/>
<polygon fill="black" stroke="black" points="965.76,-147.97 975.93,-144.98 966.12,-140.98 965.76,-147.97"/>
<text xml:space="preserve" text-anchor="middle" x="946.95" y="-146.27" font-family="Times,serif" font-size="8.00">Agent 1</text>
</g>
<!-- 4f8d0e4c&#45;6454&#45;470a&#45;b3a2&#45;16bd37a567dd -->
<g id="node18" class="node">
<title>4f8d0e4c&#45;6454&#45;470a&#45;b3a2&#45;16bd37a567dd</title>
<polygon fill="none" stroke="black" points="72,-124.2 0,-124.2 0,-88.2 72,-88.2 72,-124.2"/>
<text xml:space="preserve" text-anchor="middle" x="36" y="-102.32" font-family="Times,serif" font-size="10.00">t1</text>
</g>
<!-- 4f8d0e4c&#45;6454&#45;470a&#45;b3a2&#45;16bd37a567dd&#45;&gt;p_5 -->
<g id="edge10" class="edge">
<title>4f8d0e4c&#45;6454&#45;470a&#45;b3a2&#45;16bd37a567dd&#45;&gt;p_5</title>
<path fill="none" stroke="black" d="M72.36,-119.71C88.44,-125.86 107.77,-133.24 125.33,-139.95"/>
<polygon fill="black" stroke="black" points="123.99,-143.19 134.59,-143.49 126.49,-136.65 123.99,-143.19"/>
<text xml:space="preserve" text-anchor="middle" x="102.75" y="-138.02" font-family="Times,serif" font-size="8.00">Agent 1</text>
</g>
<!-- 4f8d0e4c&#45;6454&#45;470a&#45;b3a2&#45;16bd37a567dd&#45;&gt;p_7 -->
<g id="edge9" class="edge">
<title>4f8d0e4c&#45;6454&#45;470a&#45;b3a2&#45;16bd37a567dd&#45;&gt;p_7</title>
<path fill="none" stroke="black" d="M72.36,-93.2C88.44,-87.28 107.77,-80.18 125.33,-73.72"/>
<polygon fill="black" stroke="black" points="126.4,-77.06 134.58,-70.32 123.99,-70.49 126.4,-77.06"/>
<text xml:space="preserve" text-anchor="middle" x="102.75" y="-87.42" font-family="Times,serif" font-size="8.00">Agent 1</text>
</g>
<!-- e9993a2c&#45;fc47&#45;4aac&#45;89cd&#45;880a6caca40c&#45;&gt;p_8 -->
<g id="edge21" class="edge">
<title>e9993a2c&#45;fc47&#45;4aac&#45;89cd&#45;880a6caca40c&#45;&gt;p_8</title>
<path fill="none" stroke="black" d="M353.76,-55.2C368.82,-55.2 386.73,-55.2 403.37,-55.2"/>
<polygon fill="black" stroke="black" points="403.12,-58.7 413.12,-55.2 403.12,-51.7 403.12,-58.7"/>
<text xml:space="preserve" text-anchor="middle" x="384.15" y="-57.35" font-family="Times,serif" font-size="8.00">Agent 1</text>
</g>
<!-- c4d1321f&#45;8b13&#45;4411&#45;ac58&#45;e01366387506&#45;&gt;p_6 -->
<g id="edge25" class="edge">
<title>c4d1321f&#45;8b13&#45;4411&#45;ac58&#45;e01366387506&#45;&gt;p_6</title>
<path fill="none" stroke="black" d="M353.76,-159.2C368.82,-159.2 386.73,-159.2 403.37,-159.2"/>
<polygon fill="black" stroke="black" points="403.12,-162.7 413.12,-159.2 403.12,-155.7 403.12,-162.7"/>
<text xml:space="preserve" text-anchor="middle" x="384.15" y="-161.35" font-family="Times,serif" font-size="8.00">Agent 1</text>
</g>
<!-- b021edec&#45;1260&#45;413a&#45;8e6d&#45;67f4cabf429e&#45;&gt;p_9 -->
<g id="edge22" class="edge">
<title>b021edec&#45;1260&#45;413a&#45;8e6d&#45;67f4cabf429e&#45;&gt;p_9</title>
<path fill="none" stroke="black" d="M635.16,-106.2C650.22,-106.2 668.13,-106.2 684.77,-106.2"/>
<polygon fill="black" stroke="black" points="684.52,-109.7 694.52,-106.2 684.52,-102.7 684.52,-109.7"/>
<text xml:space="preserve" text-anchor="middle" x="665.55" y="-108.35" font-family="Times,serif" font-size="8.00">Agent 1</text>
</g>
<!-- a828f51a&#45;b274&#45;4ef0&#45;a4b8&#45;13c85dbf2a55&#45;&gt;p_10 -->
<g id="edge6" class="edge">
<title>a828f51a&#45;b274&#45;4ef0&#45;a4b8&#45;13c85dbf2a55&#45;&gt;p_10</title>
<path fill="none" stroke="black" d="M916.56,-70.77C932.1,-66.62 950.66,-61.67 967.74,-57.12"/>
<polygon fill="black" stroke="black" points="968.48,-60.54 977.24,-54.58 966.67,-53.78 968.48,-60.54"/>
<text xml:space="preserve" text-anchor="middle" x="946.95" y="-67.16" font-family="Times,serif" font-size="8.00">Agent 1</text>
</g>
<!-- ed9bd5f0&#45;b24c&#45;4b66&#45;9711&#45;9efad66ac97a&#45;&gt;p_11 -->
<g id="edge5" class="edge">
<title>ed9bd5f0&#45;b24c&#45;4b66&#45;9711&#45;9efad66ac97a&#45;&gt;p_11</title>
<path fill="none" stroke="black" d="M1197.96,-43.2C1213.02,-43.2 1230.93,-43.2 1247.57,-43.2"/>
<polygon fill="black" stroke="black" points="1247.32,-46.7 1257.32,-43.2 1247.32,-39.7 1247.32,-46.7"/>
<text xml:space="preserve" text-anchor="middle" x="1228.35" y="-45.35" font-family="Times,serif" font-size="8.00">Agent 1</text>
</g>
<!-- 37f8e1da&#45;8831&#45;42d9&#45;b3b8&#45;db5c4cee464b&#45;&gt;p_12 -->
<g id="edge19" class="edge">
<title>37f8e1da&#45;8831&#45;42d9&#45;b3b8&#45;db5c4cee464b&#45;&gt;p_12</title>
<path fill="none" stroke="black" d="M1479.36,-43.2C1494.42,-43.2 1512.33,-43.2 1528.97,-43.2"/>
<polygon fill="black" stroke="black" points="1528.72,-46.7 1538.72,-43.2 1528.72,-39.7 1528.72,-46.7"/>
<text xml:space="preserve" text-anchor="middle" x="1509.75" y="-45.35" font-family="Times,serif" font-size="8.00">Agent 1</text>
</g>
<!-- cbe16ed7&#45;9ac0&#45;4c71&#45;97c6&#45;8802f406ba5c&#45;&gt;p_20 -->
<g id="edge16" class="edge">
<title>cbe16ed7&#45;9ac0&#45;4c71&#45;97c6&#45;8802f406ba5c&#45;&gt;p_20</title>
<path fill="none" stroke="black" d="M1760.76,-147.2C1775.82,-147.2 1793.73,-147.2 1810.37,-147.2"/>
<polygon fill="black" stroke="black" points="1810.12,-150.7 1820.12,-147.2 1810.12,-143.7 1810.12,-150.7"/>
<text xml:space="preserve" text-anchor="middle" x="1791.15" y="-149.35" font-family="Times,serif" font-size="8.00">Agent 1</text>
</g>
<!-- 7e4ce928&#45;d249&#45;4eb6&#45;a28b&#45;f4a1e17e6135&#45;&gt;p_18 -->
<g id="edge29" class="edge">
<title>7e4ce928&#45;d249&#45;4eb6&#45;a28b&#45;f4a1e17e6135&#45;&gt;p_18</title>
<path fill="none" stroke="black" d="M1760.76,-251.2C1775.82,-251.2 1793.73,-251.2 1810.37,-251.2"/>
<polygon fill="black" stroke="black" points="1810.12,-254.7 1820.12,-251.2 1810.12,-247.7 1810.12,-254.7"/>
<text xml:space="preserve" text-anchor="middle" x="1791.15" y="-253.35" font-family="Times,serif" font-size="8.00">Agent 1</text>
</g>
<!-- 9bc58fc2&#45;a648&#45;44a0&#45;8d16&#45;1295b62235e2&#45;&gt;p_17 -->
<g id="edge8" class="edge">
<title>9bc58fc2&#45;a648&#45;44a0&#45;8d16&#45;1295b62235e2&#45;&gt;p_17</title>
<path fill="none" stroke="black" d="M1468.48,-165.55C1488.11,-180.28 1516.16,-201.31 1539.55,-218.84"/>
<polygon fill="black" stroke="black" points="1537.27,-221.51 1547.37,-224.71 1541.47,-215.91 1537.27,-221.51"/>
<text xml:space="preserve" text-anchor="middle" x="1509.75" y="-207.58" font-family="Times,serif" font-size="8.00">Agent 1</text>
</g>
<!-- 9bc58fc2&#45;a648&#45;44a0&#45;8d16&#45;1295b62235e2&#45;&gt;p_19 -->
<g id="edge28" class="edge">
<title>9bc58fc2&#45;a648&#45;44a0&#45;8d16&#45;1295b62235e2&#45;&gt;p_19</title>
<path fill="none" stroke="black" d="M1479.36,-147.2C1494.42,-147.2 1512.33,-147.2 1528.97,-147.2"/>
<polygon fill="black" stroke="black" points="1528.72,-150.7 1538.72,-147.2 1528.72,-143.7 1528.72,-150.7"/>
<text xml:space="preserve" text-anchor="middle" x="1509.75" y="-149.35" font-family="Times,serif" font-size="8.00">Agent 1</text>
</g>
</g>
</svg>
