<?xml version="1.0" encoding="UTF-8" standalone="no"?>
<!DOCTYPE svg PUBLIC "-//W3C//DTD SVG 1.1//EN"
 "http://www.w3.org/Graphics/SVG/1.1/DTD/svg11.dtd">
<!-- Generated by graphviz version 13.1.0 (20250701.0955)
 -->
<!-- Pages: 1 -->
<svg width="1032pt" height="125pt"
 viewBox="0.00 0.00 1032.00 125.00" xmlns="http://www.w3.org/2000/svg" xmlns:xlink="http://www.w3.org/1999/xlink">
<g id="graph0" class="graph" transform="scale(1 1) rotate(0) translate(4 120.75)">
<polygon fill="white" stroke="none" points="-4,4 -4,-120.75 1027.6,-120.75 1027.6,4 -4,4"/>
<text xml:space="preserve" text-anchor="middle" x="511.8" y="-97.55" font-family="Times,serif" font-size="16.00">Petri Net for PartyA &#45; art3_collectivelog</text>
<!-- p_5 -->
<g id="node1" class="node">
<title>p_5</title>
<ellipse fill="none" stroke="black" cx="630.75" cy="-44" rx="43.2" ry="43.2"/>
<text xml:space="preserve" text-anchor="middle" x="630.75" y="-45.75" font-family="Times,serif" font-size="10.00">p_5</text>
<text xml:space="preserve" text-anchor="middle" x="630.75" y="-34.5" font-family="Times,serif" font-size="10.00">PartyA</text>
</g>
<!-- ce70e289&#45;3fec&#45;4e0d&#45;9741&#45;2efd71819e8d -->
<g id="node8" class="node">
<title>ce70e289&#45;3fec&#45;4e0d&#45;9741&#45;2efd71819e8d</title>
<polygon fill="none" stroke="black" points="785.7,-62 713.7,-62 713.7,-26 785.7,-26 785.7,-62"/>
<text xml:space="preserve" text-anchor="middle" x="749.7" y="-40.12" font-family="Times,serif" font-size="10.00">Activity E</text>
</g>
<!-- p_5&#45;&gt;ce70e289&#45;3fec&#45;4e0d&#45;9741&#45;2efd71819e8d -->
<g id="edge9" class="edge">
<title>p_5&#45;&gt;ce70e289&#45;3fec&#45;4e0d&#45;9741&#45;2efd71819e8d</title>
<path fill="none" stroke="black" d="M674.3,-44C683.3,-44 692.85,-44 701.99,-44"/>
<polygon fill="black" stroke="black" points="701.78,-47.5 711.78,-44 701.78,-40.5 701.78,-47.5"/>
<text xml:space="preserve" text-anchor="middle" x="693.83" y="-46.15" font-family="Times,serif" font-size="8.00">x</text>
</g>
<!-- p_4 -->
<g id="node2" class="node">
<title>p_4</title>
<ellipse fill="none" stroke="black" cx="392.85" cy="-44" rx="43.2" ry="43.2"/>
<text xml:space="preserve" text-anchor="middle" x="392.85" y="-45.75" font-family="Times,serif" font-size="10.00">p_4</text>
<text xml:space="preserve" text-anchor="middle" x="392.85" y="-34.5" font-family="Times,serif" font-size="10.00">PartyA</text>
</g>
<!-- 92185044&#45;da3b&#45;4e77&#45;8db4&#45;5a504f70bb7b -->
<g id="node6" class="node">
<title>92185044&#45;da3b&#45;4e77&#45;8db4&#45;5a504f70bb7b</title>
<polygon fill="none" stroke="black" points="547.8,-62 475.8,-62 475.8,-26 547.8,-26 547.8,-62"/>
<text xml:space="preserve" text-anchor="middle" x="511.8" y="-40.12" font-family="Times,serif" font-size="10.00">Activity B</text>
</g>
<!-- p_4&#45;&gt;92185044&#45;da3b&#45;4e77&#45;8db4&#45;5a504f70bb7b -->
<g id="edge7" class="edge">
<title>p_4&#45;&gt;92185044&#45;da3b&#45;4e77&#45;8db4&#45;5a504f70bb7b</title>
<path fill="none" stroke="black" d="M436.4,-44C445.4,-44 454.95,-44 464.09,-44"/>
<polygon fill="black" stroke="black" points="463.88,-47.5 473.88,-44 463.88,-40.5 463.88,-47.5"/>
<text xml:space="preserve" text-anchor="middle" x="455.93" y="-46.15" font-family="Times,serif" font-size="8.00">x</text>
</g>
<!-- p_3 -->
<g id="node3" class="node">
<title>p_3</title>
<ellipse fill="none" stroke="black" cx="154.95" cy="-44" rx="43.2" ry="43.2"/>
<text xml:space="preserve" text-anchor="middle" x="154.95" y="-45.75" font-family="Times,serif" font-size="10.00">p_3</text>
<text xml:space="preserve" text-anchor="middle" x="154.95" y="-34.5" font-family="Times,serif" font-size="10.00">PartyA</text>
</g>
<!-- 3cfec8f4&#45;dcbc&#45;472f&#45;808d&#45;b6da47bdec8b -->
<g id="node7" class="node">
<title>3cfec8f4&#45;dcbc&#45;472f&#45;808d&#45;b6da47bdec8b</title>
<polygon fill="none" stroke="black" points="309.9,-90 237.9,-90 237.9,-54 309.9,-54 309.9,-90"/>
<text xml:space="preserve" text-anchor="middle" x="273.9" y="-68.12" font-family="Times,serif" font-size="10.00">Activity D</text>
</g>
<!-- p_3&#45;&gt;3cfec8f4&#45;dcbc&#45;472f&#45;808d&#45;b6da47bdec8b -->
<g id="edge3" class="edge">
<title>p_3&#45;&gt;3cfec8f4&#45;dcbc&#45;472f&#45;808d&#45;b6da47bdec8b</title>
<path fill="none" stroke="black" d="M197.18,-53.87C206.64,-56.14 216.75,-58.56 226.41,-60.87"/>
<polygon fill="black" stroke="black" points="225.46,-64.24 236,-63.16 227.09,-57.43 225.46,-64.24"/>
<text xml:space="preserve" text-anchor="middle" x="218.03" y="-60.99" font-family="Times,serif" font-size="8.00">x</text>
</g>
<!-- 635861cc&#45;b347&#45;470f&#45;8047&#45;2567cfa24d54 -->
<g id="node9" class="node">
<title>635861cc&#45;b347&#45;470f&#45;8047&#45;2567cfa24d54</title>
<polygon fill="none" stroke="black" points="309.9,-36 237.9,-36 237.9,0 309.9,0 309.9,-36"/>
<text xml:space="preserve" text-anchor="middle" x="273.9" y="-14.12" font-family="Times,serif" font-size="10.00">Activity C</text>
</g>
<!-- p_3&#45;&gt;635861cc&#45;b347&#45;470f&#45;8047&#45;2567cfa24d54 -->
<g id="edge2" class="edge">
<title>p_3&#45;&gt;635861cc&#45;b347&#45;470f&#45;8047&#45;2567cfa24d54</title>
<path fill="none" stroke="black" d="M197.51,-34.76C206.95,-32.66 217.03,-30.42 226.65,-28.28"/>
<polygon fill="black" stroke="black" points="227.18,-31.75 236.18,-26.16 225.66,-24.92 227.18,-31.75"/>
<text xml:space="preserve" text-anchor="middle" x="218.03" y="-32.37" font-family="Times,serif" font-size="8.00">x</text>
</g>
<!-- p_6 -->
<g id="node4" class="node">
<title>p_6</title>
<ellipse fill="none" stroke="black" cx="868.65" cy="-44" rx="43.2" ry="43.2"/>
<text xml:space="preserve" text-anchor="middle" x="868.65" y="-45.75" font-family="Times,serif" font-size="10.00">p_6</text>
<text xml:space="preserve" text-anchor="middle" x="868.65" y="-34.5" font-family="Times,serif" font-size="10.00">PartyA</text>
</g>
<!-- 85c701f1&#45;5aa6&#45;40c5&#45;8d2f&#45;fe48c65553ab -->
<g id="node10" class="node">
<title>85c701f1&#45;5aa6&#45;40c5&#45;8d2f&#45;fe48c65553ab</title>
<polygon fill="none" stroke="black" points="1023.6,-62 951.6,-62 951.6,-26 1023.6,-26 1023.6,-62"/>
<text xml:space="preserve" text-anchor="middle" x="987.6" y="-40.12" font-family="Times,serif" font-size="10.00">Activity F</text>
</g>
<!-- p_6&#45;&gt;85c701f1&#45;5aa6&#45;40c5&#45;8d2f&#45;fe48c65553ab -->
<g id="edge1" class="edge">
<title>p_6&#45;&gt;85c701f1&#45;5aa6&#45;40c5&#45;8d2f&#45;fe48c65553ab</title>
<path fill="none" stroke="black" d="M912.2,-44C921.2,-44 930.75,-44 939.89,-44"/>
<polygon fill="black" stroke="black" points="939.68,-47.5 949.68,-44 939.68,-40.5 939.68,-47.5"/>
<text xml:space="preserve" text-anchor="middle" x="931.73" y="-46.15" font-family="Times,serif" font-size="8.00">x</text>
</g>
<!-- e8c22966&#45;ca2b&#45;4ad7&#45;b8e2&#45;680f2b484393 -->
<g id="node5" class="node">
<title>e8c22966&#45;ca2b&#45;4ad7&#45;b8e2&#45;680f2b484393</title>
<polygon fill="none" stroke="black" points="72,-62 0,-62 0,-26 72,-26 72,-62"/>
<text xml:space="preserve" text-anchor="middle" x="36" y="-40.12" font-family="Times,serif" font-size="10.00">Activity A</text>
</g>
<!-- e8c22966&#45;ca2b&#45;4ad7&#45;b8e2&#45;680f2b484393&#45;&gt;p_3 -->
<g id="edge4" class="edge">
<title>e8c22966&#45;ca2b&#45;4ad7&#45;b8e2&#45;680f2b484393&#45;&gt;p_3</title>
<path fill="none" stroke="black" d="M72.41,-44C81.2,-44 90.82,-44 100.28,-44"/>
<polygon fill="black" stroke="black" points="100.15,-47.5 110.15,-44 100.15,-40.5 100.15,-47.5"/>
<text xml:space="preserve" text-anchor="middle" x="91.88" y="-46.15" font-family="Times,serif" font-size="8.00">x</text>
</g>
<!-- 92185044&#45;da3b&#45;4e77&#45;8db4&#45;5a504f70bb7b&#45;&gt;p_5 -->
<g id="edge8" class="edge">
<title>92185044&#45;da3b&#45;4e77&#45;8db4&#45;5a504f70bb7b&#45;&gt;p_5</title>
<path fill="none" stroke="black" d="M548.21,-44C557,-44 566.62,-44 576.08,-44"/>
<polygon fill="black" stroke="black" points="575.95,-47.5 585.95,-44 575.95,-40.5 575.95,-47.5"/>
<text xml:space="preserve" text-anchor="middle" x="567.68" y="-46.15" font-family="Times,serif" font-size="8.00">x</text>
</g>
<!-- 3cfec8f4&#45;dcbc&#45;472f&#45;808d&#45;b6da47bdec8b&#45;&gt;p_4 -->
<g id="edge5" class="edge">
<title>3cfec8f4&#45;dcbc&#45;472f&#45;808d&#45;b6da47bdec8b&#45;&gt;p_4</title>
<path fill="none" stroke="black" d="M310.31,-63.52C319.49,-61.32 329.58,-58.91 339.43,-56.55"/>
<polygon fill="black" stroke="black" points="340.02,-60.01 348.93,-54.28 338.39,-53.2 340.02,-60.01"/>
<text xml:space="preserve" text-anchor="middle" x="329.78" y="-60.99" font-family="Times,serif" font-size="8.00">x</text>
</g>
<!-- ce70e289&#45;3fec&#45;4e0d&#45;9741&#45;2efd71819e8d&#45;&gt;p_6 -->
<g id="edge10" class="edge">
<title>ce70e289&#45;3fec&#45;4e0d&#45;9741&#45;2efd71819e8d&#45;&gt;p_6</title>
<path fill="none" stroke="black" d="M786.11,-44C794.9,-44 804.52,-44 813.98,-44"/>
<polygon fill="black" stroke="black" points="813.85,-47.5 823.85,-44 813.85,-40.5 813.85,-47.5"/>
<text xml:space="preserve" text-anchor="middle" x="805.58" y="-46.15" font-family="Times,serif" font-size="8.00">x</text>
</g>
<!-- 635861cc&#45;b347&#45;470f&#45;8047&#45;2567cfa24d54&#45;&gt;p_4 -->
<g id="edge6" class="edge">
<title>635861cc&#45;b347&#45;470f&#45;8047&#45;2567cfa24d54&#45;&gt;p_4</title>
<path fill="none" stroke="black" d="M310.31,-25.87C319.49,-27.91 329.58,-30.16 339.43,-32.35"/>
<polygon fill="black" stroke="black" points="338.4,-35.7 348.92,-34.46 339.92,-28.87 338.4,-35.7"/>
<text xml:space="preserve" text-anchor="middle" x="329.78" y="-32.37" font-family="Times,serif" font-size="8.00">x</text>
</g>
</g>
</svg>
