<?xml version="1.0" encoding="UTF-8" standalone="no"?>
<!DOCTYPE svg PUBLIC "-//W3C//DTD SVG 1.1//EN"
 "http://www.w3.org/Graphics/SVG/1.1/DTD/svg11.dtd">
<!-- Generated by graphviz version 13.1.0 (20250701.0955)
 -->
<!-- Pages: 1 -->
<svg width="1590pt" height="517pt"
 viewBox="0.00 0.00 1590.00 517.00" xmlns="http://www.w3.org/2000/svg" xmlns:xlink="http://www.w3.org/1999/xlink">
<g id="graph0" class="graph" transform="scale(1 1) rotate(0) translate(4 512.95)">
<polygon fill="white" stroke="none" points="-4,4 -4,-512.95 1586.05,-512.95 1586.05,4 -4,4"/>
<text xml:space="preserve" text-anchor="middle" x="791.03" y="-489.75" font-family="Times,serif" font-size="16.00">Petri Net for q &#45; </text>
<!-- p_24 -->
<g id="node1" class="node">
<title>p_24</title>
<ellipse fill="none" stroke="black" cx="587.25" cy="-439" rx="43.2" ry="43.2"/>
<text xml:space="preserve" text-anchor="middle" x="587.25" y="-440.75" font-family="Times,serif" font-size="10.00">p_24</text>
<text xml:space="preserve" text-anchor="middle" x="587.25" y="-429.5" font-family="Times,serif" font-size="10.00">q</text>
</g>
<!-- 961c2c07&#45;3c10&#45;4c8c&#45;8431&#45;1315653344d0 -->
<g id="node20" class="node">
<title>961c2c07&#45;3c10&#45;4c8c&#45;8431&#45;1315653344d0</title>
<polygon fill="none" stroke="black" points="742.2,-458 670.2,-458 670.2,-422 742.2,-422 742.2,-458"/>
<text xml:space="preserve" text-anchor="middle" x="706.2" y="-436.12" font-family="Times,serif" font-size="10.00">a!_2</text>
</g>
<!-- p_24&#45;&gt;961c2c07&#45;3c10&#45;4c8c&#45;8431&#45;1315653344d0 -->
<g id="edge26" class="edge">
<title>p_24&#45;&gt;961c2c07&#45;3c10&#45;4c8c&#45;8431&#45;1315653344d0</title>
<path fill="none" stroke="black" d="M630.8,-439.36C639.8,-439.44 649.35,-439.52 658.49,-439.6"/>
<polygon fill="black" stroke="black" points="658.25,-443.1 668.28,-439.68 658.31,-436.1 658.25,-443.1"/>
<text xml:space="preserve" text-anchor="middle" x="650.33" y="-441.68" font-family="Times,serif" font-size="8.00">q</text>
</g>
<!-- p_11 -->
<g id="node2" class="node">
<title>p_11</title>
<ellipse fill="none" stroke="black" cx="349.35" cy="-127" rx="43.2" ry="43.2"/>
<text xml:space="preserve" text-anchor="middle" x="349.35" y="-128.75" font-family="Times,serif" font-size="10.00">p_11</text>
<text xml:space="preserve" text-anchor="middle" x="349.35" y="-117.5" font-family="Times,serif" font-size="10.00">q</text>
</g>
<!-- fba2b1ef&#45;b662&#45;4f7d&#45;8a88&#45;9803e20dc7b9 -->
<g id="node19" class="node">
<title>fba2b1ef&#45;b662&#45;4f7d&#45;8a88&#45;9803e20dc7b9</title>
<polygon fill="none" stroke="black" points="504.3,-145 432.3,-145 432.3,-109 504.3,-109 504.3,-145"/>
<text xml:space="preserve" text-anchor="middle" x="468.3" y="-123.12" font-family="Times,serif" font-size="10.00">q7</text>
</g>
<!-- p_11&#45;&gt;fba2b1ef&#45;b662&#45;4f7d&#45;8a88&#45;9803e20dc7b9 -->
<g id="edge1" class="edge">
<title>p_11&#45;&gt;fba2b1ef&#45;b662&#45;4f7d&#45;8a88&#45;9803e20dc7b9</title>
<path fill="none" stroke="black" d="M392.9,-127C401.9,-127 411.45,-127 420.59,-127"/>
<polygon fill="black" stroke="black" points="420.38,-130.5 430.38,-127 420.38,-123.5 420.38,-130.5"/>
<text xml:space="preserve" text-anchor="middle" x="412.43" y="-129.15" font-family="Times,serif" font-size="8.00">q</text>
</g>
<!-- p_16 -->
<g id="node3" class="node">
<title>p_16</title>
<ellipse fill="none" stroke="black" cx="825.15" cy="-323" rx="43.2" ry="43.2"/>
<text xml:space="preserve" text-anchor="middle" x="825.15" y="-324.75" font-family="Times,serif" font-size="10.00">p_16</text>
<text xml:space="preserve" text-anchor="middle" x="825.15" y="-313.5" font-family="Times,serif" font-size="10.00">q</text>
</g>
<!-- 5892cfb1&#45;f395&#45;47c8&#45;a13a&#45;b0922ab07a5f -->
<g id="node30" class="node">
<title>5892cfb1&#45;f395&#45;47c8&#45;a13a&#45;b0922ab07a5f</title>
<polygon fill="none" stroke="black" points="980.1,-308 908.1,-308 908.1,-272 980.1,-272 980.1,-308"/>
<text xml:space="preserve" text-anchor="middle" x="944.1" y="-286.12" font-family="Times,serif" font-size="10.00">q6</text>
</g>
<!-- p_16&#45;&gt;5892cfb1&#45;f395&#45;47c8&#45;a13a&#45;b0922ab07a5f -->
<g id="edge18" class="edge">
<title>p_16&#45;&gt;5892cfb1&#45;f395&#45;47c8&#45;a13a&#45;b0922ab07a5f</title>
<path fill="none" stroke="black" d="M867.05,-311.46C876.72,-308.73 887.09,-305.8 896.98,-303.02"/>
<polygon fill="black" stroke="black" points="897.73,-306.44 906.4,-300.36 895.83,-299.7 897.73,-306.44"/>
<text xml:space="preserve" text-anchor="middle" x="888.23" y="-307.66" font-family="Times,serif" font-size="8.00">q</text>
</g>
<!-- p_5 -->
<g id="node4" class="node">
<title>p_5</title>
<ellipse fill="none" stroke="black" cx="587.25" cy="-231" rx="43.2" ry="43.2"/>
<text xml:space="preserve" text-anchor="middle" x="587.25" y="-232.75" font-family="Times,serif" font-size="10.00">p_5</text>
<text xml:space="preserve" text-anchor="middle" x="587.25" y="-221.5" font-family="Times,serif" font-size="10.00">q</text>
</g>
<!-- 1173e967&#45;e9bb&#45;438d&#45;bddb&#45;9e0d5f76c2ba -->
<g id="node24" class="node">
<title>1173e967&#45;e9bb&#45;438d&#45;bddb&#45;9e0d5f76c2ba</title>
<polygon fill="none" stroke="black" points="742.2,-212 670.2,-212 670.2,-176 742.2,-176 742.2,-212"/>
<text xml:space="preserve" text-anchor="middle" x="706.2" y="-190.12" font-family="Times,serif" font-size="10.00">q3</text>
</g>
<!-- p_5&#45;&gt;1173e967&#45;e9bb&#45;438d&#45;bddb&#45;9e0d5f76c2ba -->
<g id="edge25" class="edge">
<title>p_5&#45;&gt;1173e967&#45;e9bb&#45;438d&#45;bddb&#45;9e0d5f76c2ba</title>
<path fill="none" stroke="black" d="M628.83,-218.16C638.51,-215.1 648.91,-211.81 658.84,-208.67"/>
<polygon fill="black" stroke="black" points="659.84,-212.02 668.32,-205.67 657.73,-205.35 659.84,-212.02"/>
<text xml:space="preserve" text-anchor="middle" x="650.33" y="-213.54" font-family="Times,serif" font-size="8.00">q</text>
</g>
<!-- p_8 -->
<g id="node5" class="node">
<title>p_8</title>
<ellipse fill="none" stroke="black" cx="825.15" cy="-127" rx="43.2" ry="43.2"/>
<text xml:space="preserve" text-anchor="middle" x="825.15" y="-128.75" font-family="Times,serif" font-size="10.00">p_8</text>
<text xml:space="preserve" text-anchor="middle" x="825.15" y="-117.5" font-family="Times,serif" font-size="10.00">q</text>
</g>
<!-- f3222bdc&#45;3629&#45;44bd&#45;9a50&#45;c300c63709b0 -->
<g id="node26" class="node">
<title>f3222bdc&#45;3629&#45;44bd&#45;9a50&#45;c300c63709b0</title>
<polygon fill="none" stroke="black" points="980.1,-98 908.1,-98 908.1,-62 980.1,-62 980.1,-98"/>
<text xml:space="preserve" text-anchor="middle" x="944.1" y="-76.12" font-family="Times,serif" font-size="10.00">q5</text>
</g>
<!-- p_8&#45;&gt;f3222bdc&#45;3629&#45;44bd&#45;9a50&#45;c300c63709b0 -->
<g id="edge14" class="edge">
<title>p_8&#45;&gt;f3222bdc&#45;3629&#45;44bd&#45;9a50&#45;c300c63709b0</title>
<path fill="none" stroke="black" d="M865.74,-111.09C875.88,-107.02 886.85,-102.6 897.27,-98.42"/>
<polygon fill="black" stroke="black" points="898.48,-101.7 906.46,-94.73 895.87,-95.21 898.48,-101.7"/>
<text xml:space="preserve" text-anchor="middle" x="888.23" y="-104.24" font-family="Times,serif" font-size="8.00">q</text>
</g>
<!-- p_12 -->
<g id="node6" class="node">
<title>p_12</title>
<ellipse fill="none" stroke="black" cx="587.25" cy="-127" rx="43.2" ry="43.2"/>
<text xml:space="preserve" text-anchor="middle" x="587.25" y="-128.75" font-family="Times,serif" font-size="10.00">p_12</text>
<text xml:space="preserve" text-anchor="middle" x="587.25" y="-117.5" font-family="Times,serif" font-size="10.00">q</text>
</g>
<!-- 9a6701af&#45;5776&#45;4fdc&#45;b6df&#45;7d14d4cf15cc -->
<g id="node27" class="node">
<title>9a6701af&#45;5776&#45;4fdc&#45;b6df&#45;7d14d4cf15cc</title>
<polygon fill="none" stroke="black" points="742.2,-145 670.2,-145 670.2,-109 742.2,-109 742.2,-145"/>
<text xml:space="preserve" text-anchor="middle" x="706.2" y="-123.12" font-family="Times,serif" font-size="10.00">a!_1</text>
</g>
<!-- p_12&#45;&gt;9a6701af&#45;5776&#45;4fdc&#45;b6df&#45;7d14d4cf15cc -->
<g id="edge21" class="edge">
<title>p_12&#45;&gt;9a6701af&#45;5776&#45;4fdc&#45;b6df&#45;7d14d4cf15cc</title>
<path fill="none" stroke="black" d="M630.8,-127C639.8,-127 649.35,-127 658.49,-127"/>
<polygon fill="black" stroke="black" points="658.28,-130.5 668.28,-127 658.28,-123.5 658.28,-130.5"/>
<text xml:space="preserve" text-anchor="middle" x="650.33" y="-129.15" font-family="Times,serif" font-size="8.00">q</text>
</g>
<!-- p_22 -->
<g id="node7" class="node">
<title>p_22</title>
<ellipse fill="none" stroke="black" cx="1538.85" cy="-383" rx="43.2" ry="43.2"/>
<text xml:space="preserve" text-anchor="middle" x="1538.85" y="-384.75" font-family="Times,serif" font-size="10.00">p_22</text>
<text xml:space="preserve" text-anchor="middle" x="1538.85" y="-373.5" font-family="Times,serif" font-size="10.00">q</text>
</g>
<!-- p_22&#45;&gt;961c2c07&#45;3c10&#45;4c8c&#45;8431&#45;1315653344d0 -->
<g id="edge27" class="edge">
<title>p_22&#45;&gt;961c2c07&#45;3c10&#45;4c8c&#45;8431&#45;1315653344d0</title>
<path fill="none" stroke="black" d="M1507.43,-413.06C1485.33,-431.66 1453.67,-452 1420.9,-452 824.15,-452 824.15,-452 824.15,-452 800.99,-452 775.38,-449.64 754.04,-447.02"/>
<polygon fill="black" stroke="black" points="754.54,-443.55 744.17,-445.74 753.64,-450.49 754.54,-443.55"/>
<text xml:space="preserve" text-anchor="middle" x="1126.13" y="-454.15" font-family="Times,serif" font-size="8.00">q</text>
</g>
<!-- p_23 -->
<g id="node8" class="node">
<title>p_23</title>
<ellipse fill="none" stroke="black" cx="1300.95" cy="-323" rx="43.2" ry="43.2"/>
<text xml:space="preserve" text-anchor="middle" x="1300.95" y="-324.75" font-family="Times,serif" font-size="10.00">p_23</text>
<text xml:space="preserve" text-anchor="middle" x="1300.95" y="-313.5" font-family="Times,serif" font-size="10.00">q</text>
</g>
<!-- 5500e897&#45;3811&#45;434a&#45;b6ca&#45;1e50d335ecdc -->
<g id="node31" class="node">
<title>5500e897&#45;3811&#45;434a&#45;b6ca&#45;1e50d335ecdc</title>
<polygon fill="none" stroke="black" points="1455.9,-388 1383.9,-388 1383.9,-352 1455.9,-352 1455.9,-388"/>
<text xml:space="preserve" text-anchor="middle" x="1419.9" y="-366.12" font-family="Times,serif" font-size="10.00">q9</text>
</g>
<!-- p_23&#45;&gt;5500e897&#45;3811&#45;434a&#45;b6ca&#45;1e50d335ecdc -->
<g id="edge31" class="edge">
<title>p_23&#45;&gt;5500e897&#45;3811&#45;434a&#45;b6ca&#45;1e50d335ecdc</title>
<path fill="none" stroke="black" d="M1341.54,-338.91C1351.68,-342.98 1362.65,-347.4 1373.07,-351.58"/>
<polygon fill="black" stroke="black" points="1371.67,-354.79 1382.26,-355.27 1374.28,-348.3 1371.67,-354.79"/>
<text xml:space="preserve" text-anchor="middle" x="1364.03" y="-350.06" font-family="Times,serif" font-size="8.00">q</text>
</g>
<!-- p_13 -->
<g id="node9" class="node">
<title>p_13</title>
<ellipse fill="none" stroke="black" cx="587.25" cy="-335" rx="43.2" ry="43.2"/>
<text xml:space="preserve" text-anchor="middle" x="587.25" y="-336.75" font-family="Times,serif" font-size="10.00">p_13</text>
<text xml:space="preserve" text-anchor="middle" x="587.25" y="-325.5" font-family="Times,serif" font-size="10.00">q</text>
</g>
<!-- 9d9413d8&#45;3fd2&#45;4a49&#45;a068&#45;b4c84c81ce93 -->
<g id="node29" class="node">
<title>9d9413d8&#45;3fd2&#45;4a49&#45;a068&#45;b4c84c81ce93</title>
<polygon fill="none" stroke="black" points="742.2,-346 670.2,-346 670.2,-310 742.2,-310 742.2,-346"/>
<text xml:space="preserve" text-anchor="middle" x="706.2" y="-324.12" font-family="Times,serif" font-size="10.00">q4</text>
</g>
<!-- p_13&#45;&gt;9d9413d8&#45;3fd2&#45;4a49&#45;a068&#45;b4c84c81ce93 -->
<g id="edge17" class="edge">
<title>p_13&#45;&gt;9d9413d8&#45;3fd2&#45;4a49&#45;a068&#45;b4c84c81ce93</title>
<path fill="none" stroke="black" d="M630.8,-332.45C639.8,-331.91 649.35,-331.34 658.49,-330.8"/>
<polygon fill="black" stroke="black" points="658.51,-334.3 668.28,-330.21 658.09,-327.31 658.51,-334.3"/>
<text xml:space="preserve" text-anchor="middle" x="650.33" y="-333.44" font-family="Times,serif" font-size="8.00">q</text>
</g>
<!-- p_17 -->
<g id="node10" class="node">
<title>p_17</title>
<ellipse fill="none" stroke="black" cx="1063.05" cy="-248" rx="43.2" ry="43.2"/>
<text xml:space="preserve" text-anchor="middle" x="1063.05" y="-249.75" font-family="Times,serif" font-size="10.00">p_17</text>
<text xml:space="preserve" text-anchor="middle" x="1063.05" y="-238.5" font-family="Times,serif" font-size="10.00">q</text>
</g>
<!-- 412a7945&#45;2b31&#45;4467&#45;9be8&#45;6421cf804077 -->
<g id="node15" class="node">
<title>412a7945&#45;2b31&#45;4467&#45;9be8&#45;6421cf804077</title>
<polygon fill="none" stroke="black" points="1218,-266 1146,-266 1146,-230 1218,-230 1218,-266"/>
<text xml:space="preserve" text-anchor="middle" x="1182" y="-244.12" font-family="Times,serif" font-size="10.00">b?_2</text>
</g>
<!-- p_17&#45;&gt;412a7945&#45;2b31&#45;4467&#45;9be8&#45;6421cf804077 -->
<g id="edge29" class="edge">
<title>p_17&#45;&gt;412a7945&#45;2b31&#45;4467&#45;9be8&#45;6421cf804077</title>
<path fill="none" stroke="black" d="M1106.6,-248C1115.6,-248 1125.15,-248 1134.29,-248"/>
<polygon fill="black" stroke="black" points="1134.08,-251.5 1144.08,-248 1134.08,-244.5 1134.08,-251.5"/>
<text xml:space="preserve" text-anchor="middle" x="1126.13" y="-250.15" font-family="Times,serif" font-size="8.00">q</text>
</g>
<!-- 4dbf4375&#45;8c91&#45;45b0&#45;91e7&#45;877cb482b138 -->
<g id="node22" class="node">
<title>4dbf4375&#45;8c91&#45;45b0&#45;91e7&#45;877cb482b138</title>
<polygon fill="none" stroke="black" points="1218,-191 1146,-191 1146,-155 1218,-155 1218,-191"/>
<text xml:space="preserve" text-anchor="middle" x="1182" y="-169.12" font-family="Times,serif" font-size="10.00">c?_2</text>
</g>
<!-- p_17&#45;&gt;4dbf4375&#45;8c91&#45;45b0&#45;91e7&#45;877cb482b138 -->
<g id="edge10" class="edge">
<title>p_17&#45;&gt;4dbf4375&#45;8c91&#45;45b0&#45;91e7&#45;877cb482b138</title>
<path fill="none" stroke="black" d="M1100.09,-224.89C1113.59,-216.23 1128.98,-206.36 1142.68,-197.58"/>
<polygon fill="black" stroke="black" points="1144.5,-200.56 1151.03,-192.22 1140.72,-194.67 1144.5,-200.56"/>
<text xml:space="preserve" text-anchor="middle" x="1126.13" y="-210.4" font-family="Times,serif" font-size="8.00">q</text>
</g>
<!-- p_3 -->
<g id="node11" class="node">
<title>p_3</title>
<ellipse fill="none" stroke="black" cx="349.35" cy="-231" rx="43.2" ry="43.2"/>
<text xml:space="preserve" text-anchor="middle" x="349.35" y="-232.75" font-family="Times,serif" font-size="10.00">p_3</text>
<text xml:space="preserve" text-anchor="middle" x="349.35" y="-221.5" font-family="Times,serif" font-size="10.00">q</text>
</g>
<!-- 2b65ce13&#45;d0cd&#45;4599&#45;ac84&#45;c05ae49b994e -->
<g id="node17" class="node">
<title>2b65ce13&#45;d0cd&#45;4599&#45;ac84&#45;c05ae49b994e</title>
<polygon fill="none" stroke="black" points="504.3,-249 432.3,-249 432.3,-213 504.3,-213 504.3,-249"/>
<text xml:space="preserve" text-anchor="middle" x="468.3" y="-227.12" font-family="Times,serif" font-size="10.00">q1</text>
</g>
<!-- p_3&#45;&gt;2b65ce13&#45;d0cd&#45;4599&#45;ac84&#45;c05ae49b994e -->
<g id="edge23" class="edge">
<title>p_3&#45;&gt;2b65ce13&#45;d0cd&#45;4599&#45;ac84&#45;c05ae49b994e</title>
<path fill="none" stroke="black" d="M392.9,-231C401.9,-231 411.45,-231 420.59,-231"/>
<polygon fill="black" stroke="black" points="420.38,-234.5 430.38,-231 420.38,-227.5 420.38,-234.5"/>
<text xml:space="preserve" text-anchor="middle" x="412.43" y="-233.15" font-family="Times,serif" font-size="8.00">q</text>
</g>
<!-- 220fb127&#45;bba0&#45;451c&#45;b74b&#45;d9168bb6c6da -->
<g id="node23" class="node">
<title>220fb127&#45;bba0&#45;451c&#45;b74b&#45;d9168bb6c6da</title>
<polygon fill="none" stroke="black" points="504.3,-328 432.3,-328 432.3,-292 504.3,-292 504.3,-328"/>
<text xml:space="preserve" text-anchor="middle" x="468.3" y="-306.12" font-family="Times,serif" font-size="10.00">q2</text>
</g>
<!-- p_3&#45;&gt;220fb127&#45;bba0&#45;451c&#45;b74b&#45;d9168bb6c6da -->
<g id="edge11" class="edge">
<title>p_3&#45;&gt;220fb127&#45;bba0&#45;451c&#45;b74b&#45;d9168bb6c6da</title>
<path fill="none" stroke="black" d="M385.76,-254.92C399.96,-264.51 416.32,-275.56 430.65,-285.24"/>
<polygon fill="black" stroke="black" points="428.69,-288.14 438.93,-290.84 432.61,-282.34 428.69,-288.14"/>
<text xml:space="preserve" text-anchor="middle" x="412.43" y="-275.02" font-family="Times,serif" font-size="8.00">q</text>
</g>
<!-- p_4 -->
<g id="node12" class="node">
<title>p_4</title>
<ellipse fill="none" stroke="black" cx="1300.95" cy="-61" rx="43.2" ry="43.2"/>
<text xml:space="preserve" text-anchor="middle" x="1300.95" y="-62.75" font-family="Times,serif" font-size="10.00">p_4</text>
<text xml:space="preserve" text-anchor="middle" x="1300.95" y="-51.5" font-family="Times,serif" font-size="10.00">q</text>
</g>
<!-- tau_2 -->
<g id="node25" class="node">
<title>tau_2</title>
<polygon fill="black" stroke="black" points="1455.9,-79 1383.9,-79 1383.9,-43 1455.9,-43 1455.9,-79"/>
<text xml:space="preserve" text-anchor="middle" x="1419.9" y="-57.12" font-family="Times,serif" font-size="10.00">τ</text>
</g>
<!-- p_4&#45;&gt;tau_2 -->
<g id="edge5" class="edge">
<title>p_4&#45;&gt;tau_2</title>
<path fill="none" stroke="black" d="M1344.5,-61C1353.5,-61 1363.05,-61 1372.19,-61"/>
<polygon fill="black" stroke="black" points="1371.98,-64.5 1381.98,-61 1371.98,-57.5 1371.98,-64.5"/>
<text xml:space="preserve" text-anchor="middle" x="1364.03" y="-63.15" font-family="Times,serif" font-size="8.00">q</text>
</g>
<!-- p_9 -->
<g id="node13" class="node">
<title>p_9</title>
<ellipse fill="none" stroke="black" cx="43.2" cy="-56" rx="43.2" ry="43.2"/>
<text xml:space="preserve" text-anchor="middle" x="43.2" y="-57.75" font-family="Times,serif" font-size="10.00">p_9</text>
<text xml:space="preserve" text-anchor="middle" x="43.2" y="-46.5" font-family="Times,serif" font-size="10.00">q</text>
</g>
<!-- 5b49e42f&#45;accf&#45;4776&#45;be72&#45;0826930287c8 -->
<g id="node18" class="node">
<title>5b49e42f&#45;accf&#45;4776&#45;be72&#45;0826930287c8</title>
<polygon fill="none" stroke="black" points="198.15,-127 126.15,-127 126.15,-91 198.15,-91 198.15,-127"/>
<text xml:space="preserve" text-anchor="middle" x="162.15" y="-105.12" font-family="Times,serif" font-size="10.00">b?_1</text>
</g>
<!-- p_9&#45;&gt;5b49e42f&#45;accf&#45;4776&#45;be72&#45;0826930287c8 -->
<g id="edge4" class="edge">
<title>p_9&#45;&gt;5b49e42f&#45;accf&#45;4776&#45;be72&#45;0826930287c8</title>
<path fill="none" stroke="black" d="M83.14,-73.65C93.51,-78.35 104.8,-83.46 115.49,-88.31"/>
<polygon fill="black" stroke="black" points="113.99,-91.47 124.54,-92.41 116.88,-85.09 113.99,-91.47"/>
<text xml:space="preserve" text-anchor="middle" x="106.28" y="-86.24" font-family="Times,serif" font-size="8.00">q</text>
</g>
<!-- 17868697&#45;1049&#45;46c6&#45;8eb5&#45;1523686dcee0 -->
<g id="node28" class="node">
<title>17868697&#45;1049&#45;46c6&#45;8eb5&#45;1523686dcee0</title>
<polygon fill="none" stroke="black" points="288.15,-36 216.15,-36 216.15,0 288.15,0 288.15,-36"/>
<text xml:space="preserve" text-anchor="middle" x="252.15" y="-14.12" font-family="Times,serif" font-size="10.00">c?_1</text>
</g>
<!-- p_9&#45;&gt;17868697&#45;1049&#45;46c6&#45;8eb5&#45;1523686dcee0 -->
<g id="edge7" class="edge">
<title>p_9&#45;&gt;17868697&#45;1049&#45;46c6&#45;8eb5&#45;1523686dcee0</title>
<path fill="none" stroke="black" d="M83.2,-38.8C90.15,-36.26 97.41,-33.93 104.4,-32.25 137.21,-24.35 175.14,-20.81 204.23,-19.23"/>
<polygon fill="black" stroke="black" points="204.37,-22.73 214.19,-18.76 204.04,-15.73 204.37,-22.73"/>
<text xml:space="preserve" text-anchor="middle" x="106.28" y="-34.4" font-family="Times,serif" font-size="8.00">q</text>
</g>
<!-- p_21 -->
<g id="node14" class="node">
<title>p_21</title>
<ellipse fill="none" stroke="black" cx="1300.95" cy="-219" rx="43.2" ry="43.2"/>
<text xml:space="preserve" text-anchor="middle" x="1300.95" y="-220.75" font-family="Times,serif" font-size="10.00">p_21</text>
<text xml:space="preserve" text-anchor="middle" x="1300.95" y="-209.5" font-family="Times,serif" font-size="10.00">q</text>
</g>
<!-- 0c13f374&#45;9c90&#45;4c40&#45;a1e1&#45;4ed957e019e3 -->
<g id="node21" class="node">
<title>0c13f374&#45;9c90&#45;4c40&#45;a1e1&#45;4ed957e019e3</title>
<polygon fill="none" stroke="black" points="1455.9,-332 1383.9,-332 1383.9,-296 1455.9,-296 1455.9,-332"/>
<text xml:space="preserve" text-anchor="middle" x="1419.9" y="-310.12" font-family="Times,serif" font-size="10.00">q8</text>
</g>
<!-- p_21&#45;&gt;0c13f374&#45;9c90&#45;4c40&#45;a1e1&#45;4ed957e019e3 -->
<g id="edge13" class="edge">
<title>p_21&#45;&gt;0c13f374&#45;9c90&#45;4c40&#45;a1e1&#45;4ed957e019e3</title>
<path fill="none" stroke="black" d="M1335.15,-245.97C1351.67,-259.39 1371.53,-275.52 1387.76,-288.71"/>
<polygon fill="black" stroke="black" points="1385.22,-291.15 1395.19,-294.74 1389.63,-285.72 1385.22,-291.15"/>
<text xml:space="preserve" text-anchor="middle" x="1364.03" y="-271.5" font-family="Times,serif" font-size="8.00">q</text>
</g>
<!-- 412a7945&#45;2b31&#45;4467&#45;9be8&#45;6421cf804077&#45;&gt;p_23 -->
<g id="edge9" class="edge">
<title>412a7945&#45;2b31&#45;4467&#45;9be8&#45;6421cf804077&#45;&gt;p_23</title>
<path fill="none" stroke="black" d="M1211.61,-266.35C1224.59,-274.67 1240.25,-284.72 1254.77,-294.02"/>
<polygon fill="black" stroke="black" points="1252.51,-296.74 1262.82,-299.19 1256.29,-290.84 1252.51,-296.74"/>
<text xml:space="preserve" text-anchor="middle" x="1237.88" y="-285.4" font-family="Times,serif" font-size="8.00">q</text>
</g>
<!-- 412a7945&#45;2b31&#45;4467&#45;9be8&#45;6421cf804077&#45;&gt;p_21 -->
<g id="edge30" class="edge">
<title>412a7945&#45;2b31&#45;4467&#45;9be8&#45;6421cf804077&#45;&gt;p_21</title>
<path fill="none" stroke="black" d="M1218.41,-239.22C1227.59,-236.94 1237.68,-234.44 1247.53,-232"/>
<polygon fill="black" stroke="black" points="1248.17,-235.45 1257.03,-229.64 1246.48,-228.65 1248.17,-235.45"/>
<text xml:space="preserve" text-anchor="middle" x="1237.88" y="-236.52" font-family="Times,serif" font-size="8.00">q</text>
</g>
<!-- tau_1 -->
<g id="node16" class="node">
<title>tau_1</title>
<polygon fill="black" stroke="black" points="198.15,-249 126.15,-249 126.15,-213 198.15,-213 198.15,-249"/>
<text xml:space="preserve" text-anchor="middle" x="162.15" y="-227.12" font-family="Times,serif" font-size="10.00">τ</text>
</g>
<!-- tau_1&#45;&gt;p_3 -->
<g id="edge22" class="edge">
<title>tau_1&#45;&gt;p_3</title>
<path fill="none" stroke="black" d="M198.42,-231C225.5,-231 263.37,-231 294.27,-231"/>
<polygon fill="black" stroke="black" points="294.22,-234.5 304.22,-231 294.22,-227.5 294.22,-234.5"/>
<text xml:space="preserve" text-anchor="middle" x="252.15" y="-233.15" font-family="Times,serif" font-size="8.00">q</text>
</g>
<!-- 2b65ce13&#45;d0cd&#45;4599&#45;ac84&#45;c05ae49b994e&#45;&gt;p_5 -->
<g id="edge24" class="edge">
<title>2b65ce13&#45;d0cd&#45;4599&#45;ac84&#45;c05ae49b994e&#45;&gt;p_5</title>
<path fill="none" stroke="black" d="M504.71,-231C513.5,-231 523.12,-231 532.58,-231"/>
<polygon fill="black" stroke="black" points="532.45,-234.5 542.45,-231 532.45,-227.5 532.45,-234.5"/>
<text xml:space="preserve" text-anchor="middle" x="524.18" y="-233.15" font-family="Times,serif" font-size="8.00">q</text>
</g>
<!-- 5b49e42f&#45;accf&#45;4776&#45;be72&#45;0826930287c8&#45;&gt;p_11 -->
<g id="edge3" class="edge">
<title>5b49e42f&#45;accf&#45;4776&#45;be72&#45;0826930287c8&#45;&gt;p_11</title>
<path fill="none" stroke="black" d="M198.42,-112.43C225.71,-115.08 263.96,-118.8 295,-121.81"/>
<polygon fill="black" stroke="black" points="294.27,-125.26 304.56,-122.74 294.95,-118.29 294.27,-125.26"/>
<text xml:space="preserve" text-anchor="middle" x="252.15" y="-122.81" font-family="Times,serif" font-size="8.00">q</text>
</g>
<!-- fba2b1ef&#45;b662&#45;4f7d&#45;8a88&#45;9803e20dc7b9&#45;&gt;p_12 -->
<g id="edge2" class="edge">
<title>fba2b1ef&#45;b662&#45;4f7d&#45;8a88&#45;9803e20dc7b9&#45;&gt;p_12</title>
<path fill="none" stroke="black" d="M504.71,-127C513.5,-127 523.12,-127 532.58,-127"/>
<polygon fill="black" stroke="black" points="532.45,-130.5 542.45,-127 532.45,-123.5 532.45,-130.5"/>
<text xml:space="preserve" text-anchor="middle" x="524.18" y="-129.15" font-family="Times,serif" font-size="8.00">q</text>
</g>
<!-- 961c2c07&#45;3c10&#45;4c8c&#45;8431&#45;1315653344d0&#45;&gt;p_16 -->
<g id="edge16" class="edge">
<title>961c2c07&#45;3c10&#45;4c8c&#45;8431&#45;1315653344d0&#45;&gt;p_16</title>
<path fill="none" stroke="black" d="M725.47,-421.72C741.69,-405.49 765.91,-381.26 786.3,-360.87"/>
<polygon fill="black" stroke="black" points="788.52,-363.6 793.11,-354.05 783.57,-358.65 788.52,-363.6"/>
<text xml:space="preserve" text-anchor="middle" x="762.08" y="-387.16" font-family="Times,serif" font-size="8.00">q</text>
</g>
<!-- 0c13f374&#45;9c90&#45;4c40&#45;a1e1&#45;4ed957e019e3&#45;&gt;p_22 -->
<g id="edge15" class="edge">
<title>0c13f374&#45;9c90&#45;4c40&#45;a1e1&#45;4ed957e019e3&#45;&gt;p_22</title>
<path fill="none" stroke="black" d="M1452.24,-332.49C1464.21,-339.55 1478.13,-347.76 1491.22,-355.49"/>
<polygon fill="black" stroke="black" points="1489.33,-358.44 1499.72,-360.5 1492.89,-352.41 1489.33,-358.44"/>
<text xml:space="preserve" text-anchor="middle" x="1475.78" y="-348.58" font-family="Times,serif" font-size="8.00">q</text>
</g>
<!-- 4dbf4375&#45;8c91&#45;45b0&#45;91e7&#45;877cb482b138&#45;&gt;p_4 -->
<g id="edge19" class="edge">
<title>4dbf4375&#45;8c91&#45;45b0&#45;91e7&#45;877cb482b138&#45;&gt;p_4</title>
<path fill="none" stroke="black" d="M1202.31,-154.51C1218.21,-139.28 1241.25,-117.22 1260.95,-98.35"/>
<polygon fill="black" stroke="black" points="1263.27,-100.97 1268.07,-91.53 1258.43,-95.92 1263.27,-100.97"/>
<text xml:space="preserve" text-anchor="middle" x="1237.88" y="-122.51" font-family="Times,serif" font-size="8.00">q</text>
</g>
<!-- 220fb127&#45;bba0&#45;451c&#45;b74b&#45;d9168bb6c6da&#45;&gt;p_13 -->
<g id="edge12" class="edge">
<title>220fb127&#45;bba0&#45;451c&#45;b74b&#45;d9168bb6c6da&#45;&gt;p_13</title>
<path fill="none" stroke="black" d="M504.71,-317.57C513.89,-319.53 523.98,-321.69 533.83,-323.79"/>
<polygon fill="black" stroke="black" points="532.81,-327.15 543.32,-325.82 534.27,-320.31 532.81,-327.15"/>
<text xml:space="preserve" text-anchor="middle" x="524.18" y="-323.9" font-family="Times,serif" font-size="8.00">q</text>
</g>
<!-- 1173e967&#45;e9bb&#45;438d&#45;bddb&#45;9e0d5f76c2ba&#45;&gt;p_8 -->
<g id="edge34" class="edge">
<title>1173e967&#45;e9bb&#45;438d&#45;bddb&#45;9e0d5f76c2ba&#45;&gt;p_8</title>
<path fill="none" stroke="black" d="M739.47,-175.51C751.1,-168.85 764.47,-161.19 777.1,-153.95"/>
<polygon fill="black" stroke="black" points="778.78,-157.03 785.72,-149.02 775.3,-150.95 778.78,-157.03"/>
<text xml:space="preserve" text-anchor="middle" x="762.08" y="-164.66" font-family="Times,serif" font-size="8.00">q</text>
</g>
<!-- f3222bdc&#45;3629&#45;44bd&#45;9a50&#45;c300c63709b0&#45;&gt;p_9 -->
<g id="edge20" class="edge">
<title>f3222bdc&#45;3629&#45;44bd&#45;9a50&#45;c300c63709b0&#45;&gt;p_9</title>
<path fill="none" stroke="black" d="M907.66,-68.84C884.66,-62.58 853.92,-56 826.15,-56 161.15,-56 161.15,-56 161.15,-56 140.53,-56 117.86,-56 98.02,-56"/>
<polygon fill="black" stroke="black" points="98.21,-52.5 88.21,-56 98.21,-59.5 98.21,-52.5"/>
<text xml:space="preserve" text-anchor="middle" x="524.18" y="-58.15" font-family="Times,serif" font-size="8.00">q</text>
</g>
<!-- 9a6701af&#45;5776&#45;4fdc&#45;b6df&#45;7d14d4cf15cc&#45;&gt;p_8 -->
<g id="edge6" class="edge">
<title>9a6701af&#45;5776&#45;4fdc&#45;b6df&#45;7d14d4cf15cc&#45;&gt;p_8</title>
<path fill="none" stroke="black" d="M742.61,-127C751.4,-127 761.02,-127 770.48,-127"/>
<polygon fill="black" stroke="black" points="770.35,-130.5 780.35,-127 770.35,-123.5 770.35,-130.5"/>
<text xml:space="preserve" text-anchor="middle" x="762.08" y="-129.15" font-family="Times,serif" font-size="8.00">q</text>
</g>
<!-- 17868697&#45;1049&#45;46c6&#45;8eb5&#45;1523686dcee0&#45;&gt;p_4 -->
<g id="edge8" class="edge">
<title>17868697&#45;1049&#45;46c6&#45;8eb5&#45;1523686dcee0&#45;&gt;p_4</title>
<path fill="none" stroke="black" d="M288.35,-18C320.43,-18 369.11,-18 411.43,-18 411.43,-18 411.43,-18 1183,-18 1206.76,-18 1231.67,-25.92 1252.36,-34.96"/>
<polygon fill="black" stroke="black" points="1250.84,-38.11 1261.39,-39.12 1253.77,-31.76 1250.84,-38.11"/>
<text xml:space="preserve" text-anchor="middle" x="762.08" y="-20.15" font-family="Times,serif" font-size="8.00">q</text>
</g>
<!-- 9d9413d8&#45;3fd2&#45;4a49&#45;a068&#45;b4c84c81ce93&#45;&gt;p_16 -->
<g id="edge28" class="edge">
<title>9d9413d8&#45;3fd2&#45;4a49&#45;a068&#45;b4c84c81ce93&#45;&gt;p_16</title>
<path fill="none" stroke="black" d="M742.61,-326.49C751.4,-326.11 761.02,-325.7 770.48,-325.29"/>
<polygon fill="black" stroke="black" points="770.51,-328.8 780.35,-324.87 770.21,-321.8 770.51,-328.8"/>
<text xml:space="preserve" text-anchor="middle" x="762.08" y="-327.8" font-family="Times,serif" font-size="8.00">q</text>
</g>
<!-- 5892cfb1&#45;f395&#45;47c8&#45;a13a&#45;b0922ab07a5f&#45;&gt;p_17 -->
<g id="edge33" class="edge">
<title>5892cfb1&#45;f395&#45;47c8&#45;a13a&#45;b0922ab07a5f&#45;&gt;p_17</title>
<path fill="none" stroke="black" d="M980.51,-277.28C990.19,-273.81 1000.87,-269.97 1011.23,-266.25"/>
<polygon fill="black" stroke="black" points="1012.2,-269.62 1020.43,-262.95 1009.83,-263.03 1012.2,-269.62"/>
<text xml:space="preserve" text-anchor="middle" x="999.98" y="-272.41" font-family="Times,serif" font-size="8.00">q</text>
</g>
<!-- 5500e897&#45;3811&#45;434a&#45;b6ca&#45;1e50d335ecdc&#45;&gt;p_24 -->
<g id="edge32" class="edge">
<title>5500e897&#45;3811&#45;434a&#45;b6ca&#45;1e50d335ecdc&#45;&gt;p_24</title>
<path fill="none" stroke="black" d="M1383.46,-381.16C1360.46,-387.42 1329.72,-394 1301.95,-394 705.2,-394 705.2,-394 705.2,-394 681.01,-394 655.76,-402.49 634.95,-412.1"/>
<polygon fill="black" stroke="black" points="633.63,-408.85 626.16,-416.37 636.69,-415.14 633.63,-408.85"/>
<text xml:space="preserve" text-anchor="middle" x="999.98" y="-396.15" font-family="Times,serif" font-size="8.00">q</text>
</g>
</g>
</svg>
