<?xml version="1.0" encoding="UTF-8" standalone="no"?>
<!DOCTYPE svg PUBLIC "-//W3C//DTD SVG 1.1//EN"
 "http://www.w3.org/Graphics/SVG/1.1/DTD/svg11.dtd">
<!-- Generated by graphviz version 13.1.0 (20250701.0955)
 -->
<!-- Pages: 1 -->
<svg width="377pt" height="164pt"
 viewBox="0.00 0.00 377.00 164.00" xmlns="http://www.w3.org/2000/svg" xmlns:xlink="http://www.w3.org/1999/xlink">
<g id="graph0" class="graph" transform="scale(1 1) rotate(0) translate(4 160.08)">
<polygon fill="white" stroke="none" points="-4,4 -4,-160.08 372.5,-160.08 372.5,4 -4,4"/>
<text xml:space="preserve" text-anchor="middle" x="184.25" y="-136.88" font-family="Times,serif" font-size="16.00">Petri Net for Charge office Department &#45; TASE_ID_log</text>
<!-- p_3 -->
<g id="node1" class="node">
<title>p_3</title>
<ellipse fill="none" stroke="black" cx="184.25" cy="-64.66" rx="64.66" ry="64.66"/>
<text xml:space="preserve" text-anchor="middle" x="184.25" y="-66.41" font-family="Times,serif" font-size="10.00">p_3</text>
<text xml:space="preserve" text-anchor="middle" x="184.25" y="-55.16" font-family="Times,serif" font-size="10.00">Charge office Department</text>
</g>
<!-- c4bb6b46&#45;ecdb&#45;4063&#45;964d&#45;08a9bc814ec9 -->
<g id="node3" class="node">
<title>c4bb6b46&#45;ecdb&#45;4063&#45;964d&#45;08a9bc814ec9</title>
<polygon fill="none" stroke="black" points="360.66,-82.66 288.66,-82.66 288.66,-46.66 360.66,-46.66 360.66,-82.66"/>
<text xml:space="preserve" text-anchor="middle" x="324.66" y="-60.79" font-family="Times,serif" font-size="10.00">D27</text>
</g>
<!-- p_3&#45;&gt;c4bb6b46&#45;ecdb&#45;4063&#45;964d&#45;08a9bc814ec9 -->
<g id="edge2" class="edge">
<title>p_3&#45;&gt;c4bb6b46&#45;ecdb&#45;4063&#45;964d&#45;08a9bc814ec9</title>
<path fill="none" stroke="black" d="M249.19,-64.66C258.55,-64.66 268.03,-64.66 276.96,-64.66"/>
<polygon fill="black" stroke="black" points="276.8,-68.16 286.8,-64.66 276.8,-61.16 276.8,-68.16"/>
<text xml:space="preserve" text-anchor="middle" x="268.79" y="-66.81" font-family="Times,serif" font-size="8.00">o</text>
</g>
<!-- 0678b7fe&#45;691f&#45;4568&#45;a4c2&#45;1b864642cc43 -->
<g id="node2" class="node">
<title>0678b7fe&#45;691f&#45;4568&#45;a4c2&#45;1b864642cc43</title>
<polygon fill="none" stroke="black" points="79.84,-82.66 7.84,-82.66 7.84,-46.66 79.84,-46.66 79.84,-82.66"/>
<text xml:space="preserve" text-anchor="middle" x="43.84" y="-60.79" font-family="Times,serif" font-size="10.00">D26</text>
</g>
<!-- 0678b7fe&#45;691f&#45;4568&#45;a4c2&#45;1b864642cc43&#45;&gt;p_3 -->
<g id="edge1" class="edge">
<title>0678b7fe&#45;691f&#45;4568&#45;a4c2&#45;1b864642cc43&#45;&gt;p_3</title>
<path fill="none" stroke="black" d="M80.12,-64.66C88.7,-64.66 98.2,-64.66 107.86,-64.66"/>
<polygon fill="black" stroke="black" points="107.72,-68.16 117.72,-64.66 107.72,-61.16 107.72,-68.16"/>
<text xml:space="preserve" text-anchor="middle" x="99.71" y="-66.81" font-family="Times,serif" font-size="8.00">o</text>
</g>
</g>
</svg>
